<?xml version="1.0" encoding="UTF-8"?>
<svg xmlns="http://www.w3.org/2000/svg" xmlns:xlink="http://www.w3.org/1999/xlink" width="246.454307pt" height="191.394375pt" viewBox="0 0 246.454307 191.394375">
<defs>
<g>
<g id="glyph-0-0">
<path d="M 2.535156 -5.296875 C 2.128906 -5.296875 1.828125 -5.097656 1.617188 -4.695312 C 1.417969 -4.296875 1.316406 -3.699219 1.316406 -2.902344 C 1.316406 -2.105469 1.417969 -1.507812 1.617188 -1.109375 C 1.828125 -0.710938 2.128906 -0.511719 2.535156 -0.511719 C 2.941406 -0.511719 3.253906 -0.710938 3.453125 -1.109375 C 3.652344 -1.507812 3.757812 -2.105469 3.757812 -2.902344 C 3.757812 -3.699219 3.652344 -4.296875 3.453125 -4.695312 C 3.253906 -5.097656 2.941406 -5.296875 2.535156 -5.296875 Z M 2.535156 -5.917969 C 3.183594 -5.917969 3.683594 -5.660156 4.027344 -5.144531 C 4.371094 -4.625 4.546875 -3.882812 4.546875 -2.902344 C 4.546875 -1.921875 4.371094 -1.179688 4.027344 -0.660156 C 3.683594 -0.144531 3.183594 0.113281 2.535156 0.113281 C 1.882812 0.113281 1.378906 -0.144531 1.035156 -0.660156 C 0.695312 -1.179688 0.527344 -1.921875 0.527344 -2.902344 C 0.527344 -3.882812 0.695312 -4.625 1.035156 -5.144531 C 1.378906 -5.660156 1.882812 -5.917969 2.535156 -5.917969 Z M 2.535156 -5.917969 "/>
</g>
<g id="glyph-0-1">
<path d="M 0.851562 -0.988281 L 1.675781 -0.988281 L 1.675781 0 L 0.851562 0 Z M 0.851562 -0.988281 "/>
</g>
<g id="glyph-0-2">
<path d="M 1.53125 -0.660156 L 4.273438 -0.660156 L 4.273438 0 L 0.582031 0 L 0.582031 -0.660156 C 0.878906 -0.972656 1.285156 -1.386719 1.800781 -1.90625 C 2.320312 -2.425781 2.640625 -2.757812 2.773438 -2.910156 C 3.03125 -3.191406 3.207031 -3.429688 3.300781 -3.628906 C 3.40625 -3.828125 3.453125 -4.019531 3.453125 -4.210938 C 3.453125 -4.523438 3.339844 -4.769531 3.125 -4.96875 C 2.910156 -5.160156 2.632812 -5.253906 2.28125 -5.253906 C 2.035156 -5.253906 1.777344 -5.214844 1.5 -5.128906 C 1.226562 -5.039062 0.933594 -4.914062 0.621094 -4.738281 L 0.621094 -5.535156 C 0.941406 -5.660156 1.234375 -5.757812 1.507812 -5.820312 C 1.785156 -5.886719 2.035156 -5.917969 2.265625 -5.917969 C 2.863281 -5.917969 3.347656 -5.765625 3.707031 -5.46875 C 4.066406 -5.167969 4.242188 -4.761719 4.242188 -4.257812 C 4.242188 -4.019531 4.195312 -3.796875 4.105469 -3.582031 C 4.019531 -3.367188 3.859375 -3.117188 3.621094 -2.824219 C 3.558594 -2.75 3.347656 -2.527344 3 -2.167969 C 2.65625 -1.808594 2.160156 -1.308594 1.53125 -0.660156 Z M 1.53125 -0.660156 "/>
</g>
<g id="glyph-0-3">
<path d="M 3.015625 -5.128906 L 1.027344 -2.027344 L 3.015625 -2.027344 Z M 2.808594 -5.8125 L 3.796875 -5.8125 L 3.796875 -2.027344 L 4.625 -2.027344 L 4.625 -1.371094 L 3.796875 -1.371094 L 3.796875 0 L 3.015625 0 L 3.015625 -1.371094 L 0.390625 -1.371094 L 0.390625 -2.128906 Z M 2.808594 -5.8125 "/>
</g>
<g id="glyph-0-4">
<path d="M 2.632812 -3.222656 C 2.28125 -3.222656 2 -3.101562 1.792969 -2.855469 C 1.585938 -2.617188 1.484375 -2.289062 1.484375 -1.867188 C 1.484375 -1.445312 1.585938 -1.117188 1.792969 -0.871094 C 2 -0.628906 2.28125 -0.511719 2.632812 -0.511719 C 2.984375 -0.511719 3.261719 -0.628906 3.46875 -0.871094 C 3.675781 -1.117188 3.78125 -1.445312 3.78125 -1.867188 C 3.78125 -2.289062 3.675781 -2.617188 3.46875 -2.855469 C 3.261719 -3.101562 2.984375 -3.222656 2.632812 -3.222656 Z M 4.195312 -5.6875 L 4.195312 -4.96875 C 3.996094 -5.0625 3.796875 -5.136719 3.597656 -5.183594 C 3.398438 -5.230469 3.199219 -5.253906 3 -5.253906 C 2.480469 -5.253906 2.082031 -5.078125 1.808594 -4.730469 C 1.53125 -4.378906 1.378906 -3.851562 1.339844 -3.140625 C 1.492188 -3.375 1.683594 -3.539062 1.914062 -3.660156 C 2.144531 -3.78125 2.402344 -3.84375 2.679688 -3.84375 C 3.261719 -3.84375 3.722656 -3.667969 4.058594 -3.308594 C 4.402344 -2.957031 4.570312 -2.480469 4.570312 -1.867188 C 4.570312 -1.269531 4.394531 -0.789062 4.042969 -0.429688 C 3.683594 -0.0703125 3.214844 0.113281 2.632812 0.113281 C 1.960938 0.113281 1.453125 -0.144531 1.09375 -0.660156 C 0.734375 -1.179688 0.558594 -1.921875 0.558594 -2.902344 C 0.558594 -3.820312 0.773438 -4.554688 1.210938 -5.097656 C 1.652344 -5.644531 2.234375 -5.917969 2.964844 -5.917969 C 3.164062 -5.917969 3.367188 -5.902344 3.566406 -5.863281 C 3.765625 -5.820312 3.980469 -5.765625 4.195312 -5.6875 Z M 4.195312 -5.6875 "/>
</g>
<g id="glyph-0-5">
<path d="M 0.78125 -5.8125 L 4.121094 -5.8125 L 4.121094 -5.152344 L 1.570312 -5.152344 L 1.570312 -3.4375 L 3.875 -3.4375 L 3.875 -2.773438 L 1.570312 -2.773438 L 1.570312 0 L 0.78125 0 Z M 0.78125 -5.8125 "/>
</g>
<g id="glyph-0-6">
<path d="M 0.988281 -0.660156 L 2.273438 -0.660156 L 2.273438 -5.097656 L 0.878906 -4.816406 L 0.878906 -5.535156 L 2.265625 -5.8125 L 3.054688 -5.8125 L 3.054688 -0.660156 L 4.339844 -0.660156 L 4.339844 0 L 0.988281 0 Z M 0.988281 -0.660156 "/>
</g>
<g id="glyph-0-7">
</g>
<g id="glyph-0-8">
<path d="M 3.890625 -4.195312 L 3.890625 -3.523438 C 3.691406 -3.636719 3.484375 -3.714844 3.277344 -3.773438 C 3.078125 -3.828125 2.871094 -3.859375 2.664062 -3.859375 C 2.199219 -3.859375 1.84375 -3.707031 1.578125 -3.414062 C 1.324219 -3.117188 1.195312 -2.710938 1.195312 -2.175781 C 1.195312 -1.644531 1.324219 -1.226562 1.578125 -0.933594 C 1.84375 -0.636719 2.199219 -0.496094 2.664062 -0.496094 C 2.871094 -0.496094 3.078125 -0.519531 3.277344 -0.574219 C 3.484375 -0.628906 3.691406 -0.71875 3.890625 -0.828125 L 3.890625 -0.167969 C 3.691406 -0.0703125 3.484375 0 3.269531 0.0390625 C 3.054688 0.0859375 2.832031 0.113281 2.582031 0.113281 C 1.929688 0.113281 1.410156 -0.09375 1.019531 -0.503906 C 0.628906 -0.917969 0.4375 -1.476562 0.4375 -2.175781 C 0.4375 -2.886719 0.628906 -3.445312 1.019531 -3.851562 C 1.410156 -4.257812 1.953125 -4.464844 2.632812 -4.464844 C 2.855469 -4.464844 3.070312 -4.441406 3.277344 -4.394531 C 3.492188 -4.355469 3.691406 -4.28125 3.890625 -4.195312 Z M 3.890625 -4.195312 "/>
</g>
<g id="glyph-0-9">
<path d="M 4.378906 -2.632812 L 4.378906 0 L 3.660156 0 L 3.660156 -2.609375 C 3.660156 -3.023438 3.582031 -3.332031 3.421875 -3.53125 C 3.253906 -3.738281 3.015625 -3.84375 2.695312 -3.84375 C 2.304688 -3.84375 2 -3.722656 1.777344 -3.476562 C 1.554688 -3.230469 1.445312 -2.886719 1.445312 -2.464844 L 1.445312 0 L 0.726562 0 L 0.726562 -6.0625 L 1.445312 -6.0625 L 1.445312 -3.683594 C 1.609375 -3.949219 1.816406 -4.140625 2.050781 -4.273438 C 2.28125 -4.402344 2.550781 -4.464844 2.855469 -4.464844 C 3.355469 -4.464844 3.730469 -4.304688 3.988281 -3.996094 C 4.25 -3.683594 4.378906 -3.230469 4.378906 -2.632812 Z M 4.378906 -2.632812 "/>
</g>
<g id="glyph-0-10">
<path d="M 2.734375 -2.191406 C 2.152344 -2.191406 1.753906 -2.128906 1.53125 -1.992188 C 1.308594 -1.859375 1.195312 -1.636719 1.195312 -1.316406 C 1.195312 -1.0625 1.277344 -0.859375 1.445312 -0.710938 C 1.609375 -0.558594 1.84375 -0.488281 2.128906 -0.488281 C 2.527344 -0.488281 2.847656 -0.628906 3.085938 -0.910156 C 3.324219 -1.1875 3.445312 -1.5625 3.445312 -2.035156 L 3.445312 -2.191406 Z M 4.164062 -2.488281 L 4.164062 0 L 3.445312 0 L 3.445312 -0.660156 C 3.277344 -0.398438 3.078125 -0.199219 2.832031 -0.0703125 C 2.59375 0.046875 2.296875 0.113281 1.9375 0.113281 C 1.492188 0.113281 1.132812 -0.015625 0.871094 -0.261719 C 0.605469 -0.511719 0.476562 -0.84375 0.476562 -1.269531 C 0.476562 -1.753906 0.644531 -2.128906 0.972656 -2.375 C 1.300781 -2.625 1.792969 -2.75 2.441406 -2.75 L 3.445312 -2.75 L 3.445312 -2.824219 C 3.445312 -3.148438 3.332031 -3.40625 3.117188 -3.589844 C 2.902344 -3.773438 2.601562 -3.859375 2.210938 -3.859375 C 1.960938 -3.859375 1.714844 -3.828125 1.484375 -3.773438 C 1.242188 -3.707031 1.011719 -3.621094 0.796875 -3.5 L 0.796875 -4.164062 C 1.0625 -4.265625 1.316406 -4.339844 1.5625 -4.386719 C 1.808594 -4.441406 2.050781 -4.464844 2.28125 -4.464844 C 2.910156 -4.464844 3.382812 -4.304688 3.691406 -3.980469 C 4.003906 -3.652344 4.164062 -3.148438 4.164062 -2.488281 Z M 4.164062 -2.488281 "/>
</g>
<g id="glyph-0-11">
<path d="M 4.378906 -2.632812 L 4.378906 0 L 3.660156 0 L 3.660156 -2.609375 C 3.660156 -3.023438 3.582031 -3.332031 3.421875 -3.53125 C 3.253906 -3.738281 3.015625 -3.84375 2.695312 -3.84375 C 2.304688 -3.84375 2 -3.722656 1.777344 -3.476562 C 1.554688 -3.230469 1.445312 -2.886719 1.445312 -2.464844 L 1.445312 0 L 0.726562 0 L 0.726562 -4.363281 L 1.445312 -4.363281 L 1.445312 -3.683594 C 1.609375 -3.949219 1.816406 -4.140625 2.050781 -4.273438 C 2.28125 -4.402344 2.550781 -4.464844 2.855469 -4.464844 C 3.355469 -4.464844 3.730469 -4.304688 3.988281 -3.996094 C 4.25 -3.683594 4.378906 -3.230469 4.378906 -2.632812 Z M 4.378906 -2.632812 "/>
</g>
<g id="glyph-0-12">
<path d="M 3.621094 -2.234375 C 3.621094 -2.75 3.515625 -3.148438 3.300781 -3.4375 C 3.085938 -3.722656 2.792969 -3.867188 2.402344 -3.867188 C 2.019531 -3.867188 1.714844 -3.722656 1.5 -3.4375 C 1.285156 -3.148438 1.179688 -2.75 1.179688 -2.234375 C 1.179688 -1.714844 1.285156 -1.316406 1.5 -1.027344 C 1.714844 -0.742188 2.019531 -0.597656 2.402344 -0.597656 C 2.792969 -0.597656 3.085938 -0.742188 3.300781 -1.027344 C 3.515625 -1.316406 3.621094 -1.714844 3.621094 -2.234375 Z M 4.339844 -0.542969 C 4.339844 0.199219 4.171875 0.757812 3.84375 1.117188 C 3.515625 1.476562 3.007812 1.660156 2.328125 1.660156 C 2.082031 1.660156 1.84375 1.644531 1.617188 1.601562 C 1.394531 1.5625 1.179688 1.507812 0.964844 1.425781 L 0.964844 0.734375 C 1.179688 0.84375 1.386719 0.933594 1.585938 0.988281 C 1.792969 1.042969 2 1.070312 2.21875 1.070312 C 2.6875 1.070312 3.039062 0.941406 3.269531 0.695312 C 3.5 0.453125 3.621094 0.0859375 3.621094 -0.414062 L 3.621094 -0.765625 C 3.46875 -0.511719 3.285156 -0.320312 3.054688 -0.191406 C 2.824219 -0.0625 2.542969 0 2.226562 0 C 1.691406 0 1.261719 -0.207031 0.933594 -0.613281 C 0.605469 -1.019531 0.4375 -1.554688 0.4375 -2.234375 C 0.4375 -2.910156 0.605469 -3.445312 0.933594 -3.851562 C 1.261719 -4.257812 1.691406 -4.464844 2.226562 -4.464844 C 2.542969 -4.464844 2.824219 -4.402344 3.054688 -4.273438 C 3.285156 -4.148438 3.46875 -3.957031 3.621094 -3.699219 L 3.621094 -4.363281 L 4.339844 -4.363281 Z M 4.339844 -0.542969 "/>
</g>
<g id="glyph-0-13">
<path d="M 4.480469 -2.359375 L 4.480469 -2.007812 L 1.1875 -2.007812 C 1.21875 -1.515625 1.371094 -1.140625 1.636719 -0.878906 C 1.898438 -0.621094 2.273438 -0.496094 2.742188 -0.496094 C 3.023438 -0.496094 3.285156 -0.527344 3.539062 -0.597656 C 3.804688 -0.660156 4.058594 -0.765625 4.3125 -0.902344 L 4.3125 -0.222656 C 4.058594 -0.113281 3.796875 -0.03125 3.523438 0.0234375 C 3.253906 0.078125 2.984375 0.113281 2.703125 0.113281 C 2.007812 0.113281 1.453125 -0.0859375 1.042969 -0.496094 C 0.636719 -0.902344 0.4375 -1.445312 0.4375 -2.136719 C 0.4375 -2.847656 0.628906 -3.414062 1.011719 -3.835938 C 1.402344 -4.257812 1.921875 -4.464844 2.574219 -4.464844 C 3.164062 -4.464844 3.628906 -4.273438 3.972656 -3.898438 C 4.3125 -3.523438 4.480469 -3.007812 4.480469 -2.359375 Z M 3.765625 -2.566406 C 3.757812 -2.957031 3.652344 -3.277344 3.4375 -3.507812 C 3.222656 -3.738281 2.941406 -3.859375 2.582031 -3.859375 C 2.183594 -3.859375 1.867188 -3.75 1.625 -3.515625 C 1.386719 -3.292969 1.253906 -2.972656 1.210938 -2.566406 Z M 3.765625 -2.566406 "/>
</g>
<g id="glyph-0-14">
<path d="M 2.957031 -6.0625 L 2.957031 -5.460938 L 2.273438 -5.460938 C 2.019531 -5.460938 1.84375 -5.414062 1.738281 -5.3125 C 1.636719 -5.207031 1.585938 -5.015625 1.585938 -4.746094 L 1.585938 -4.363281 L 2.765625 -4.363281 L 2.765625 -3.804688 L 1.585938 -3.804688 L 1.585938 0 L 0.871094 0 L 0.871094 -3.804688 L 0.183594 -3.804688 L 0.183594 -4.363281 L 0.871094 -4.363281 L 0.871094 -4.664062 C 0.871094 -5.152344 0.980469 -5.503906 1.203125 -5.726562 C 1.433594 -5.949219 1.792969 -6.0625 2.28125 -6.0625 Z M 2.957031 -6.0625 "/>
</g>
<g id="glyph-0-15">
<path d="M 3.277344 -3.691406 C 3.199219 -3.738281 3.109375 -3.773438 3.015625 -3.796875 C 2.917969 -3.820312 2.816406 -3.828125 2.703125 -3.828125 C 2.296875 -3.828125 1.984375 -3.691406 1.769531 -3.429688 C 1.554688 -3.164062 1.445312 -2.792969 1.445312 -2.296875 L 1.445312 0 L 0.726562 0 L 0.726562 -4.363281 L 1.445312 -4.363281 L 1.445312 -3.683594 C 1.59375 -3.949219 1.785156 -4.148438 2.035156 -4.273438 C 2.273438 -4.402344 2.566406 -4.464844 2.910156 -4.464844 C 2.964844 -4.464844 3.023438 -4.464844 3.078125 -4.457031 C 3.132812 -4.449219 3.207031 -4.441406 3.277344 -4.425781 Z M 3.277344 -3.691406 "/>
</g>
<g id="glyph-0-16">
<path d="M 2.441406 -3.859375 C 2.058594 -3.859375 1.753906 -3.707031 1.53125 -3.40625 C 1.308594 -3.109375 1.195312 -2.695312 1.195312 -2.175781 C 1.195312 -1.660156 1.308594 -1.242188 1.523438 -0.941406 C 1.746094 -0.644531 2.050781 -0.496094 2.441406 -0.496094 C 2.824219 -0.496094 3.125 -0.644531 3.347656 -0.949219 C 3.574219 -1.242188 3.683594 -1.660156 3.683594 -2.175781 C 3.683594 -2.695312 3.574219 -3.101562 3.347656 -3.40625 C 3.125 -3.707031 2.824219 -3.859375 2.441406 -3.859375 Z M 2.441406 -4.464844 C 3.0625 -4.464844 3.546875 -4.265625 3.90625 -3.859375 C 4.265625 -3.453125 4.441406 -2.894531 4.441406 -2.175781 C 4.441406 -1.46875 4.265625 -0.902344 3.90625 -0.496094 C 3.546875 -0.0859375 3.0625 0.113281 2.441406 0.113281 C 1.808594 0.113281 1.324219 -0.0859375 0.972656 -0.496094 C 0.613281 -0.902344 0.4375 -1.46875 0.4375 -2.175781 C 0.4375 -2.894531 0.613281 -3.453125 0.972656 -3.859375 C 1.324219 -4.265625 1.808594 -4.464844 2.441406 -4.464844 Z M 2.441406 -4.464844 "/>
</g>
<g id="glyph-0-17">
<path d="M 4.148438 -3.523438 C 4.332031 -3.84375 4.546875 -4.082031 4.792969 -4.234375 C 5.039062 -4.386719 5.328125 -4.464844 5.671875 -4.464844 C 6.125 -4.464844 6.476562 -4.304688 6.722656 -3.988281 C 6.96875 -3.667969 7.089844 -3.214844 7.089844 -2.632812 L 7.089844 0 L 6.371094 0 L 6.371094 -2.609375 C 6.371094 -3.03125 6.300781 -3.339844 6.148438 -3.539062 C 5.996094 -3.738281 5.773438 -3.84375 5.46875 -3.84375 C 5.097656 -3.84375 4.808594 -3.722656 4.59375 -3.476562 C 4.378906 -3.230469 4.265625 -2.886719 4.265625 -2.464844 L 4.265625 0 L 3.546875 0 L 3.546875 -2.609375 C 3.546875 -3.03125 3.476562 -3.339844 3.324219 -3.539062 C 3.175781 -3.738281 2.949219 -3.84375 2.640625 -3.84375 C 2.273438 -3.84375 1.984375 -3.714844 1.769531 -3.46875 C 1.554688 -3.222656 1.445312 -2.886719 1.445312 -2.464844 L 1.445312 0 L 0.726562 0 L 0.726562 -4.363281 L 1.445312 -4.363281 L 1.445312 -3.683594 C 1.609375 -3.949219 1.800781 -4.148438 2.035156 -4.273438 C 2.265625 -4.402344 2.535156 -4.464844 2.847656 -4.464844 C 3.164062 -4.464844 3.4375 -4.386719 3.652344 -4.226562 C 3.875 -4.066406 4.042969 -3.835938 4.148438 -3.523438 Z M 4.148438 -3.523438 "/>
</g>
<g id="glyph-0-18">
<path d="M 0.78125 -5.8125 L 1.570312 -5.8125 L 1.570312 -0.660156 L 4.402344 -0.660156 L 4.402344 0 L 0.78125 0 Z M 0.78125 -5.8125 "/>
</g>
<g id="glyph-0-19">
<path d="M 3.539062 -2.726562 C 3.707031 -2.671875 3.875 -2.542969 4.027344 -2.359375 C 4.195312 -2.175781 4.355469 -1.914062 4.515625 -1.585938 L 5.3125 0 L 4.464844 0 L 3.722656 -1.492188 C 3.53125 -1.882812 3.339844 -2.136719 3.15625 -2.265625 C 2.984375 -2.390625 2.734375 -2.457031 2.425781 -2.457031 L 1.570312 -2.457031 L 1.570312 0 L 0.78125 0 L 0.78125 -5.8125 L 2.558594 -5.8125 C 3.222656 -5.8125 3.714844 -5.679688 4.042969 -5.398438 C 4.371094 -5.121094 4.539062 -4.707031 4.539062 -4.140625 C 4.539062 -3.773438 4.449219 -3.46875 4.28125 -3.230469 C 4.113281 -2.984375 3.867188 -2.816406 3.539062 -2.726562 Z M 1.570312 -5.167969 L 1.570312 -3.101562 L 2.558594 -3.101562 C 2.933594 -3.101562 3.222656 -3.191406 3.414062 -3.367188 C 3.613281 -3.539062 3.707031 -3.796875 3.707031 -4.140625 C 3.707031 -4.480469 3.613281 -4.738281 3.414062 -4.90625 C 3.222656 -5.078125 2.933594 -5.167969 2.558594 -5.167969 Z M 1.570312 -5.167969 "/>
</g>
<g id="glyph-0-20">
<path d="M 2.726562 -5.039062 L 1.660156 -2.144531 L 3.796875 -2.144531 Z M 2.28125 -5.8125 L 3.175781 -5.8125 L 5.390625 0 L 4.570312 0 L 4.042969 -1.492188 L 1.417969 -1.492188 L 0.894531 0 L 0.0625 0 Z M 2.28125 -5.8125 "/>
</g>
<g id="glyph-0-21">
<path d="M 2.472656 -6.054688 C 2.128906 -5.453125 1.867188 -4.863281 1.699219 -4.28125 C 1.53125 -3.699219 1.445312 -3.101562 1.445312 -2.503906 C 1.445312 -1.90625 1.53125 -1.308594 1.699219 -0.71875 C 1.867188 -0.136719 2.128906 0.453125 2.472656 1.050781 L 1.851562 1.050781 C 1.460938 0.4375 1.171875 -0.160156 0.972656 -0.75 C 0.78125 -1.339844 0.6875 -1.921875 0.6875 -2.503906 C 0.6875 -3.085938 0.78125 -3.667969 0.972656 -4.25 C 1.164062 -4.839844 1.460938 -5.4375 1.851562 -6.054688 Z M 2.472656 -6.054688 "/>
</g>
<g id="glyph-0-22">
<path d="M 1.460938 -5.597656 L 1.460938 -4.363281 L 2.933594 -4.363281 L 2.933594 -3.804688 L 1.460938 -3.804688 L 1.460938 -1.433594 C 1.460938 -1.078125 1.507812 -0.851562 1.601562 -0.75 C 1.707031 -0.644531 1.90625 -0.597656 2.199219 -0.597656 L 2.933594 -0.597656 L 2.933594 0 L 2.199219 0 C 1.652344 0 1.269531 -0.105469 1.050781 -0.3125 C 0.84375 -0.519531 0.742188 -0.894531 0.742188 -1.433594 L 0.742188 -3.804688 L 0.214844 -3.804688 L 0.214844 -4.363281 L 0.742188 -4.363281 L 0.742188 -5.597656 Z M 1.460938 -5.597656 "/>
</g>
<g id="glyph-0-23">
<path d="M 0.679688 -1.722656 L 0.679688 -4.363281 L 1.394531 -4.363281 L 1.394531 -1.746094 C 1.394531 -1.339844 1.476562 -1.027344 1.636719 -0.820312 C 1.792969 -0.613281 2.035156 -0.511719 2.359375 -0.511719 C 2.75 -0.511719 3.054688 -0.628906 3.277344 -0.878906 C 3.5 -1.125 3.613281 -1.46875 3.613281 -1.890625 L 3.613281 -4.363281 L 4.332031 -4.363281 L 4.332031 0 L 3.613281 0 L 3.613281 -0.667969 C 3.4375 -0.40625 3.238281 -0.207031 3.007812 -0.078125 C 2.773438 0.046875 2.511719 0.113281 2.210938 0.113281 C 1.707031 0.113281 1.332031 -0.0390625 1.070312 -0.351562 C 0.804688 -0.660156 0.679688 -1.125 0.679688 -1.722656 Z M 2.480469 -4.464844 Z M 2.480469 -4.464844 "/>
</g>
<g id="glyph-0-24">
<path d="M 3.621094 -3.699219 L 3.621094 -6.0625 L 4.339844 -6.0625 L 4.339844 0 L 3.621094 0 L 3.621094 -0.652344 C 3.46875 -0.390625 3.277344 -0.199219 3.046875 -0.0703125 C 2.816406 0.046875 2.542969 0.113281 2.226562 0.113281 C 1.699219 0.113281 1.269531 -0.09375 0.933594 -0.519531 C 0.605469 -0.941406 0.4375 -1.492188 0.4375 -2.175781 C 0.4375 -2.863281 0.605469 -3.414062 0.933594 -3.835938 C 1.269531 -4.257812 1.699219 -4.464844 2.226562 -4.464844 C 2.542969 -4.464844 2.816406 -4.402344 3.046875 -4.273438 C 3.277344 -4.15625 3.46875 -3.964844 3.621094 -3.699219 Z M 1.179688 -2.175781 C 1.179688 -1.652344 1.285156 -1.234375 1.5 -0.933594 C 1.714844 -0.636719 2.019531 -0.488281 2.402344 -0.488281 C 2.773438 -0.488281 3.078125 -0.636719 3.292969 -0.933594 C 3.507812 -1.234375 3.621094 -1.652344 3.621094 -2.175781 C 3.621094 -2.703125 3.507812 -3.117188 3.292969 -3.414062 C 3.078125 -3.714844 2.773438 -3.867188 2.402344 -3.867188 C 2.019531 -3.867188 1.714844 -3.714844 1.5 -3.414062 C 1.285156 -3.117188 1.179688 -2.703125 1.179688 -2.175781 Z M 1.179688 -2.175781 "/>
</g>
<g id="glyph-0-25">
<path d="M 3.882812 -2.175781 C 3.882812 -2.703125 3.773438 -3.117188 3.558594 -3.414062 C 3.339844 -3.714844 3.039062 -3.867188 2.664062 -3.867188 C 2.289062 -3.867188 1.984375 -3.714844 1.769531 -3.414062 C 1.554688 -3.117188 1.445312 -2.703125 1.445312 -2.175781 C 1.445312 -1.652344 1.554688 -1.234375 1.769531 -0.933594 C 1.984375 -0.636719 2.289062 -0.488281 2.664062 -0.488281 C 3.039062 -0.488281 3.339844 -0.636719 3.558594 -0.933594 C 3.773438 -1.234375 3.882812 -1.652344 3.882812 -2.175781 Z M 1.445312 -3.699219 C 1.59375 -3.964844 1.777344 -4.15625 2.007812 -4.273438 C 2.242188 -4.402344 2.519531 -4.464844 2.839844 -4.464844 C 3.375 -4.464844 3.804688 -4.257812 4.132812 -3.835938 C 4.457031 -3.414062 4.625 -2.863281 4.625 -2.175781 C 4.625 -1.492188 4.457031 -0.941406 4.132812 -0.519531 C 3.804688 -0.09375 3.375 0.113281 2.839844 0.113281 C 2.519531 0.113281 2.242188 0.046875 2.007812 -0.0703125 C 1.777344 -0.199219 1.59375 -0.390625 1.445312 -0.652344 L 1.445312 0 L 0.726562 0 L 0.726562 -6.0625 L 1.445312 -6.0625 Z M 1.445312 -3.699219 "/>
</g>
<g id="glyph-0-26">
<path d="M 3.53125 -4.234375 L 3.53125 -3.558594 C 3.332031 -3.660156 3.117188 -3.730469 2.902344 -3.789062 C 2.6875 -3.84375 2.457031 -3.867188 2.226562 -3.867188 C 1.867188 -3.867188 1.601562 -3.8125 1.417969 -3.699219 C 1.242188 -3.597656 1.15625 -3.429688 1.15625 -3.214844 C 1.15625 -3.046875 1.21875 -2.917969 1.347656 -2.824219 C 1.476562 -2.726562 1.730469 -2.640625 2.113281 -2.550781 L 2.359375 -2.496094 C 2.871094 -2.382812 3.230469 -2.234375 3.445312 -2.035156 C 3.660156 -1.835938 3.765625 -1.5625 3.765625 -1.203125 C 3.765625 -0.796875 3.605469 -0.476562 3.285156 -0.238281 C 2.964844 -0.0078125 2.527344 0.113281 1.960938 0.113281 C 1.730469 0.113281 1.484375 0.0859375 1.226562 0.0390625 C 0.980469 0 0.710938 -0.0703125 0.429688 -0.160156 L 0.429688 -0.902344 C 0.695312 -0.765625 0.957031 -0.660156 1.210938 -0.589844 C 1.476562 -0.519531 1.730469 -0.488281 1.976562 -0.488281 C 2.320312 -0.488281 2.574219 -0.542969 2.757812 -0.660156 C 2.941406 -0.773438 3.03125 -0.933594 3.03125 -1.148438 C 3.03125 -1.347656 2.964844 -1.492188 2.832031 -1.59375 C 2.703125 -1.699219 2.417969 -1.800781 1.96875 -1.898438 L 1.722656 -1.953125 C 1.277344 -2.050781 0.957031 -2.191406 0.757812 -2.382812 C 0.558594 -2.574219 0.460938 -2.839844 0.460938 -3.183594 C 0.460938 -3.589844 0.605469 -3.90625 0.902344 -4.132812 C 1.1875 -4.355469 1.601562 -4.464844 2.136719 -4.464844 C 2.402344 -4.464844 2.65625 -4.449219 2.886719 -4.410156 C 3.117188 -4.371094 3.332031 -4.304688 3.53125 -4.234375 Z M 3.53125 -4.234375 "/>
</g>
<g id="glyph-0-27">
<path d="M 0.636719 -6.054688 L 1.261719 -6.054688 C 1.652344 -5.4375 1.9375 -4.839844 2.136719 -4.25 C 2.328125 -3.667969 2.425781 -3.085938 2.425781 -2.503906 C 2.425781 -1.921875 2.328125 -1.339844 2.136719 -0.75 C 1.9375 -0.160156 1.652344 0.4375 1.261719 1.050781 L 0.636719 1.050781 C 0.980469 0.453125 1.242188 -0.136719 1.410156 -0.71875 C 1.578125 -1.308594 1.667969 -1.90625 1.667969 -2.503906 C 1.667969 -3.101562 1.578125 -3.699219 1.410156 -4.28125 C 1.242188 -4.863281 0.980469 -5.453125 0.636719 -6.054688 Z M 0.636719 -6.054688 "/>
</g>
<g id="glyph-0-28">
<path d="M 0.75 -4.363281 L 1.46875 -4.363281 L 1.46875 0 L 0.75 0 Z M 0.75 -6.0625 L 1.46875 -6.0625 L 1.46875 -5.152344 L 0.75 -5.152344 Z M 0.75 -6.0625 "/>
</g>
<g id="glyph-0-29">
<path d="M 0.390625 -2.503906 L 2.488281 -2.503906 L 2.488281 -1.867188 L 0.390625 -1.867188 Z M 0.390625 -2.503906 "/>
</g>
<g id="glyph-0-30">
<path d="M 0.933594 -4.121094 L 1.753906 -4.121094 L 1.753906 -3.132812 L 0.933594 -3.132812 Z M 0.933594 -0.988281 L 1.753906 -0.988281 L 1.753906 -0.320312 L 1.117188 0.925781 L 0.613281 0.925781 L 0.933594 -0.320312 Z M 0.933594 -0.988281 "/>
</g>
<g id="glyph-0-31">
<path d="M 0.75 -6.0625 L 1.46875 -6.0625 L 1.46875 0 L 0.75 0 Z M 0.75 -6.0625 "/>
</g>
<g id="glyph-0-32">
<path d="M 3.75 -4.855469 L 2.351562 -4.097656 L 3.75 -3.339844 L 3.523438 -2.957031 L 2.21875 -3.75 L 2.21875 -2.28125 L 1.769531 -2.28125 L 1.769531 -3.75 L 0.460938 -2.957031 L 0.238281 -3.339844 L 1.636719 -4.097656 L 0.238281 -4.855469 L 0.460938 -5.238281 L 1.769531 -4.449219 L 1.769531 -5.917969 L 2.21875 -5.917969 L 2.21875 -4.449219 L 3.523438 -5.238281 Z M 3.75 -4.855469 "/>
</g>
<g id="glyph-0-33">
<path d="M 2.566406 0.40625 C 2.367188 0.925781 2.167969 1.261719 1.976562 1.417969 C 1.777344 1.578125 1.523438 1.660156 1.203125 1.660156 L 0.628906 1.660156 L 0.628906 1.0625 L 1.050781 1.0625 C 1.253906 1.0625 1.402344 1.011719 1.507812 0.917969 C 1.617188 0.828125 1.738281 0.605469 1.875 0.253906 L 2 -0.0703125 L 0.238281 -4.363281 L 0.996094 -4.363281 L 2.359375 -0.949219 L 3.722656 -4.363281 L 4.480469 -4.363281 Z M 2.566406 0.40625 "/>
</g>
<g id="glyph-1-0">
<path d="M 0.84375 -2.832031 L 5.835938 -2.832031 L 5.835938 -2.167969 L 0.84375 -2.167969 Z M 0.84375 -2.832031 "/>
</g>
<g id="glyph-1-1">
<path d="M 2.28125 -6.0625 L 4.273438 -6.0625 L 4.273438 0 L 3.558594 0 L 3.558594 -5.460938 L 2.273438 -5.460938 C 2.019531 -5.460938 1.84375 -5.414062 1.738281 -5.3125 C 1.636719 -5.207031 1.585938 -5.015625 1.585938 -4.746094 L 1.585938 -4.363281 L 2.765625 -4.363281 L 2.765625 -3.804688 L 1.585938 -3.804688 L 1.585938 0 L 0.871094 0 L 0.871094 -3.804688 L 0.183594 -3.804688 L 0.183594 -4.363281 L 0.871094 -4.363281 L 0.871094 -4.664062 C 0.871094 -5.152344 0.980469 -5.503906 1.203125 -5.726562 C 1.433594 -5.949219 1.792969 -6.0625 2.28125 -6.0625 Z M 2.28125 -6.0625 "/>
</g>
<g id="glyph-2-0">
<path d="M 0.65625 -3.816406 L 1.285156 -3.816406 L 1.285156 0.0703125 C 1.285156 0.550781 1.191406 0.90625 1.003906 1.125 C 0.816406 1.339844 0.523438 1.453125 0.113281 1.453125 L -0.125 1.453125 L -0.125 0.921875 L 0.0429688 0.921875 C 0.277344 0.921875 0.441406 0.867188 0.53125 0.753906 C 0.613281 0.640625 0.65625 0.410156 0.65625 0.0703125 Z M 0.65625 -5.304688 L 1.285156 -5.304688 L 1.285156 -4.507812 L 0.65625 -4.507812 Z M 0.65625 -5.304688 "/>
</g>
<g id="glyph-2-1">
<path d="M 2.394531 -1.917969 C 1.882812 -1.917969 1.535156 -1.863281 1.339844 -1.746094 C 1.144531 -1.625 1.046875 -1.429688 1.046875 -1.152344 C 1.046875 -0.929688 1.117188 -0.753906 1.261719 -0.621094 C 1.410156 -0.488281 1.613281 -0.425781 1.863281 -0.425781 C 2.210938 -0.425781 2.492188 -0.550781 2.699219 -0.796875 C 2.910156 -1.039062 3.015625 -1.367188 3.015625 -1.78125 L 3.015625 -1.917969 Z M 3.640625 -2.175781 L 3.640625 0 L 3.015625 0 L 3.015625 -0.578125 C 2.867188 -0.347656 2.695312 -0.175781 2.476562 -0.0625 C 2.269531 0.0429688 2.007812 0.0976562 1.695312 0.0976562 C 1.304688 0.0976562 0.992188 -0.015625 0.761719 -0.230469 C 0.53125 -0.445312 0.417969 -0.738281 0.417969 -1.109375 C 0.417969 -1.535156 0.566406 -1.863281 0.851562 -2.078125 C 1.136719 -2.296875 1.570312 -2.40625 2.136719 -2.40625 L 3.015625 -2.40625 L 3.015625 -2.46875 C 3.015625 -2.757812 2.917969 -2.980469 2.726562 -3.140625 C 2.539062 -3.300781 2.273438 -3.378906 1.933594 -3.378906 C 1.714844 -3.378906 1.5 -3.347656 1.296875 -3.300781 C 1.089844 -3.246094 0.886719 -3.167969 0.699219 -3.0625 L 0.699219 -3.640625 C 0.929688 -3.734375 1.152344 -3.796875 1.367188 -3.835938 C 1.585938 -3.886719 1.792969 -3.90625 1.996094 -3.90625 C 2.546875 -3.90625 2.957031 -3.769531 3.230469 -3.480469 C 3.503906 -3.195312 3.640625 -2.757812 3.640625 -2.175781 Z M 3.640625 -2.175781 "/>
</g>
<g id="glyph-2-2">
<path d="M 0.65625 -3.816406 L 1.285156 -3.816406 L 1.285156 0 L 0.65625 0 Z M 0.65625 -5.304688 L 1.285156 -5.304688 L 1.285156 -4.507812 L 0.65625 -4.507812 Z M 0.65625 -5.304688 "/>
</g>
<g id="glyph-2-3">
<path d="M 0.65625 -5.304688 L 1.285156 -5.304688 L 1.285156 0 L 0.65625 0 Z M 0.65625 -5.304688 "/>
</g>
<g id="glyph-2-4">
<path d="M 3.398438 -1.90625 C 3.398438 -2.367188 3.300781 -2.726562 3.113281 -2.988281 C 2.921875 -3.25 2.660156 -3.382812 2.332031 -3.382812 C 2.003906 -3.382812 1.738281 -3.25 1.550781 -2.988281 C 1.359375 -2.726562 1.261719 -2.367188 1.261719 -1.90625 C 1.261719 -1.445312 1.359375 -1.082031 1.550781 -0.816406 C 1.738281 -0.558594 2.003906 -0.425781 2.332031 -0.425781 C 2.660156 -0.425781 2.921875 -0.558594 3.113281 -0.816406 C 3.300781 -1.082031 3.398438 -1.445312 3.398438 -1.90625 Z M 1.261719 -3.238281 C 1.394531 -3.46875 1.554688 -3.636719 1.757812 -3.738281 C 1.960938 -3.851562 2.203125 -3.90625 2.484375 -3.90625 C 2.953125 -3.90625 3.328125 -3.726562 3.613281 -3.355469 C 3.902344 -2.988281 4.046875 -2.503906 4.046875 -1.90625 C 4.046875 -1.304688 3.902344 -0.824219 3.613281 -0.453125 C 3.328125 -0.0820312 2.953125 0.0976562 2.484375 0.0976562 C 2.203125 0.0976562 1.960938 0.0429688 1.757812 -0.0625 C 1.554688 -0.175781 1.394531 -0.34375 1.261719 -0.570312 L 1.261719 0 L 0.636719 0 L 0.636719 -5.304688 L 1.261719 -5.304688 Z M 1.261719 -3.238281 "/>
</g>
<g id="glyph-2-5">
<path d="M 2.867188 -3.230469 C 2.796875 -3.273438 2.722656 -3.300781 2.636719 -3.320312 C 2.554688 -3.34375 2.464844 -3.347656 2.367188 -3.347656 C 2.007812 -3.347656 1.738281 -3.230469 1.550781 -3 C 1.359375 -2.769531 1.261719 -2.441406 1.261719 -2.007812 L 1.261719 0 L 0.636719 0 L 0.636719 -3.816406 L 1.261719 -3.816406 L 1.261719 -3.222656 C 1.394531 -3.453125 1.5625 -3.628906 1.78125 -3.738281 C 1.988281 -3.851562 2.246094 -3.90625 2.546875 -3.90625 C 2.597656 -3.90625 2.644531 -3.90625 2.695312 -3.902344 C 2.742188 -3.894531 2.804688 -3.886719 2.867188 -3.871094 Z M 2.867188 -3.230469 "/>
</g>
<g id="glyph-2-6">
<path d="M 3.921875 -2.066406 L 3.921875 -1.757812 L 1.039062 -1.757812 C 1.066406 -1.324219 1.199219 -0.996094 1.429688 -0.765625 C 1.660156 -0.542969 1.988281 -0.433594 2.402344 -0.433594 C 2.644531 -0.433594 2.875 -0.460938 3.097656 -0.523438 C 3.328125 -0.578125 3.550781 -0.667969 3.773438 -0.789062 L 3.773438 -0.195312 C 3.550781 -0.0976562 3.320312 -0.0273438 3.085938 0.0195312 C 2.847656 0.0703125 2.609375 0.0976562 2.367188 0.0976562 C 1.757812 0.0976562 1.269531 -0.078125 0.914062 -0.433594 C 0.558594 -0.789062 0.382812 -1.261719 0.382812 -1.871094 C 0.382812 -2.492188 0.550781 -2.988281 0.886719 -3.355469 C 1.226562 -3.726562 1.683594 -3.90625 2.253906 -3.90625 C 2.769531 -3.90625 3.175781 -3.738281 3.476562 -3.414062 C 3.773438 -3.085938 3.921875 -2.628906 3.921875 -2.066406 Z M 3.292969 -2.246094 C 3.285156 -2.589844 3.195312 -2.867188 3.007812 -3.070312 C 2.820312 -3.273438 2.574219 -3.378906 2.261719 -3.378906 C 1.910156 -3.378906 1.632812 -3.28125 1.421875 -3.078125 C 1.214844 -2.882812 1.09375 -2.601562 1.0625 -2.246094 Z M 3.292969 -2.246094 "/>
</g>
<g id="glyph-2-7">
<path d="M 0.636719 -5.304688 L 1.261719 -5.304688 L 1.261719 -2.171875 L 3.132812 -3.816406 L 3.933594 -3.816406 L 1.910156 -2.03125 L 4.019531 0 L 3.203125 0 L 1.261719 -1.863281 L 1.261719 0 L 0.636719 0 Z M 0.636719 -5.304688 "/>
</g>
<g id="glyph-2-8">
<path d="M 3.558594 1.160156 L 3.558594 1.648438 L -0.0703125 1.648438 L -0.0703125 1.160156 Z M 3.558594 1.160156 "/>
</g>
<g id="glyph-2-9">
<path d="M 3.40625 -3.671875 L 3.40625 -3.085938 C 3.230469 -3.183594 3.050781 -3.25 2.867188 -3.300781 C 2.695312 -3.347656 2.511719 -3.378906 2.332031 -3.378906 C 1.925781 -3.378906 1.613281 -3.246094 1.382812 -2.988281 C 1.160156 -2.726562 1.046875 -2.371094 1.046875 -1.90625 C 1.046875 -1.4375 1.160156 -1.074219 1.382812 -0.816406 C 1.613281 -0.558594 1.925781 -0.433594 2.332031 -0.433594 C 2.511719 -0.433594 2.695312 -0.453125 2.867188 -0.503906 C 3.050781 -0.550781 3.230469 -0.628906 3.40625 -0.726562 L 3.40625 -0.148438 C 3.230469 -0.0625 3.050781 0 2.859375 0.0351562 C 2.671875 0.078125 2.476562 0.0976562 2.261719 0.0976562 C 1.6875 0.0976562 1.234375 -0.0820312 0.894531 -0.441406 C 0.550781 -0.800781 0.382812 -1.289062 0.382812 -1.90625 C 0.382812 -2.527344 0.550781 -3.015625 0.894531 -3.371094 C 1.234375 -3.726562 1.710938 -3.90625 2.300781 -3.90625 C 2.5 -3.90625 2.6875 -3.886719 2.867188 -3.84375 C 3.054688 -3.808594 3.230469 -3.746094 3.40625 -3.671875 Z M 3.40625 -3.671875 "/>
</g>
<g id="glyph-2-10">
<path d="M 3.089844 -3.707031 L 3.089844 -3.113281 C 2.917969 -3.203125 2.726562 -3.265625 2.539062 -3.316406 C 2.351562 -3.363281 2.148438 -3.382812 1.945312 -3.382812 C 1.632812 -3.382812 1.402344 -3.335938 1.242188 -3.238281 C 1.089844 -3.148438 1.011719 -3 1.011719 -2.8125 C 1.011719 -2.664062 1.066406 -2.554688 1.179688 -2.46875 C 1.289062 -2.386719 1.515625 -2.308594 1.847656 -2.234375 L 2.066406 -2.183594 C 2.511719 -2.085938 2.824219 -1.953125 3.015625 -1.78125 C 3.203125 -1.605469 3.292969 -1.367188 3.292969 -1.054688 C 3.292969 -0.699219 3.152344 -0.417969 2.875 -0.210938 C 2.597656 -0.0078125 2.210938 0.0976562 1.714844 0.0976562 C 1.515625 0.0976562 1.296875 0.078125 1.074219 0.0351562 C 0.859375 0 0.621094 -0.0625 0.375 -0.140625 L 0.375 -0.789062 C 0.605469 -0.667969 0.835938 -0.578125 1.0625 -0.515625 C 1.289062 -0.453125 1.515625 -0.425781 1.730469 -0.425781 C 2.03125 -0.425781 2.253906 -0.472656 2.414062 -0.578125 C 2.574219 -0.675781 2.652344 -0.816406 2.652344 -1.003906 C 2.652344 -1.179688 2.597656 -1.304688 2.476562 -1.394531 C 2.367188 -1.484375 2.113281 -1.578125 1.722656 -1.660156 L 1.507812 -1.710938 C 1.117188 -1.792969 0.835938 -1.917969 0.664062 -2.085938 C 0.488281 -2.253906 0.40625 -2.484375 0.40625 -2.785156 C 0.40625 -3.140625 0.53125 -3.417969 0.789062 -3.613281 C 1.039062 -3.808594 1.402344 -3.90625 1.871094 -3.90625 C 2.101562 -3.90625 2.324219 -3.894531 2.527344 -3.859375 C 2.726562 -3.824219 2.917969 -3.769531 3.089844 -3.707031 Z M 3.089844 -3.707031 "/>
</g>
<g id="glyph-2-11">
<path d="M 1.277344 -4.898438 L 1.277344 -3.816406 L 2.566406 -3.816406 L 2.566406 -3.328125 L 1.277344 -3.328125 L 1.277344 -1.257812 C 1.277344 -0.941406 1.320312 -0.746094 1.402344 -0.65625 C 1.492188 -0.566406 1.667969 -0.523438 1.925781 -0.523438 L 2.566406 -0.523438 L 2.566406 0 L 1.925781 0 C 1.445312 0 1.109375 -0.0898438 0.921875 -0.273438 C 0.738281 -0.453125 0.648438 -0.78125 0.648438 -1.257812 L 0.648438 -3.328125 L 0.1875 -3.328125 L 0.1875 -3.816406 L 0.648438 -3.816406 L 0.648438 -4.898438 Z M 1.277344 -4.898438 "/>
</g>
<g id="glyph-2-12">
<path d="M 2.136719 -3.378906 C 1.800781 -3.378906 1.535156 -3.246094 1.339844 -2.980469 C 1.144531 -2.722656 1.046875 -2.359375 1.046875 -1.90625 C 1.046875 -1.453125 1.144531 -1.089844 1.332031 -0.824219 C 1.527344 -0.566406 1.792969 -0.433594 2.136719 -0.433594 C 2.46875 -0.433594 2.734375 -0.566406 2.929688 -0.832031 C 3.125 -1.089844 3.222656 -1.453125 3.222656 -1.90625 C 3.222656 -2.359375 3.125 -2.714844 2.929688 -2.980469 C 2.734375 -3.246094 2.46875 -3.378906 2.136719 -3.378906 Z M 2.136719 -3.90625 C 2.679688 -3.90625 3.105469 -3.734375 3.417969 -3.378906 C 3.734375 -3.019531 3.886719 -2.53125 3.886719 -1.90625 C 3.886719 -1.285156 3.734375 -0.789062 3.417969 -0.433594 C 3.105469 -0.078125 2.679688 0.0976562 2.136719 0.0976562 C 1.585938 0.0976562 1.160156 -0.078125 0.851562 -0.433594 C 0.539062 -0.789062 0.382812 -1.285156 0.382812 -1.90625 C 0.382812 -2.53125 0.539062 -3.019531 0.851562 -3.378906 C 1.160156 -3.734375 1.585938 -3.90625 2.136719 -3.90625 Z M 2.136719 -3.90625 "/>
</g>
<g id="glyph-2-13">
<path d="M 3.832031 -3.816406 L 2.449219 -1.960938 L 3.902344 0 L 3.160156 0 L 2.050781 -1.5 L 0.941406 0 L 0.203125 0 L 1.683594 -1.996094 L 0.328125 -3.816406 L 1.066406 -3.816406 L 2.078125 -2.457031 L 3.089844 -3.816406 Z M 3.832031 -3.816406 "/>
</g>
<g id="glyph-2-14">
<path d="M 3.832031 -2.300781 L 3.832031 0 L 3.203125 0 L 3.203125 -2.28125 C 3.203125 -2.644531 3.132812 -2.917969 2.992188 -3.089844 C 2.847656 -3.273438 2.636719 -3.363281 2.359375 -3.363281 C 2.015625 -3.363281 1.75 -3.257812 1.554688 -3.042969 C 1.359375 -2.824219 1.261719 -2.527344 1.261719 -2.15625 L 1.261719 0 L 0.636719 0 L 0.636719 -5.304688 L 1.261719 -5.304688 L 1.261719 -3.222656 C 1.410156 -3.453125 1.589844 -3.621094 1.792969 -3.738281 C 1.996094 -3.851562 2.234375 -3.90625 2.5 -3.90625 C 2.9375 -3.90625 3.265625 -3.769531 3.488281 -3.496094 C 3.71875 -3.222656 3.832031 -2.824219 3.832031 -2.300781 Z M 3.832031 -2.300781 "/>
</g>
<g id="glyph-2-15">
<path d="M 1.261719 -0.570312 L 1.261719 1.453125 L 0.636719 1.453125 L 0.636719 -3.816406 L 1.261719 -3.816406 L 1.261719 -3.238281 C 1.394531 -3.46875 1.554688 -3.636719 1.757812 -3.738281 C 1.960938 -3.851562 2.203125 -3.90625 2.484375 -3.90625 C 2.953125 -3.90625 3.328125 -3.726562 3.613281 -3.355469 C 3.902344 -2.988281 4.046875 -2.503906 4.046875 -1.90625 C 4.046875 -1.304688 3.902344 -0.824219 3.613281 -0.453125 C 3.328125 -0.0820312 2.953125 0.0976562 2.484375 0.0976562 C 2.203125 0.0976562 1.960938 0.0429688 1.757812 -0.0625 C 1.554688 -0.175781 1.394531 -0.34375 1.261719 -0.570312 Z M 3.398438 -1.90625 C 3.398438 -2.367188 3.300781 -2.726562 3.113281 -2.988281 C 2.921875 -3.25 2.660156 -3.382812 2.332031 -3.382812 C 2.003906 -3.382812 1.738281 -3.25 1.550781 -2.988281 C 1.359375 -2.726562 1.261719 -2.367188 1.261719 -1.90625 C 1.261719 -1.445312 1.359375 -1.082031 1.550781 -0.816406 C 1.738281 -0.558594 2.003906 -0.425781 2.332031 -0.425781 C 2.660156 -0.425781 2.921875 -0.558594 3.113281 -0.816406 C 3.300781 -1.082031 3.398438 -1.445312 3.398438 -1.90625 Z M 3.398438 -1.90625 "/>
</g>
<g id="glyph-2-16">
<path d="M 3.628906 -3.085938 C 3.789062 -3.363281 3.976562 -3.574219 4.195312 -3.707031 C 4.410156 -3.835938 4.660156 -3.90625 4.960938 -3.90625 C 5.359375 -3.90625 5.667969 -3.769531 5.882812 -3.488281 C 6.097656 -3.210938 6.203125 -2.8125 6.203125 -2.300781 L 6.203125 0 L 5.574219 0 L 5.574219 -2.28125 C 5.574219 -2.652344 5.511719 -2.921875 5.378906 -3.097656 C 5.246094 -3.273438 5.050781 -3.363281 4.785156 -3.363281 C 4.457031 -3.363281 4.207031 -3.257812 4.019531 -3.042969 C 3.832031 -2.824219 3.734375 -2.527344 3.734375 -2.15625 L 3.734375 0 L 3.105469 0 L 3.105469 -2.28125 C 3.105469 -2.652344 3.042969 -2.921875 2.910156 -3.097656 C 2.777344 -3.273438 2.582031 -3.363281 2.308594 -3.363281 C 1.988281 -3.363281 1.738281 -3.25 1.550781 -3.035156 C 1.359375 -2.820312 1.261719 -2.527344 1.261719 -2.15625 L 1.261719 0 L 0.636719 0 L 0.636719 -3.816406 L 1.261719 -3.816406 L 1.261719 -3.222656 C 1.410156 -3.453125 1.578125 -3.628906 1.78125 -3.738281 C 1.980469 -3.851562 2.21875 -3.90625 2.492188 -3.90625 C 2.769531 -3.90625 3.007812 -3.835938 3.195312 -3.699219 C 3.390625 -3.558594 3.539062 -3.355469 3.628906 -3.085938 Z M 3.628906 -3.085938 "/>
</g>
<g id="glyph-2-17">
<path d="M 3.832031 -2.300781 L 3.832031 0 L 3.203125 0 L 3.203125 -2.28125 C 3.203125 -2.644531 3.132812 -2.917969 2.992188 -3.089844 C 2.847656 -3.273438 2.636719 -3.363281 2.359375 -3.363281 C 2.015625 -3.363281 1.75 -3.257812 1.554688 -3.042969 C 1.359375 -2.824219 1.261719 -2.527344 1.261719 -2.15625 L 1.261719 0 L 0.636719 0 L 0.636719 -3.816406 L 1.261719 -3.816406 L 1.261719 -3.222656 C 1.410156 -3.453125 1.589844 -3.621094 1.792969 -3.738281 C 1.996094 -3.851562 2.234375 -3.90625 2.5 -3.90625 C 2.9375 -3.90625 3.265625 -3.769531 3.488281 -3.496094 C 3.71875 -3.222656 3.832031 -2.824219 3.832031 -2.300781 Z M 3.832031 -2.300781 "/>
</g>
<g id="glyph-2-18">
<path d="M 0.210938 -3.816406 L 0.871094 -3.816406 L 2.066406 -0.613281 L 3.257812 -3.816406 L 3.921875 -3.816406 L 2.492188 0 L 1.640625 0 Z M 0.210938 -3.816406 "/>
</g>
<g id="glyph-2-19">
<path d="M 3.28125 -4.25 L 2.058594 -3.585938 L 3.28125 -2.921875 L 3.085938 -2.589844 L 1.941406 -3.28125 L 1.941406 -1.996094 L 1.550781 -1.996094 L 1.550781 -3.28125 L 0.40625 -2.589844 L 0.210938 -2.921875 L 1.429688 -3.585938 L 0.210938 -4.25 L 0.40625 -4.585938 L 1.550781 -3.894531 L 1.550781 -5.175781 L 1.941406 -5.175781 L 1.941406 -3.894531 L 3.085938 -4.585938 Z M 3.28125 -4.25 "/>
</g>
<g id="glyph-3-0">
<path d="M 2.980469 -4.0625 L 2.980469 -2.300781 L 4.742188 -2.300781 L 4.742188 -1.761719 L 2.980469 -1.761719 L 2.980469 0 L 2.449219 0 L 2.449219 -1.761719 L 0.6875 -1.761719 L 0.6875 -2.300781 L 2.449219 -2.300781 L 2.449219 -4.0625 Z M 2.980469 -4.0625 "/>
</g>
<g id="glyph-3-1">
<path d="M 2.058594 -4.300781 C 1.730469 -4.300781 1.484375 -4.140625 1.316406 -3.816406 C 1.152344 -3.492188 1.070312 -3.007812 1.070312 -2.359375 C 1.070312 -1.710938 1.152344 -1.226562 1.316406 -0.902344 C 1.484375 -0.578125 1.730469 -0.414062 2.058594 -0.414062 C 2.390625 -0.414062 2.644531 -0.578125 2.804688 -0.902344 C 2.96875 -1.226562 3.050781 -1.710938 3.050781 -2.359375 C 3.050781 -3.007812 2.96875 -3.492188 2.804688 -3.816406 C 2.644531 -4.140625 2.390625 -4.300781 2.058594 -4.300781 Z M 2.058594 -4.808594 C 2.585938 -4.808594 2.992188 -4.601562 3.273438 -4.179688 C 3.550781 -3.757812 3.691406 -3.15625 3.691406 -2.359375 C 3.691406 -1.5625 3.550781 -0.957031 3.273438 -0.539062 C 2.992188 -0.117188 2.585938 0.0898438 2.058594 0.0898438 C 1.527344 0.0898438 1.121094 -0.117188 0.84375 -0.539062 C 0.5625 -0.957031 0.425781 -1.5625 0.425781 -2.359375 C 0.425781 -3.15625 0.5625 -3.757812 0.84375 -4.179688 C 1.121094 -4.601562 1.527344 -4.808594 2.058594 -4.808594 Z M 2.058594 -4.808594 "/>
</g>
<g id="glyph-3-2">
<path d="M 0.691406 -0.804688 L 1.359375 -0.804688 L 1.359375 0 L 0.691406 0 Z M 0.691406 -0.804688 "/>
</g>
<g id="glyph-3-3">
<path d="M 2.136719 -2.617188 C 1.851562 -2.617188 1.625 -2.519531 1.457031 -2.320312 C 1.289062 -2.125 1.207031 -1.859375 1.207031 -1.515625 C 1.207031 -1.171875 1.289062 -0.90625 1.457031 -0.707031 C 1.625 -0.511719 1.851562 -0.414062 2.136719 -0.414062 C 2.421875 -0.414062 2.648438 -0.511719 2.820312 -0.707031 C 2.988281 -0.90625 3.070312 -1.171875 3.070312 -1.515625 C 3.070312 -1.859375 2.988281 -2.125 2.820312 -2.320312 C 2.648438 -2.519531 2.421875 -2.617188 2.136719 -2.617188 Z M 3.410156 -4.621094 L 3.410156 -4.035156 C 3.246094 -4.113281 3.085938 -4.171875 2.921875 -4.210938 C 2.761719 -4.25 2.597656 -4.269531 2.4375 -4.269531 C 2.015625 -4.269531 1.691406 -4.128906 1.472656 -3.84375 C 1.242188 -3.558594 1.121094 -3.128906 1.089844 -2.554688 C 1.210938 -2.742188 1.367188 -2.875 1.554688 -2.972656 C 1.742188 -3.070312 1.949219 -3.125 2.175781 -3.125 C 2.648438 -3.125 3.027344 -2.980469 3.296875 -2.6875 C 3.578125 -2.402344 3.710938 -2.015625 3.710938 -1.515625 C 3.710938 -1.03125 3.570312 -0.640625 3.285156 -0.351562 C 2.992188 -0.0585938 2.609375 0.0898438 2.136719 0.0898438 C 1.59375 0.0898438 1.179688 -0.117188 0.886719 -0.539062 C 0.597656 -0.957031 0.453125 -1.5625 0.453125 -2.359375 C 0.453125 -3.105469 0.628906 -3.699219 0.984375 -4.140625 C 1.339844 -4.585938 1.8125 -4.808594 2.410156 -4.808594 C 2.574219 -4.808594 2.734375 -4.792969 2.894531 -4.761719 C 3.058594 -4.730469 3.234375 -4.683594 3.410156 -4.621094 Z M 3.410156 -4.621094 "/>
</g>
<g id="glyph-3-4">
<path d="M 2.449219 -4.167969 L 0.835938 -1.644531 L 2.449219 -1.644531 Z M 2.28125 -4.722656 L 3.085938 -4.722656 L 3.085938 -1.644531 L 3.757812 -1.644531 L 3.757812 -1.113281 L 3.085938 -1.113281 L 3.085938 0 L 2.449219 0 L 2.449219 -1.113281 L 0.316406 -1.113281 L 0.316406 -1.730469 Z M 2.28125 -4.722656 "/>
</g>
<g id="glyph-3-5">
<path d="M 0.804688 -0.539062 L 1.847656 -0.539062 L 1.847656 -4.140625 L 0.710938 -3.914062 L 0.710938 -4.496094 L 1.839844 -4.722656 L 2.480469 -4.722656 L 2.480469 -0.539062 L 3.523438 -0.539062 L 3.523438 0 L 0.804688 0 Z M 0.804688 -0.539062 "/>
</g>
<g id="glyph-3-6">
<path d="M 0.699219 -4.722656 L 3.207031 -4.722656 L 3.207031 -4.1875 L 1.28125 -4.1875 L 1.28125 -3.027344 C 1.378906 -3.058594 1.472656 -3.085938 1.5625 -3.097656 C 1.660156 -3.117188 1.75 -3.125 1.839844 -3.125 C 2.363281 -3.125 2.785156 -2.980469 3.097656 -2.6875 C 3.402344 -2.398438 3.558594 -2.007812 3.558594 -1.515625 C 3.558594 -1.003906 3.402344 -0.609375 3.085938 -0.332031 C 2.765625 -0.0507812 2.320312 0.0898438 1.742188 0.0898438 C 1.542969 0.0898438 1.339844 0.0703125 1.132812 0.0390625 C 0.933594 0.0078125 0.71875 -0.0390625 0.5 -0.109375 L 0.5 -0.75 C 0.6875 -0.648438 0.886719 -0.570312 1.089844 -0.523438 C 1.289062 -0.472656 1.503906 -0.445312 1.730469 -0.445312 C 2.097656 -0.445312 2.382812 -0.542969 2.597656 -0.730469 C 2.8125 -0.925781 2.914062 -1.1875 2.914062 -1.515625 C 2.914062 -1.847656 2.8125 -2.105469 2.597656 -2.292969 C 2.382812 -2.488281 2.097656 -2.585938 1.730469 -2.585938 C 1.5625 -2.585938 1.394531 -2.566406 1.21875 -2.527344 C 1.050781 -2.488281 0.875 -2.429688 0.699219 -2.351562 Z M 0.699219 -4.722656 "/>
</g>
<g id="glyph-3-7">
<path d="M 2.628906 -2.546875 C 2.933594 -2.480469 3.175781 -2.34375 3.34375 -2.136719 C 3.519531 -1.929688 3.601562 -1.679688 3.601562 -1.375 C 3.601562 -0.90625 3.441406 -0.542969 3.125 -0.292969 C 2.804688 -0.0390625 2.34375 0.0898438 1.757812 0.0898438 C 1.554688 0.0898438 1.355469 0.0703125 1.140625 0.03125 C 0.933594 -0.0078125 0.71875 -0.0664062 0.492188 -0.140625 L 0.492188 -0.757812 C 0.667969 -0.65625 0.863281 -0.578125 1.074219 -0.523438 C 1.289062 -0.472656 1.507812 -0.445312 1.738281 -0.445312 C 2.136719 -0.445312 2.441406 -0.523438 2.648438 -0.679688 C 2.863281 -0.84375 2.96875 -1.070312 2.96875 -1.375 C 2.96875 -1.652344 2.871094 -1.867188 2.675781 -2.023438 C 2.480469 -2.183594 2.210938 -2.261719 1.859375 -2.261719 L 1.308594 -2.261719 L 1.308594 -2.785156 L 1.886719 -2.785156 C 2.203125 -2.785156 2.441406 -2.851562 2.605469 -2.972656 C 2.773438 -3.097656 2.859375 -3.277344 2.859375 -3.519531 C 2.859375 -3.757812 2.773438 -3.945312 2.597656 -4.074219 C 2.421875 -4.207031 2.175781 -4.269531 1.859375 -4.269531 C 1.683594 -4.269531 1.496094 -4.25 1.296875 -4.210938 C 1.09375 -4.179688 0.875 -4.121094 0.636719 -4.035156 L 0.636719 -4.605469 C 0.875 -4.679688 1.101562 -4.722656 1.316406 -4.757812 C 1.527344 -4.789062 1.730469 -4.808594 1.917969 -4.808594 C 2.402344 -4.808594 2.785156 -4.699219 3.070312 -4.476562 C 3.351562 -4.257812 3.492188 -3.957031 3.492188 -3.582031 C 3.492188 -3.324219 3.414062 -3.105469 3.265625 -2.921875 C 3.117188 -2.742188 2.910156 -2.617188 2.628906 -2.546875 Z M 2.628906 -2.546875 "/>
</g>
<g id="glyph-3-8">
<path d="M 2.058594 -2.242188 C 1.757812 -2.242188 1.515625 -2.164062 1.339844 -2.003906 C 1.167969 -1.839844 1.082031 -1.613281 1.082031 -1.328125 C 1.082031 -1.042969 1.167969 -0.824219 1.339844 -0.660156 C 1.515625 -0.5 1.757812 -0.414062 2.058594 -0.414062 C 2.363281 -0.414062 2.605469 -0.5 2.78125 -0.660156 C 2.953125 -0.824219 3.039062 -1.050781 3.039062 -1.328125 C 3.039062 -1.613281 2.953125 -1.839844 2.78125 -2.003906 C 2.605469 -2.164062 2.363281 -2.242188 2.058594 -2.242188 Z M 1.417969 -2.515625 C 1.148438 -2.585938 0.933594 -2.707031 0.777344 -2.894531 C 0.628906 -3.085938 0.550781 -3.316406 0.550781 -3.582031 C 0.550781 -3.964844 0.6875 -4.261719 0.953125 -4.476562 C 1.21875 -4.699219 1.585938 -4.808594 2.058594 -4.808594 C 2.535156 -4.808594 2.902344 -4.699219 3.167969 -4.476562 C 3.433594 -4.261719 3.570312 -3.964844 3.570312 -3.582031 C 3.570312 -3.316406 3.492188 -3.085938 3.335938 -2.894531 C 3.1875 -2.707031 2.972656 -2.585938 2.703125 -2.515625 C 3.007812 -2.441406 3.246094 -2.308594 3.421875 -2.09375 C 3.597656 -1.886719 3.679688 -1.632812 3.679688 -1.328125 C 3.679688 -0.867188 3.539062 -0.519531 3.257812 -0.273438 C 2.980469 -0.03125 2.578125 0.0898438 2.058594 0.0898438 C 1.535156 0.0898438 1.132812 -0.03125 0.855469 -0.273438 C 0.578125 -0.519531 0.441406 -0.867188 0.441406 -1.328125 C 0.441406 -1.632812 0.523438 -1.886719 0.699219 -2.09375 C 0.875 -2.308594 1.113281 -2.441406 1.417969 -2.515625 Z M 1.1875 -3.523438 C 1.1875 -3.277344 1.261719 -3.089844 1.414062 -2.953125 C 1.566406 -2.820312 1.78125 -2.746094 2.058594 -2.746094 C 2.332031 -2.746094 2.546875 -2.820312 2.703125 -2.953125 C 2.859375 -3.089844 2.933594 -3.277344 2.933594 -3.523438 C 2.933594 -3.769531 2.859375 -3.957031 2.703125 -4.09375 C 2.546875 -4.230469 2.332031 -4.300781 2.058594 -4.300781 C 1.78125 -4.300781 1.566406 -4.230469 1.414062 -4.09375 C 1.261719 -3.957031 1.1875 -3.769531 1.1875 -3.523438 Z M 1.1875 -3.523438 "/>
</g>
<g id="glyph-3-9">
<path d="M 1.242188 -0.539062 L 3.472656 -0.539062 L 3.472656 0 L 0.472656 0 L 0.472656 -0.539062 C 0.710938 -0.789062 1.042969 -1.128906 1.464844 -1.546875 C 1.886719 -1.96875 2.144531 -2.242188 2.253906 -2.363281 C 2.460938 -2.59375 2.605469 -2.785156 2.683594 -2.949219 C 2.765625 -3.109375 2.804688 -3.265625 2.804688 -3.421875 C 2.804688 -3.675781 2.714844 -3.875 2.539062 -4.035156 C 2.363281 -4.191406 2.136719 -4.269531 1.851562 -4.269531 C 1.652344 -4.269531 1.445312 -4.238281 1.21875 -4.167969 C 0.996094 -4.09375 0.757812 -3.992188 0.503906 -3.847656 L 0.503906 -4.496094 C 0.765625 -4.601562 1.003906 -4.679688 1.226562 -4.730469 C 1.453125 -4.78125 1.652344 -4.808594 1.839844 -4.808594 C 2.324219 -4.808594 2.722656 -4.683594 3.011719 -4.445312 C 3.304688 -4.199219 3.445312 -3.867188 3.445312 -3.460938 C 3.445312 -3.265625 3.410156 -3.085938 3.335938 -2.910156 C 3.265625 -2.734375 3.136719 -2.535156 2.941406 -2.292969 C 2.890625 -2.234375 2.722656 -2.054688 2.4375 -1.761719 C 2.15625 -1.472656 1.757812 -1.0625 1.242188 -0.539062 Z M 1.242188 -0.539062 "/>
</g>
<g id="glyph-3-10">
<path d="M 0.316406 -2.035156 L 2.023438 -2.035156 L 2.023438 -1.515625 L 0.316406 -1.515625 Z M 0.316406 -2.035156 "/>
</g>
</g>
<clipPath id="clip-0">
<path clip-rule="nonzero" d="M 0.117188 0 L 245.792969 0 L 245.792969 190.789062 L 0.117188 190.789062 Z M 0.117188 0 "/>
</clipPath>
<clipPath id="clip-1">
<path clip-rule="nonzero" d="M 95 29.585938 L 97 29.585938 L 97 156.699219 L 95 156.699219 Z M 95 29.585938 "/>
</clipPath>
<clipPath id="clip-2">
<path clip-rule="nonzero" d="M 132 29.585938 L 134 29.585938 L 134 156.699219 L 132 156.699219 Z M 132 29.585938 "/>
</clipPath>
<clipPath id="clip-3">
<path clip-rule="nonzero" d="M 168 29.585938 L 170 29.585938 L 170 156.699219 L 168 156.699219 Z M 168 29.585938 "/>
</clipPath>
<clipPath id="clip-4">
<path clip-rule="nonzero" d="M 204 29.585938 L 206 29.585938 L 206 156.699219 L 204 156.699219 Z M 204 29.585938 "/>
</clipPath>
<clipPath id="clip-5">
<path clip-rule="nonzero" d="M 68.988281 41 L 232.613281 41 L 232.613281 42 L 68.988281 42 Z M 68.988281 41 "/>
</clipPath>
<clipPath id="clip-6">
<path clip-rule="nonzero" d="M 68.988281 61 L 232.613281 61 L 232.613281 63 L 68.988281 63 Z M 68.988281 61 "/>
</clipPath>
<clipPath id="clip-7">
<path clip-rule="nonzero" d="M 68.988281 82 L 232.613281 82 L 232.613281 84 L 68.988281 84 Z M 68.988281 82 "/>
</clipPath>
<clipPath id="clip-8">
<path clip-rule="nonzero" d="M 68.988281 103 L 232.613281 103 L 232.613281 104 L 68.988281 104 Z M 68.988281 103 "/>
</clipPath>
<clipPath id="clip-9">
<path clip-rule="nonzero" d="M 68.988281 123 L 232.613281 123 L 232.613281 125 L 68.988281 125 Z M 68.988281 123 "/>
</clipPath>
<clipPath id="clip-10">
<path clip-rule="nonzero" d="M 68.988281 144 L 232.613281 144 L 232.613281 146 L 68.988281 146 Z M 68.988281 144 "/>
</clipPath>
<clipPath id="clip-11">
<path clip-rule="nonzero" d="M 95 29.585938 L 97 29.585938 L 97 156.699219 L 95 156.699219 Z M 95 29.585938 "/>
</clipPath>
</defs>
<g clip-path="url(#clip-0)">
<path fill-rule="nonzero" fill="rgb(100%, 100%, 100%)" fill-opacity="1" d="M 0.117188 190.789062 L 245.792969 190.789062 L 245.792969 0 L 0.117188 0 Z M 0.117188 190.789062 "/>
</g>
<path fill-rule="nonzero" fill="rgb(100%, 100%, 100%)" fill-opacity="1" d="M 68.988281 156.699219 L 232.613281 156.699219 L 232.613281 29.585938 L 68.988281 29.585938 Z M 68.988281 156.699219 "/>
<g clip-path="url(#clip-1)">
<path fill="none" stroke-width="0.6" stroke-linecap="square" stroke-linejoin="round" stroke="rgb(86.665344%, 86.665344%, 86.665344%)" stroke-opacity="1" stroke-miterlimit="10" d="M 96.449239 34.199316 L 96.449239 161.714819 " transform="matrix(0.996846, 0, 0, -0.996846, 0.116709, 190.79066)"/>
</g>
<path fill="none" stroke-width="0.8" stroke-linecap="butt" stroke-linejoin="round" stroke="rgb(39.99939%, 39.99939%, 39.99939%)" stroke-opacity="1" stroke-miterlimit="10" d="M 96.449239 34.199316 L 96.449239 30.699997 " transform="matrix(0.996846, 0, 0, -0.996846, 0.116709, 190.79066)"/>
<g fill="rgb(39.99939%, 39.99939%, 39.99939%)" fill-opacity="1">
<use xlink:href="#glyph-0-0" x="89.912852" y="169.73541"/>
</g>
<g fill="rgb(39.99939%, 39.99939%, 39.99939%)" fill-opacity="1">
<use xlink:href="#glyph-0-1" x="94.988697" y="169.73541"/>
</g>
<g fill="rgb(39.99939%, 39.99939%, 39.99939%)" fill-opacity="1">
<use xlink:href="#glyph-0-0" x="97.528567" y="169.73541"/>
</g>
<g clip-path="url(#clip-2)">
<path fill="none" stroke-width="0.6" stroke-linecap="square" stroke-linejoin="round" stroke="rgb(86.665344%, 86.665344%, 86.665344%)" stroke-opacity="1" stroke-miterlimit="10" d="M 132.923665 34.199316 L 132.923665 161.714819 " transform="matrix(0.996846, 0, 0, -0.996846, 0.116709, 190.79066)"/>
</g>
<path fill="none" stroke-width="0.8" stroke-linecap="butt" stroke-linejoin="round" stroke="rgb(39.99939%, 39.99939%, 39.99939%)" stroke-opacity="1" stroke-miterlimit="10" d="M 132.923665 34.199316 L 132.923665 30.699997 " transform="matrix(0.996846, 0, 0, -0.996846, 0.116709, 190.79066)"/>
<g fill="rgb(39.99939%, 39.99939%, 39.99939%)" fill-opacity="1">
<use xlink:href="#glyph-0-0" x="126.273591" y="169.73541"/>
</g>
<g fill="rgb(39.99939%, 39.99939%, 39.99939%)" fill-opacity="1">
<use xlink:href="#glyph-0-1" x="131.349436" y="169.73541"/>
</g>
<g fill="rgb(39.99939%, 39.99939%, 39.99939%)" fill-opacity="1">
<use xlink:href="#glyph-0-2" x="133.889306" y="169.73541"/>
</g>
<g clip-path="url(#clip-3)">
<path fill="none" stroke-width="0.6" stroke-linecap="square" stroke-linejoin="round" stroke="rgb(86.665344%, 86.665344%, 86.665344%)" stroke-opacity="1" stroke-miterlimit="10" d="M 169.398092 34.199316 L 169.398092 161.714819 " transform="matrix(0.996846, 0, 0, -0.996846, 0.116709, 190.79066)"/>
</g>
<path fill="none" stroke-width="0.8" stroke-linecap="butt" stroke-linejoin="round" stroke="rgb(39.99939%, 39.99939%, 39.99939%)" stroke-opacity="1" stroke-miterlimit="10" d="M 169.398092 34.199316 L 169.398092 30.699997 " transform="matrix(0.996846, 0, 0, -0.996846, 0.116709, 190.79066)"/>
<g fill="rgb(39.99939%, 39.99939%, 39.99939%)" fill-opacity="1">
<use xlink:href="#glyph-0-0" x="162.63433" y="169.73541"/>
</g>
<g fill="rgb(39.99939%, 39.99939%, 39.99939%)" fill-opacity="1">
<use xlink:href="#glyph-0-1" x="167.710175" y="169.73541"/>
</g>
<g fill="rgb(39.99939%, 39.99939%, 39.99939%)" fill-opacity="1">
<use xlink:href="#glyph-0-3" x="170.250045" y="169.73541"/>
</g>
<g clip-path="url(#clip-4)">
<path fill="none" stroke-width="0.6" stroke-linecap="square" stroke-linejoin="round" stroke="rgb(86.665344%, 86.665344%, 86.665344%)" stroke-opacity="1" stroke-miterlimit="10" d="M 205.876436 34.199316 L 205.876436 161.714819 " transform="matrix(0.996846, 0, 0, -0.996846, 0.116709, 190.79066)"/>
</g>
<path fill="none" stroke-width="0.8" stroke-linecap="butt" stroke-linejoin="round" stroke="rgb(39.99939%, 39.99939%, 39.99939%)" stroke-opacity="1" stroke-miterlimit="10" d="M 205.876436 34.199316 L 205.876436 30.699997 " transform="matrix(0.996846, 0, 0, -0.996846, 0.116709, 190.79066)"/>
<g fill="rgb(39.99939%, 39.99939%, 39.99939%)" fill-opacity="1">
<use xlink:href="#glyph-0-0" x="198.995069" y="169.73541"/>
</g>
<g fill="rgb(39.99939%, 39.99939%, 39.99939%)" fill-opacity="1">
<use xlink:href="#glyph-0-1" x="204.070914" y="169.73541"/>
</g>
<g fill="rgb(39.99939%, 39.99939%, 39.99939%)" fill-opacity="1">
<use xlink:href="#glyph-0-4" x="206.610784" y="169.73541"/>
</g>
<g fill="rgb(13.33313%, 13.33313%, 13.33313%)" fill-opacity="1">
<use xlink:href="#glyph-0-5" x="76.878725" y="181.697558"/>
</g>
<g fill="rgb(13.33313%, 13.33313%, 13.33313%)" fill-opacity="1">
<use xlink:href="#glyph-0-6" x="81.472003" y="181.697558"/>
</g>
<g fill="rgb(13.33313%, 13.33313%, 13.33313%)" fill-opacity="1">
<use xlink:href="#glyph-0-7" x="86.547848" y="181.697558"/>
</g>
<g fill="rgb(13.33313%, 13.33313%, 13.33313%)" fill-opacity="1">
<use xlink:href="#glyph-0-8" x="89.087718" y="181.697558"/>
</g>
<g fill="rgb(13.33313%, 13.33313%, 13.33313%)" fill-opacity="1">
<use xlink:href="#glyph-0-9" x="93.481626" y="181.697558"/>
</g>
<g fill="rgb(13.33313%, 13.33313%, 13.33313%)" fill-opacity="1">
<use xlink:href="#glyph-0-10" x="98.545416" y="181.697558"/>
</g>
<g fill="rgb(13.33313%, 13.33313%, 13.33313%)" fill-opacity="1">
<use xlink:href="#glyph-0-11" x="103.437841" y="181.697558"/>
</g>
<g fill="rgb(13.33313%, 13.33313%, 13.33313%)" fill-opacity="1">
<use xlink:href="#glyph-0-12" x="108.50163" y="181.697558"/>
<use xlink:href="#glyph-0-13" x="113.565606" y="181.697558"/>
<use xlink:href="#glyph-0-7" x="118.470087" y="181.697558"/>
</g>
<g fill="rgb(13.33313%, 13.33313%, 13.33313%)" fill-opacity="1">
<use xlink:href="#glyph-0-14" x="121.009957" y="181.697558"/>
</g>
<g fill="rgb(13.33313%, 13.33313%, 13.33313%)" fill-opacity="1">
<use xlink:href="#glyph-0-15" x="123.81318" y="181.697558"/>
</g>
<g fill="rgb(13.33313%, 13.33313%, 13.33313%)" fill-opacity="1">
<use xlink:href="#glyph-0-16" x="126.927264" y="181.697558"/>
</g>
<g fill="rgb(13.33313%, 13.33313%, 13.33313%)" fill-opacity="1">
<use xlink:href="#glyph-0-17" x="131.803927" y="181.697558"/>
</g>
<g fill="rgb(13.33313%, 13.33313%, 13.33313%)" fill-opacity="1">
<use xlink:href="#glyph-0-7" x="139.575242" y="181.697558"/>
</g>
<g fill="rgb(13.33313%, 13.33313%, 13.33313%)" fill-opacity="1">
<use xlink:href="#glyph-0-18" x="142.115112" y="181.697558"/>
</g>
<g fill="rgb(13.33313%, 13.33313%, 13.33313%)" fill-opacity="1">
<use xlink:href="#glyph-0-16" x="146.412981" y="181.697558"/>
</g>
<g fill="rgb(13.33313%, 13.33313%, 13.33313%)" fill-opacity="1">
<use xlink:href="#glyph-0-19" x="151.289643" y="181.697558"/>
</g>
<g fill="rgb(13.33313%, 13.33313%, 13.33313%)" fill-opacity="1">
<use xlink:href="#glyph-0-20" x="156.508909" y="181.697558"/>
</g>
<g fill="rgb(13.33313%, 13.33313%, 13.33313%)" fill-opacity="1">
<use xlink:href="#glyph-0-7" x="161.959755" y="181.697558"/>
</g>
<g fill="rgb(13.33313%, 13.33313%, 13.33313%)" fill-opacity="1">
<use xlink:href="#glyph-0-21" x="164.499625" y="181.697558"/>
</g>
<g fill="rgb(13.33313%, 13.33313%, 13.33313%)" fill-opacity="1">
<use xlink:href="#glyph-0-22" x="167.613677" y="181.697558"/>
</g>
<g fill="rgb(13.33313%, 13.33313%, 13.33313%)" fill-opacity="1">
<use xlink:href="#glyph-0-23" x="170.743679" y="181.697558"/>
</g>
<g fill="rgb(13.33313%, 13.33313%, 13.33313%)" fill-opacity="1">
<use xlink:href="#glyph-0-11" x="175.807468" y="181.697558"/>
</g>
<g fill="rgb(13.33313%, 13.33313%, 13.33313%)" fill-opacity="1">
<use xlink:href="#glyph-0-13" x="180.871258" y="181.697558"/>
<use xlink:href="#glyph-0-24" x="185.775739" y="181.697558"/>
<use xlink:href="#glyph-0-7" x="190.839715" y="181.697558"/>
</g>
<g fill="rgb(13.33313%, 13.33313%, 13.33313%)" fill-opacity="1">
<use xlink:href="#glyph-1-0" x="193.373385" y="181.697558"/>
</g>
<g fill="rgb(13.33313%, 13.33313%, 13.33313%)" fill-opacity="1">
<use xlink:href="#glyph-0-7" x="200.051472" y="181.697558"/>
</g>
<g fill="rgb(13.33313%, 13.33313%, 13.33313%)" fill-opacity="1">
<use xlink:href="#glyph-0-25" x="202.591342" y="181.697558"/>
<use xlink:href="#glyph-0-10" x="207.655318" y="181.697558"/>
</g>
<g fill="rgb(13.33313%, 13.33313%, 13.33313%)" fill-opacity="1">
<use xlink:href="#glyph-0-26" x="212.547743" y="181.697558"/>
</g>
<g fill="rgb(13.33313%, 13.33313%, 13.33313%)" fill-opacity="1">
<use xlink:href="#glyph-0-13" x="216.70649" y="181.697558"/>
<use xlink:href="#glyph-0-27" x="221.610971" y="181.697558"/>
</g>
<g clip-path="url(#clip-5)">
<path fill="none" stroke-width="0.6" stroke-linecap="square" stroke-linejoin="round" stroke="rgb(86.665344%, 86.665344%, 86.665344%)" stroke-opacity="1" stroke-miterlimit="10" d="M 69.089501 149.708197 L 233.232256 149.708197 " transform="matrix(0.996846, 0, 0, -0.996846, 0.116709, 190.79066)"/>
</g>
<path fill="none" stroke-width="0.8" stroke-linecap="butt" stroke-linejoin="round" stroke="rgb(39.99939%, 39.99939%, 39.99939%)" stroke-opacity="1" stroke-miterlimit="10" d="M 69.089501 149.708197 L 65.590182 149.708197 " transform="matrix(0.996846, 0, 0, -0.996846, 0.116709, 190.79066)"/>
<g fill="rgb(39.99939%, 39.99939%, 39.99939%)" fill-opacity="1">
<use xlink:href="#glyph-2-0" x="19.302874" y="44.205948"/>
</g>
<g fill="rgb(39.99939%, 39.99939%, 39.99939%)" fill-opacity="1">
<use xlink:href="#glyph-2-1" x="21.235434" y="44.205948"/>
</g>
<g fill="rgb(39.99939%, 39.99939%, 39.99939%)" fill-opacity="1">
<use xlink:href="#glyph-2-2" x="25.5202" y="44.205948"/>
</g>
<g fill="rgb(39.99939%, 39.99939%, 39.99939%)" fill-opacity="1">
<use xlink:href="#glyph-2-3" x="27.452761" y="44.205948"/>
</g>
<g fill="rgb(39.99939%, 39.99939%, 39.99939%)" fill-opacity="1">
<use xlink:href="#glyph-2-4" x="29.385322" y="44.205948"/>
</g>
<g fill="rgb(39.99939%, 39.99939%, 39.99939%)" fill-opacity="1">
<use xlink:href="#glyph-2-5" x="33.81046" y="44.205948"/>
</g>
<g fill="rgb(39.99939%, 39.99939%, 39.99939%)" fill-opacity="1">
<use xlink:href="#glyph-2-6" x="36.519707" y="44.205948"/>
</g>
<g fill="rgb(39.99939%, 39.99939%, 39.99939%)" fill-opacity="1">
<use xlink:href="#glyph-2-1" x="40.816969" y="44.205948"/>
</g>
<g fill="rgb(39.99939%, 39.99939%, 39.99939%)" fill-opacity="1">
<use xlink:href="#glyph-2-7" x="45.101735" y="44.205948"/>
</g>
<g fill="rgb(39.99939%, 39.99939%, 39.99939%)" fill-opacity="1">
<use xlink:href="#glyph-2-8" x="49.135136" y="44.205948"/>
<use xlink:href="#glyph-2-9" x="52.624096" y="44.205948"/>
</g>
<g fill="rgb(39.99939%, 39.99939%, 39.99939%)" fill-opacity="1">
<use xlink:href="#glyph-2-3" x="56.457085" y="44.205948"/>
</g>
<g fill="rgb(39.99939%, 39.99939%, 39.99939%)" fill-opacity="1">
<use xlink:href="#glyph-2-10" x="58.389645" y="44.205948"/>
</g>
<g clip-path="url(#clip-6)">
<path fill="none" stroke-width="0.6" stroke-linecap="square" stroke-linejoin="round" stroke="rgb(86.665344%, 86.665344%, 86.665344%)" stroke-opacity="1" stroke-miterlimit="10" d="M 69.089501 129.006178 L 233.232256 129.006178 " transform="matrix(0.996846, 0, 0, -0.996846, 0.116709, 190.79066)"/>
</g>
<path fill="none" stroke-width="0.8" stroke-linecap="butt" stroke-linejoin="round" stroke="rgb(39.99939%, 39.99939%, 39.99939%)" stroke-opacity="1" stroke-miterlimit="10" d="M 69.089501 129.006178 L 65.590182 129.006178 " transform="matrix(0.996846, 0, 0, -0.996846, 0.116709, 190.79066)"/>
<g fill="rgb(39.99939%, 39.99939%, 39.99939%)" fill-opacity="1">
<use xlink:href="#glyph-2-11" x="30.050116" y="64.840963"/>
</g>
<g fill="rgb(39.99939%, 39.99939%, 39.99939%)" fill-opacity="1">
<use xlink:href="#glyph-2-12" x="32.790815" y="64.840963"/>
</g>
<g fill="rgb(39.99939%, 39.99939%, 39.99939%)" fill-opacity="1">
<use xlink:href="#glyph-2-13" x="36.841782" y="64.840963"/>
</g>
<g fill="rgb(39.99939%, 39.99939%, 39.99939%)" fill-opacity="1">
<use xlink:href="#glyph-2-2" x="40.970764" y="64.840963"/>
</g>
<g fill="rgb(39.99939%, 39.99939%, 39.99939%)" fill-opacity="1">
<use xlink:href="#glyph-2-9" x="42.903324" y="64.840963"/>
</g>
<g fill="rgb(39.99939%, 39.99939%, 39.99939%)" fill-opacity="1">
<use xlink:href="#glyph-2-9" x="46.736313" y="64.840963"/>
</g>
<g fill="rgb(39.99939%, 39.99939%, 39.99939%)" fill-opacity="1">
<use xlink:href="#glyph-2-14" x="50.569301" y="64.840963"/>
</g>
<g fill="rgb(39.99939%, 39.99939%, 39.99939%)" fill-opacity="1">
<use xlink:href="#glyph-2-1" x="54.994276" y="64.840963"/>
</g>
<g fill="rgb(39.99939%, 39.99939%, 39.99939%)" fill-opacity="1">
<use xlink:href="#glyph-2-11" x="59.279042" y="64.840963"/>
</g>
<g clip-path="url(#clip-7)">
<path fill="none" stroke-width="0.6" stroke-linecap="square" stroke-linejoin="round" stroke="rgb(86.665344%, 86.665344%, 86.665344%)" stroke-opacity="1" stroke-miterlimit="10" d="M 69.089501 108.308077 L 233.232256 108.308077 " transform="matrix(0.996846, 0, 0, -0.996846, 0.116709, 190.79066)"/>
</g>
<path fill="none" stroke-width="0.8" stroke-linecap="butt" stroke-linejoin="round" stroke="rgb(39.99939%, 39.99939%, 39.99939%)" stroke-opacity="1" stroke-miterlimit="10" d="M 69.089501 108.308077 L 65.590182 108.308077 " transform="matrix(0.996846, 0, 0, -0.996846, 0.116709, 190.79066)"/>
<g fill="rgb(39.99939%, 39.99939%, 39.99939%)" fill-opacity="1">
<use xlink:href="#glyph-2-15" x="24.878979" y="85.475977"/>
</g>
<g fill="rgb(39.99939%, 39.99939%, 39.99939%)" fill-opacity="1">
<use xlink:href="#glyph-2-5" x="29.304118" y="85.475977"/>
</g>
<g fill="rgb(39.99939%, 39.99939%, 39.99939%)" fill-opacity="1">
<use xlink:href="#glyph-2-12" x="32.013365" y="85.475977"/>
</g>
<g fill="rgb(39.99939%, 39.99939%, 39.99939%)" fill-opacity="1">
<use xlink:href="#glyph-2-16" x="36.282392" y="85.475977"/>
</g>
<g fill="rgb(39.99939%, 39.99939%, 39.99939%)" fill-opacity="1">
<use xlink:href="#glyph-2-15" x="43.072558" y="85.475977"/>
</g>
<g fill="rgb(39.99939%, 39.99939%, 39.99939%)" fill-opacity="1">
<use xlink:href="#glyph-2-11" x="47.497696" y="85.475977"/>
</g>
<g fill="rgb(39.99939%, 39.99939%, 39.99939%)" fill-opacity="1">
<use xlink:href="#glyph-2-8" x="50.238395" y="85.475977"/>
<use xlink:href="#glyph-2-2" x="53.727355" y="85.475977"/>
</g>
<g fill="rgb(39.99939%, 39.99939%, 39.99939%)" fill-opacity="1">
<use xlink:href="#glyph-2-17" x="55.659916" y="85.475977"/>
</g>
<g fill="rgb(39.99939%, 39.99939%, 39.99939%)" fill-opacity="1">
<use xlink:href="#glyph-2-0" x="60.084891" y="85.475977"/>
</g>
<g clip-path="url(#clip-8)">
<path fill="none" stroke-width="0.6" stroke-linecap="square" stroke-linejoin="round" stroke="rgb(86.665344%, 86.665344%, 86.665344%)" stroke-opacity="1" stroke-miterlimit="10" d="M 69.089501 87.606058 L 233.232256 87.606058 " transform="matrix(0.996846, 0, 0, -0.996846, 0.116709, 190.79066)"/>
</g>
<path fill="none" stroke-width="0.8" stroke-linecap="butt" stroke-linejoin="round" stroke="rgb(39.99939%, 39.99939%, 39.99939%)" stroke-opacity="1" stroke-miterlimit="10" d="M 69.089501 87.606058 L 65.590182 87.606058 " transform="matrix(0.996846, 0, 0, -0.996846, 0.116709, 190.79066)"/>
<g fill="rgb(39.99939%, 39.99939%, 39.99939%)" fill-opacity="1">
<use xlink:href="#glyph-2-4" x="23.196802" y="106.110992"/>
</g>
<g fill="rgb(39.99939%, 39.99939%, 39.99939%)" fill-opacity="1">
<use xlink:href="#glyph-2-6" x="27.62194" y="106.110992"/>
</g>
<g fill="rgb(39.99939%, 39.99939%, 39.99939%)" fill-opacity="1">
<use xlink:href="#glyph-2-1" x="31.919202" y="106.110992"/>
</g>
<g fill="rgb(39.99939%, 39.99939%, 39.99939%)" fill-opacity="1">
<use xlink:href="#glyph-2-18" x="36.203968" y="106.110992"/>
</g>
<g fill="rgb(39.99939%, 39.99939%, 39.99939%)" fill-opacity="1">
<use xlink:href="#glyph-2-6" x="40.33295" y="106.110992"/>
</g>
<g fill="rgb(39.99939%, 39.99939%, 39.99939%)" fill-opacity="1">
<use xlink:href="#glyph-2-5" x="44.630211" y="106.110992"/>
</g>
<g fill="rgb(39.99939%, 39.99939%, 39.99939%)" fill-opacity="1">
<use xlink:href="#glyph-2-11" x="47.495216" y="106.110992"/>
</g>
<g fill="rgb(39.99939%, 39.99939%, 39.99939%)" fill-opacity="1">
<use xlink:href="#glyph-2-1" x="50.235915" y="106.110992"/>
</g>
<g fill="rgb(39.99939%, 39.99939%, 39.99939%)" fill-opacity="1">
<use xlink:href="#glyph-2-2" x="54.520681" y="106.110992"/>
</g>
<g fill="rgb(39.99939%, 39.99939%, 39.99939%)" fill-opacity="1">
<use xlink:href="#glyph-2-3" x="56.453241" y="106.110992"/>
</g>
<g fill="rgb(39.99939%, 39.99939%, 39.99939%)" fill-opacity="1">
<use xlink:href="#glyph-2-10" x="58.385802" y="106.110992"/>
</g>
<g clip-path="url(#clip-9)">
<path fill="none" stroke-width="0.6" stroke-linecap="square" stroke-linejoin="round" stroke="rgb(86.665344%, 86.665344%, 86.665344%)" stroke-opacity="1" stroke-miterlimit="10" d="M 69.089501 66.907958 L 233.232256 66.907958 " transform="matrix(0.996846, 0, 0, -0.996846, 0.116709, 190.79066)"/>
</g>
<path fill="none" stroke-width="0.8" stroke-linecap="butt" stroke-linejoin="round" stroke="rgb(39.99939%, 39.99939%, 39.99939%)" stroke-opacity="1" stroke-miterlimit="10" d="M 69.089501 66.907958 L 65.590182 66.907958 " transform="matrix(0.996846, 0, 0, -0.996846, 0.116709, 190.79066)"/>
<g fill="rgb(39.99939%, 39.99939%, 39.99939%)" fill-opacity="1">
<use xlink:href="#glyph-2-0" x="7.293998" y="126.746006"/>
</g>
<g fill="rgb(39.99939%, 39.99939%, 39.99939%)" fill-opacity="1">
<use xlink:href="#glyph-2-1" x="9.226559" y="126.746006"/>
</g>
<g fill="rgb(39.99939%, 39.99939%, 39.99939%)" fill-opacity="1">
<use xlink:href="#glyph-2-2" x="13.511325" y="126.746006"/>
</g>
<g fill="rgb(39.99939%, 39.99939%, 39.99939%)" fill-opacity="1">
<use xlink:href="#glyph-2-3" x="15.443885" y="126.746006"/>
</g>
<g fill="rgb(39.99939%, 39.99939%, 39.99939%)" fill-opacity="1">
<use xlink:href="#glyph-2-4" x="17.376446" y="126.746006"/>
</g>
<g fill="rgb(39.99939%, 39.99939%, 39.99939%)" fill-opacity="1">
<use xlink:href="#glyph-2-5" x="21.801584" y="126.746006"/>
</g>
<g fill="rgb(39.99939%, 39.99939%, 39.99939%)" fill-opacity="1">
<use xlink:href="#glyph-2-6" x="24.510832" y="126.746006"/>
</g>
<g fill="rgb(39.99939%, 39.99939%, 39.99939%)" fill-opacity="1">
<use xlink:href="#glyph-2-1" x="28.808093" y="126.746006"/>
</g>
<g fill="rgb(39.99939%, 39.99939%, 39.99939%)" fill-opacity="1">
<use xlink:href="#glyph-2-7" x="33.092859" y="126.746006"/>
</g>
<g fill="rgb(39.99939%, 39.99939%, 39.99939%)" fill-opacity="1">
<use xlink:href="#glyph-2-4" x="37.126261" y="126.746006"/>
</g>
<g fill="rgb(39.99939%, 39.99939%, 39.99939%)" fill-opacity="1">
<use xlink:href="#glyph-2-6" x="41.551399" y="126.746006"/>
</g>
<g fill="rgb(39.99939%, 39.99939%, 39.99939%)" fill-opacity="1">
<use xlink:href="#glyph-2-17" x="45.848661" y="126.746006"/>
</g>
<g fill="rgb(39.99939%, 39.99939%, 39.99939%)" fill-opacity="1">
<use xlink:href="#glyph-2-9" x="50.273635" y="126.746006"/>
</g>
<g fill="rgb(39.99939%, 39.99939%, 39.99939%)" fill-opacity="1">
<use xlink:href="#glyph-2-14" x="54.106624" y="126.746006"/>
</g>
<g fill="rgb(39.99939%, 39.99939%, 39.99939%)" fill-opacity="1">
<use xlink:href="#glyph-2-19" x="58.531599" y="126.746006"/>
</g>
<g clip-path="url(#clip-10)">
<path fill="none" stroke-width="0.6" stroke-linecap="square" stroke-linejoin="round" stroke="rgb(86.665344%, 86.665344%, 86.665344%)" stroke-opacity="1" stroke-miterlimit="10" d="M 69.089501 46.205939 L 233.232256 46.205939 " transform="matrix(0.996846, 0, 0, -0.996846, 0.116709, 190.79066)"/>
</g>
<path fill="none" stroke-width="0.8" stroke-linecap="butt" stroke-linejoin="round" stroke="rgb(39.99939%, 39.99939%, 39.99939%)" stroke-opacity="1" stroke-miterlimit="10" d="M 69.089501 46.205939 L 65.590182 46.205939 " transform="matrix(0.996846, 0, 0, -0.996846, 0.116709, 190.79066)"/>
<g fill="rgb(39.99939%, 39.99939%, 39.99939%)" fill-opacity="1">
<use xlink:href="#glyph-2-13" x="37.355126" y="147.381021"/>
</g>
<g fill="rgb(39.99939%, 39.99939%, 39.99939%)" fill-opacity="1">
<use xlink:href="#glyph-2-10" x="41.484108" y="147.381021"/>
</g>
<g fill="rgb(39.99939%, 39.99939%, 39.99939%)" fill-opacity="1">
<use xlink:href="#glyph-2-11" x="45.113277" y="147.381021"/>
</g>
<g fill="rgb(39.99939%, 39.99939%, 39.99939%)" fill-opacity="1">
<use xlink:href="#glyph-2-6" x="47.853975" y="147.381021"/>
</g>
<g fill="rgb(39.99939%, 39.99939%, 39.99939%)" fill-opacity="1">
<use xlink:href="#glyph-2-10" x="52.151237" y="147.381021"/>
</g>
<g fill="rgb(39.99939%, 39.99939%, 39.99939%)" fill-opacity="1">
<use xlink:href="#glyph-2-11" x="55.780406" y="147.381021"/>
</g>
<g fill="rgb(39.99939%, 39.99939%, 39.99939%)" fill-opacity="1">
<use xlink:href="#glyph-2-19" x="58.521104" y="147.381021"/>
</g>
<g clip-path="url(#clip-11)">
<path fill="none" stroke-width="0.8" stroke-linecap="square" stroke-linejoin="round" stroke="rgb(39.99939%, 39.99939%, 39.99939%)" stroke-opacity="1" stroke-miterlimit="10" d="M 96.449239 34.199316 L 96.449239 161.714819 " transform="matrix(0.996846, 0, 0, -0.996846, 0.116709, 190.79066)"/>
</g>
<path fill="none" stroke-width="0.8" stroke-linecap="square" stroke-linejoin="miter" stroke="rgb(39.99939%, 39.99939%, 39.99939%)" stroke-opacity="1" stroke-miterlimit="10" d="M 69.089501 34.199316 L 233.232256 34.199316 " transform="matrix(0.996846, 0, 0, -0.996846, 0.116709, 190.79066)"/>
<path fill-rule="nonzero" fill="rgb(0%, 44.7052%, 69.802856%)" fill-opacity="1" d="M 96.261719 47.746094 L 212.796875 47.746094 L 212.796875 35.363281 L 96.261719 35.363281 Z M 96.261719 47.746094 "/>
<path fill-rule="nonzero" fill="rgb(0%, 44.7052%, 69.802856%)" fill-opacity="1" d="M 96.261719 68.378906 L 123.53125 68.378906 L 123.53125 56 L 96.261719 56 Z M 96.261719 68.378906 "/>
<path fill-rule="nonzero" fill="rgb(0%, 44.7052%, 69.802856%)" fill-opacity="1" d="M 96.261719 89.015625 L 121.347656 89.015625 L 121.347656 76.632812 L 96.261719 76.632812 Z M 96.261719 89.015625 "/>
<path fill-rule="nonzero" fill="rgb(0%, 44.7052%, 69.802856%)" fill-opacity="1" d="M 96.261719 109.652344 L 100.625 109.652344 L 100.625 97.269531 L 96.261719 97.269531 Z M 96.261719 109.652344 "/>
<path fill-rule="nonzero" fill="rgb(0%, 44.7052%, 69.802856%)" fill-opacity="1" d="M 96.261719 130.285156 L 98.441406 130.285156 L 98.441406 117.90625 L 96.261719 117.90625 Z M 96.261719 130.285156 "/>
<path fill-rule="nonzero" fill="rgb(83.528137%, 36.862183%, 0%)" fill-opacity="1" d="M 96.261719 150.921875 L 92.078125 150.921875 L 92.078125 138.539062 L 96.261719 138.539062 Z M 96.261719 150.921875 "/>
<g fill="rgb(13.33313%, 13.33313%, 13.33313%)" fill-opacity="1">
<use xlink:href="#glyph-3-0" x="214.614161" y="43.238307"/>
</g>
<g fill="rgb(13.33313%, 13.33313%, 13.33313%)" fill-opacity="1">
<use xlink:href="#glyph-3-1" x="220.050794" y="43.238307"/>
</g>
<g fill="rgb(13.33313%, 13.33313%, 13.33313%)" fill-opacity="1">
<use xlink:href="#glyph-3-2" x="224.176865" y="43.238307"/>
</g>
<g fill="rgb(13.33313%, 13.33313%, 13.33313%)" fill-opacity="1">
<use xlink:href="#glyph-3-3" x="226.233695" y="43.238307"/>
</g>
<g fill="rgb(13.33313%, 13.33313%, 13.33313%)" fill-opacity="1">
<use xlink:href="#glyph-3-4" x="230.359765" y="43.238307"/>
</g>
<g fill="rgb(13.33313%, 13.33313%, 13.33313%)" fill-opacity="1">
<use xlink:href="#glyph-3-5" x="234.485836" y="43.238307"/>
</g>
<g fill="rgb(13.33313%, 13.33313%, 13.33313%)" fill-opacity="1">
<use xlink:href="#glyph-3-0" x="125.348547" y="63.873321"/>
</g>
<g fill="rgb(13.33313%, 13.33313%, 13.33313%)" fill-opacity="1">
<use xlink:href="#glyph-3-1" x="130.78518" y="63.873321"/>
</g>
<g fill="rgb(13.33313%, 13.33313%, 13.33313%)" fill-opacity="1">
<use xlink:href="#glyph-3-2" x="134.911251" y="63.873321"/>
</g>
<g fill="rgb(13.33313%, 13.33313%, 13.33313%)" fill-opacity="1">
<use xlink:href="#glyph-3-5" x="136.96808" y="63.873321"/>
</g>
<g fill="rgb(13.33313%, 13.33313%, 13.33313%)" fill-opacity="1">
<use xlink:href="#glyph-3-6" x="141.094151" y="63.873321"/>
</g>
<g fill="rgb(13.33313%, 13.33313%, 13.33313%)" fill-opacity="1">
<use xlink:href="#glyph-3-1" x="145.220222" y="63.873321"/>
</g>
<g fill="rgb(13.33313%, 13.33313%, 13.33313%)" fill-opacity="1">
<use xlink:href="#glyph-3-0" x="123.166903" y="84.508336"/>
</g>
<g fill="rgb(13.33313%, 13.33313%, 13.33313%)" fill-opacity="1">
<use xlink:href="#glyph-3-1" x="128.603536" y="84.508336"/>
</g>
<g fill="rgb(13.33313%, 13.33313%, 13.33313%)" fill-opacity="1">
<use xlink:href="#glyph-3-2" x="132.729607" y="84.508336"/>
</g>
<g fill="rgb(13.33313%, 13.33313%, 13.33313%)" fill-opacity="1">
<use xlink:href="#glyph-3-5" x="134.786436" y="84.508336"/>
</g>
<g fill="rgb(13.33313%, 13.33313%, 13.33313%)" fill-opacity="1">
<use xlink:href="#glyph-3-7" x="138.912507" y="84.508336"/>
</g>
<g fill="rgb(13.33313%, 13.33313%, 13.33313%)" fill-opacity="1">
<use xlink:href="#glyph-3-8" x="143.038578" y="84.508336"/>
</g>
<g fill="rgb(13.33313%, 13.33313%, 13.33313%)" fill-opacity="1">
<use xlink:href="#glyph-3-0" x="102.441282" y="105.14335"/>
</g>
<g fill="rgb(13.33313%, 13.33313%, 13.33313%)" fill-opacity="1">
<use xlink:href="#glyph-3-1" x="107.877914" y="105.14335"/>
</g>
<g fill="rgb(13.33313%, 13.33313%, 13.33313%)" fill-opacity="1">
<use xlink:href="#glyph-3-2" x="112.003985" y="105.14335"/>
</g>
<g fill="rgb(13.33313%, 13.33313%, 13.33313%)" fill-opacity="1">
<use xlink:href="#glyph-3-1" x="114.060815" y="105.14335"/>
</g>
<g fill="rgb(13.33313%, 13.33313%, 13.33313%)" fill-opacity="1">
<use xlink:href="#glyph-3-9" x="118.186886" y="105.14335"/>
</g>
<g fill="rgb(13.33313%, 13.33313%, 13.33313%)" fill-opacity="1">
<use xlink:href="#glyph-3-4" x="122.312957" y="105.14335"/>
</g>
<g fill="rgb(13.33313%, 13.33313%, 13.33313%)" fill-opacity="1">
<use xlink:href="#glyph-3-0" x="100.259637" y="125.778365"/>
</g>
<g fill="rgb(13.33313%, 13.33313%, 13.33313%)" fill-opacity="1">
<use xlink:href="#glyph-3-1" x="105.69627" y="125.778365"/>
</g>
<g fill="rgb(13.33313%, 13.33313%, 13.33313%)" fill-opacity="1">
<use xlink:href="#glyph-3-2" x="109.822341" y="125.778365"/>
</g>
<g fill="rgb(13.33313%, 13.33313%, 13.33313%)" fill-opacity="1">
<use xlink:href="#glyph-3-1" x="111.879171" y="125.778365"/>
</g>
<g fill="rgb(13.33313%, 13.33313%, 13.33313%)" fill-opacity="1">
<use xlink:href="#glyph-3-5" x="116.005241" y="125.778365"/>
</g>
<g fill="rgb(13.33313%, 13.33313%, 13.33313%)" fill-opacity="1">
<use xlink:href="#glyph-3-9" x="120.131312" y="125.778365"/>
</g>
<g fill="rgb(13.33313%, 13.33313%, 13.33313%)" fill-opacity="1">
<use xlink:href="#glyph-3-10" x="69.357826" y="146.413379"/>
</g>
<g fill="rgb(13.33313%, 13.33313%, 13.33313%)" fill-opacity="1">
<use xlink:href="#glyph-3-1" x="71.69522" y="146.413379"/>
</g>
<g fill="rgb(13.33313%, 13.33313%, 13.33313%)" fill-opacity="1">
<use xlink:href="#glyph-3-2" x="75.821291" y="146.413379"/>
</g>
<g fill="rgb(13.33313%, 13.33313%, 13.33313%)" fill-opacity="1">
<use xlink:href="#glyph-3-1" x="77.878121" y="146.413379"/>
</g>
<g fill="rgb(13.33313%, 13.33313%, 13.33313%)" fill-opacity="1">
<use xlink:href="#glyph-3-9" x="82.004192" y="146.413379"/>
</g>
<g fill="rgb(13.33313%, 13.33313%, 13.33313%)" fill-opacity="1">
<use xlink:href="#glyph-3-7" x="86.130263" y="146.413379"/>
</g>
<g fill="rgb(13.33313%, 13.33313%, 13.33313%)" fill-opacity="1">
<use xlink:href="#glyph-0-18" x="90.764474" y="14.034497"/>
</g>
<g fill="rgb(13.33313%, 13.33313%, 13.33313%)" fill-opacity="1">
<use xlink:href="#glyph-0-16" x="95.062343" y="14.034497"/>
</g>
<g fill="rgb(13.33313%, 13.33313%, 13.33313%)" fill-opacity="1">
<use xlink:href="#glyph-0-19" x="99.939006" y="14.034497"/>
</g>
<g fill="rgb(13.33313%, 13.33313%, 13.33313%)" fill-opacity="1">
<use xlink:href="#glyph-0-20" x="105.158272" y="14.034497"/>
</g>
<g fill="rgb(13.33313%, 13.33313%, 13.33313%)" fill-opacity="1">
<use xlink:href="#glyph-0-7" x="110.609118" y="14.034497"/>
</g>
<g fill="rgb(13.33313%, 13.33313%, 13.33313%)" fill-opacity="1">
<use xlink:href="#glyph-0-12" x="113.148987" y="14.034497"/>
<use xlink:href="#glyph-0-10" x="118.212963" y="14.034497"/>
</g>
<g fill="rgb(13.33313%, 13.33313%, 13.33313%)" fill-opacity="1">
<use xlink:href="#glyph-0-28" x="123.105389" y="14.034497"/>
</g>
<g fill="rgb(13.33313%, 13.33313%, 13.33313%)" fill-opacity="1">
<use xlink:href="#glyph-0-11" x="125.31848" y="14.034497"/>
</g>
<g fill="rgb(13.33313%, 13.33313%, 13.33313%)" fill-opacity="1">
<use xlink:href="#glyph-0-26" x="130.382269" y="14.034497"/>
</g>
<g fill="rgb(13.33313%, 13.33313%, 13.33313%)" fill-opacity="1">
<use xlink:href="#glyph-0-7" x="134.541016" y="14.034497"/>
</g>
<g fill="rgb(13.33313%, 13.33313%, 13.33313%)" fill-opacity="1">
<use xlink:href="#glyph-0-10" x="137.080885" y="14.034497"/>
</g>
<g fill="rgb(13.33313%, 13.33313%, 13.33313%)" fill-opacity="1">
<use xlink:href="#glyph-0-15" x="141.97331" y="14.034497"/>
</g>
<g fill="rgb(13.33313%, 13.33313%, 13.33313%)" fill-opacity="1">
<use xlink:href="#glyph-0-13" x="145.087394" y="14.034497"/>
<use xlink:href="#glyph-0-7" x="149.991875" y="14.034497"/>
</g>
<g fill="rgb(13.33313%, 13.33313%, 13.33313%)" fill-opacity="1">
<use xlink:href="#glyph-0-28" x="152.531744" y="14.034497"/>
</g>
<g fill="rgb(13.33313%, 13.33313%, 13.33313%)" fill-opacity="1">
<use xlink:href="#glyph-0-11" x="154.744835" y="14.034497"/>
</g>
<g fill="rgb(13.33313%, 13.33313%, 13.33313%)" fill-opacity="1">
<use xlink:href="#glyph-0-29" x="159.808624" y="14.034497"/>
</g>
<g fill="rgb(13.33313%, 13.33313%, 13.33313%)" fill-opacity="1">
<use xlink:href="#glyph-0-24" x="162.691409" y="14.034497"/>
<use xlink:href="#glyph-0-28" x="167.755385" y="14.034497"/>
</g>
<g fill="rgb(13.33313%, 13.33313%, 13.33313%)" fill-opacity="1">
<use xlink:href="#glyph-0-26" x="169.968476" y="14.034497"/>
</g>
<g fill="rgb(13.33313%, 13.33313%, 13.33313%)" fill-opacity="1">
<use xlink:href="#glyph-0-22" x="174.127223" y="14.034497"/>
</g>
<g fill="rgb(13.33313%, 13.33313%, 13.33313%)" fill-opacity="1">
<use xlink:href="#glyph-0-15" x="177.257225" y="14.034497"/>
</g>
<g fill="rgb(13.33313%, 13.33313%, 13.33313%)" fill-opacity="1">
<use xlink:href="#glyph-0-28" x="180.542641" y="14.034497"/>
</g>
<g fill="rgb(13.33313%, 13.33313%, 13.33313%)" fill-opacity="1">
<use xlink:href="#glyph-0-25" x="182.755732" y="14.034497"/>
<use xlink:href="#glyph-0-23" x="187.819708" y="14.034497"/>
</g>
<g fill="rgb(13.33313%, 13.33313%, 13.33313%)" fill-opacity="1">
<use xlink:href="#glyph-0-22" x="192.883498" y="14.034497"/>
</g>
<g fill="rgb(13.33313%, 13.33313%, 13.33313%)" fill-opacity="1">
<use xlink:href="#glyph-0-28" x="196.0135" y="14.034497"/>
</g>
<g fill="rgb(13.33313%, 13.33313%, 13.33313%)" fill-opacity="1">
<use xlink:href="#glyph-0-16" x="198.226591" y="14.034497"/>
</g>
<g fill="rgb(13.33313%, 13.33313%, 13.33313%)" fill-opacity="1">
<use xlink:href="#glyph-0-11" x="203.103253" y="14.034497"/>
</g>
<g fill="rgb(13.33313%, 13.33313%, 13.33313%)" fill-opacity="1">
<use xlink:href="#glyph-0-30" x="208.167042" y="14.034497"/>
</g>
<g fill="rgb(13.33313%, 13.33313%, 13.33313%)" fill-opacity="1">
<use xlink:href="#glyph-0-9" x="97.399729" y="23.605774"/>
</g>
<g fill="rgb(13.33313%, 13.33313%, 13.33313%)" fill-opacity="1">
<use xlink:href="#glyph-0-13" x="102.463518" y="23.605774"/>
<use xlink:href="#glyph-0-31" x="107.367999" y="23.605774"/>
</g>
<g fill="rgb(13.33313%, 13.33313%, 13.33313%)" fill-opacity="1">
<use xlink:href="#glyph-0-24" x="109.58109" y="23.605774"/>
<use xlink:href="#glyph-0-29" x="114.645066" y="23.605774"/>
</g>
<g fill="rgb(13.33313%, 13.33313%, 13.33313%)" fill-opacity="1">
<use xlink:href="#glyph-0-16" x="117.683607" y="23.605774"/>
</g>
<g fill="rgb(13.33313%, 13.33313%, 13.33313%)" fill-opacity="1">
<use xlink:href="#glyph-0-23" x="122.56027" y="23.605774"/>
</g>
<g fill="rgb(13.33313%, 13.33313%, 13.33313%)" fill-opacity="1">
<use xlink:href="#glyph-0-22" x="127.624059" y="23.605774"/>
</g>
<g fill="rgb(13.33313%, 13.33313%, 13.33313%)" fill-opacity="1">
<use xlink:href="#glyph-0-7" x="130.754061" y="23.605774"/>
</g>
<g fill="rgb(13.33313%, 13.33313%, 13.33313%)" fill-opacity="1">
<use xlink:href="#glyph-0-21" x="133.293931" y="23.605774"/>
</g>
<g fill="rgb(13.33313%, 13.33313%, 13.33313%)" fill-opacity="1">
<use xlink:href="#glyph-0-32" x="136.407983" y="23.605774"/>
<use xlink:href="#glyph-0-27" x="140.395366" y="23.605774"/>
</g>
<g fill="rgb(13.33313%, 13.33313%, 13.33313%)" fill-opacity="1">
<use xlink:href="#glyph-0-7" x="143.509418" y="23.605774"/>
</g>
<g fill="rgb(13.33313%, 13.33313%, 13.33313%)" fill-opacity="1">
<use xlink:href="#glyph-0-13" x="146.049288" y="23.605774"/>
<use xlink:href="#glyph-0-26" x="150.953769" y="23.605774"/>
</g>
<g fill="rgb(13.33313%, 13.33313%, 13.33313%)" fill-opacity="1">
<use xlink:href="#glyph-0-26" x="155.112515" y="23.605774"/>
</g>
<g fill="rgb(13.33313%, 13.33313%, 13.33313%)" fill-opacity="1">
<use xlink:href="#glyph-0-13" x="159.271262" y="23.605774"/>
<use xlink:href="#glyph-0-11" x="164.175743" y="23.605774"/>
</g>
<g fill="rgb(13.33313%, 13.33313%, 13.33313%)" fill-opacity="1">
<use xlink:href="#glyph-0-22" x="169.239532" y="23.605774"/>
</g>
<g fill="rgb(13.33313%, 13.33313%, 13.33313%)" fill-opacity="1">
<use xlink:href="#glyph-0-28" x="172.369534" y="23.605774"/>
</g>
<g fill="rgb(13.33313%, 13.33313%, 13.33313%)" fill-opacity="1">
<use xlink:href="#glyph-0-10" x="174.582625" y="23.605774"/>
</g>
<g fill="rgb(13.33313%, 13.33313%, 13.33313%)" fill-opacity="1">
<use xlink:href="#glyph-0-31" x="179.475051" y="23.605774"/>
</g>
<g fill="rgb(13.33313%, 13.33313%, 13.33313%)" fill-opacity="1">
<use xlink:href="#glyph-0-31" x="181.688142" y="23.605774"/>
</g>
<g fill="rgb(13.33313%, 13.33313%, 13.33313%)" fill-opacity="1">
<use xlink:href="#glyph-0-33" x="183.901232" y="23.605774"/>
<use xlink:href="#glyph-0-7" x="188.622294" y="23.605774"/>
</g>
<g fill="rgb(13.33313%, 13.33313%, 13.33313%)" fill-opacity="1">
<use xlink:href="#glyph-1-1" x="191.153846" y="23.605774"/>
</g>
<g fill="rgb(13.33313%, 13.33313%, 13.33313%)" fill-opacity="1">
<use xlink:href="#glyph-0-10" x="196.188695" y="23.605774"/>
</g>
<g fill="rgb(13.33313%, 13.33313%, 13.33313%)" fill-opacity="1">
<use xlink:href="#glyph-0-22" x="201.081121" y="23.605774"/>
</g>
</svg>
