<?xml version="1.0" encoding="UTF-8"?>
<svg xmlns="http://www.w3.org/2000/svg" xmlns:xlink="http://www.w3.org/1999/xlink" width="235.333125pt" height="177.056133pt" viewBox="0 0 235.333125 177.056133">
<defs>
<g>
<g id="glyph-0-0">
<path d="M 2.53125 -5.285156 C 2.125 -5.285156 1.824219 -5.085938 1.617188 -4.6875 C 1.417969 -4.289062 1.3125 -3.691406 1.3125 -2.898438 C 1.3125 -2.101562 1.417969 -1.503906 1.617188 -1.105469 C 1.824219 -0.707031 2.125 -0.507812 2.53125 -0.507812 C 2.9375 -0.507812 3.246094 -0.707031 3.445312 -1.105469 C 3.644531 -1.503906 3.746094 -2.101562 3.746094 -2.898438 C 3.746094 -3.691406 3.644531 -4.289062 3.445312 -4.6875 C 3.246094 -5.085938 2.9375 -5.285156 2.53125 -5.285156 Z M 2.53125 -5.90625 C 3.175781 -5.90625 3.675781 -5.648438 4.019531 -5.132812 C 4.359375 -4.617188 4.535156 -3.875 4.535156 -2.898438 C 4.535156 -1.917969 4.359375 -1.175781 4.019531 -0.660156 C 3.675781 -0.144531 3.175781 0.113281 2.53125 0.113281 C 1.878906 0.113281 1.375 -0.144531 1.035156 -0.660156 C 0.691406 -1.175781 0.523438 -1.917969 0.523438 -2.898438 C 0.523438 -3.875 0.691406 -4.617188 1.035156 -5.132812 C 1.375 -5.648438 1.878906 -5.90625 2.53125 -5.90625 Z M 2.53125 -5.90625 "/>
</g>
<g id="glyph-0-1">
<path d="M 0.988281 -0.660156 L 2.269531 -0.660156 L 2.269531 -5.085938 L 0.875 -4.804688 L 0.875 -5.523438 L 2.261719 -5.800781 L 3.046875 -5.800781 L 3.046875 -0.660156 L 4.328125 -0.660156 L 4.328125 0 L 0.988281 0 Z M 0.988281 -0.660156 "/>
</g>
<g id="glyph-0-2">
<path d="M 1.527344 -0.660156 L 4.265625 -0.660156 L 4.265625 0 L 0.582031 0 L 0.582031 -0.660156 C 0.875 -0.972656 1.28125 -1.382812 1.796875 -1.902344 C 2.316406 -2.417969 2.632812 -2.753906 2.769531 -2.90625 C 3.023438 -3.183594 3.199219 -3.421875 3.292969 -3.621094 C 3.398438 -3.820312 3.445312 -4.011719 3.445312 -4.203125 C 3.445312 -4.511719 3.335938 -4.757812 3.121094 -4.957031 C 2.90625 -5.148438 2.625 -5.242188 2.277344 -5.242188 C 2.027344 -5.242188 1.773438 -5.203125 1.496094 -5.117188 C 1.226562 -5.027344 0.929688 -4.902344 0.621094 -4.726562 L 0.621094 -5.523438 C 0.9375 -5.648438 1.234375 -5.746094 1.503906 -5.808594 C 1.78125 -5.871094 2.027344 -5.90625 2.261719 -5.90625 C 2.855469 -5.90625 3.34375 -5.753906 3.699219 -5.457031 C 4.058594 -5.15625 4.234375 -4.75 4.234375 -4.25 C 4.234375 -4.011719 4.1875 -3.789062 4.097656 -3.574219 C 4.011719 -3.359375 3.851562 -3.113281 3.613281 -2.816406 C 3.550781 -2.746094 3.34375 -2.523438 2.992188 -2.164062 C 2.648438 -1.804688 2.15625 -1.304688 1.527344 -0.660156 Z M 1.527344 -0.660156 "/>
</g>
<g id="glyph-0-3">
<path d="M 3.230469 -3.128906 C 3.605469 -3.046875 3.898438 -2.878906 4.105469 -2.625 C 4.320312 -2.371094 4.425781 -2.0625 4.425781 -1.6875 C 4.425781 -1.113281 4.226562 -0.667969 3.835938 -0.359375 C 3.445312 -0.046875 2.878906 0.113281 2.15625 0.113281 C 1.910156 0.113281 1.664062 0.0859375 1.402344 0.0390625 C 1.144531 -0.0078125 0.882812 -0.078125 0.605469 -0.175781 L 0.605469 -0.929688 C 0.820312 -0.804688 1.058594 -0.707031 1.320312 -0.644531 C 1.582031 -0.582031 1.855469 -0.550781 2.132812 -0.550781 C 2.625 -0.550781 3 -0.644531 3.253906 -0.835938 C 3.515625 -1.035156 3.644531 -1.3125 3.644531 -1.6875 C 3.644531 -2.027344 3.523438 -2.292969 3.285156 -2.484375 C 3.046875 -2.683594 2.714844 -2.777344 2.285156 -2.777344 L 1.609375 -2.777344 L 1.609375 -3.421875 L 2.316406 -3.421875 C 2.707031 -3.421875 3 -3.5 3.199219 -3.652344 C 3.40625 -3.804688 3.507812 -4.027344 3.507812 -4.320312 C 3.507812 -4.617188 3.40625 -4.847656 3.191406 -5.003906 C 2.976562 -5.164062 2.671875 -5.242188 2.285156 -5.242188 C 2.070312 -5.242188 1.839844 -5.21875 1.589844 -5.171875 C 1.34375 -5.132812 1.074219 -5.0625 0.78125 -4.957031 L 0.78125 -5.65625 C 1.074219 -5.746094 1.351562 -5.800781 1.617188 -5.839844 C 1.878906 -5.878906 2.125 -5.90625 2.355469 -5.90625 C 2.953125 -5.90625 3.421875 -5.769531 3.773438 -5.5 C 4.113281 -5.226562 4.289062 -4.863281 4.289062 -4.402344 C 4.289062 -4.082031 4.195312 -3.8125 4.011719 -3.589844 C 3.828125 -3.367188 3.574219 -3.214844 3.230469 -3.128906 Z M 3.230469 -3.128906 "/>
</g>
<g id="glyph-0-4">
<path d="M 3.007812 -5.117188 L 1.027344 -2.019531 L 3.007812 -2.019531 Z M 2.800781 -5.800781 L 3.789062 -5.800781 L 3.789062 -2.019531 L 4.617188 -2.019531 L 4.617188 -1.367188 L 3.789062 -1.367188 L 3.789062 0 L 3.007812 0 L 3.007812 -1.367188 L 0.390625 -1.367188 L 0.390625 -2.125 Z M 2.800781 -5.800781 "/>
</g>
<g id="glyph-0-5">
<path d="M 0.859375 -5.800781 L 3.9375 -5.800781 L 3.9375 -5.140625 L 1.574219 -5.140625 L 1.574219 -3.714844 C 1.695312 -3.757812 1.804688 -3.789062 1.917969 -3.804688 C 2.039062 -3.828125 2.148438 -3.835938 2.261719 -3.835938 C 2.90625 -3.835938 3.421875 -3.660156 3.804688 -3.300781 C 4.175781 -2.945312 4.367188 -2.46875 4.367188 -1.863281 C 4.367188 -1.234375 4.175781 -0.746094 3.789062 -0.40625 C 3.398438 -0.0625 2.847656 0.113281 2.140625 0.113281 C 1.894531 0.113281 1.648438 0.0859375 1.390625 0.046875 C 1.144531 0.0078125 0.882812 -0.046875 0.613281 -0.136719 L 0.613281 -0.921875 C 0.84375 -0.796875 1.089844 -0.699219 1.335938 -0.644531 C 1.582031 -0.582031 1.847656 -0.550781 2.125 -0.550781 C 2.578125 -0.550781 2.929688 -0.667969 3.191406 -0.898438 C 3.453125 -1.136719 3.582031 -1.457031 3.582031 -1.863281 C 3.582031 -2.269531 3.453125 -2.585938 3.191406 -2.816406 C 2.929688 -3.054688 2.578125 -3.175781 2.125 -3.175781 C 1.917969 -3.175781 1.710938 -3.152344 1.496094 -3.101562 C 1.289062 -3.054688 1.074219 -2.984375 0.859375 -2.886719 Z M 0.859375 -5.800781 "/>
</g>
<g id="glyph-0-6">
<path d="M 2.625 -3.214844 C 2.277344 -3.214844 1.996094 -3.09375 1.789062 -2.847656 C 1.582031 -2.609375 1.480469 -2.285156 1.480469 -1.863281 C 1.480469 -1.441406 1.582031 -1.113281 1.789062 -0.867188 C 1.996094 -0.628906 2.277344 -0.507812 2.625 -0.507812 C 2.976562 -0.507812 3.253906 -0.628906 3.460938 -0.867188 C 3.667969 -1.113281 3.773438 -1.441406 3.773438 -1.863281 C 3.773438 -2.285156 3.667969 -2.609375 3.460938 -2.847656 C 3.253906 -3.09375 2.976562 -3.214844 2.625 -3.214844 Z M 4.1875 -5.671875 L 4.1875 -4.957031 C 3.988281 -5.054688 3.789062 -5.125 3.589844 -5.171875 C 3.390625 -5.21875 3.191406 -5.242188 2.992188 -5.242188 C 2.476562 -5.242188 2.078125 -5.070312 1.804688 -4.71875 C 1.527344 -4.367188 1.375 -3.84375 1.335938 -3.136719 C 1.488281 -3.367188 1.679688 -3.53125 1.910156 -3.652344 C 2.140625 -3.773438 2.394531 -3.835938 2.671875 -3.835938 C 3.253906 -3.835938 3.714844 -3.660156 4.050781 -3.300781 C 4.394531 -2.953125 4.558594 -2.476562 4.558594 -1.863281 C 4.558594 -1.265625 4.382812 -0.789062 4.035156 -0.429688 C 3.675781 -0.0703125 3.207031 0.113281 2.625 0.113281 C 1.957031 0.113281 1.449219 -0.144531 1.089844 -0.660156 C 0.730469 -1.175781 0.558594 -1.917969 0.558594 -2.898438 C 0.558594 -3.8125 0.773438 -4.542969 1.210938 -5.085938 C 1.648438 -5.632812 2.226562 -5.90625 2.960938 -5.90625 C 3.160156 -5.90625 3.359375 -5.886719 3.558594 -5.847656 C 3.757812 -5.808594 3.972656 -5.753906 4.1875 -5.671875 Z M 4.1875 -5.671875 "/>
</g>
<g id="glyph-0-7">
<path d="M 3.523438 -4.226562 L 3.523438 -3.550781 C 3.328125 -3.652344 3.113281 -3.722656 2.898438 -3.78125 C 2.683594 -3.835938 2.449219 -3.859375 2.21875 -3.859375 C 1.863281 -3.859375 1.597656 -3.804688 1.417969 -3.691406 C 1.242188 -3.589844 1.152344 -3.421875 1.152344 -3.207031 C 1.152344 -3.039062 1.21875 -2.914062 1.34375 -2.816406 C 1.472656 -2.722656 1.726562 -2.632812 2.109375 -2.546875 L 2.355469 -2.492188 C 2.863281 -2.378906 3.222656 -2.226562 3.4375 -2.027344 C 3.652344 -1.832031 3.757812 -1.558594 3.757812 -1.203125 C 3.757812 -0.796875 3.597656 -0.476562 3.277344 -0.238281 C 2.960938 -0.0078125 2.523438 0.113281 1.957031 0.113281 C 1.726562 0.113281 1.480469 0.0859375 1.226562 0.0390625 C 0.980469 0 0.707031 -0.0703125 0.429688 -0.160156 L 0.429688 -0.898438 C 0.691406 -0.765625 0.953125 -0.660156 1.210938 -0.589844 C 1.472656 -0.515625 1.726562 -0.484375 1.972656 -0.484375 C 2.316406 -0.484375 2.570312 -0.542969 2.753906 -0.660156 C 2.9375 -0.773438 3.023438 -0.929688 3.023438 -1.144531 C 3.023438 -1.34375 2.960938 -1.488281 2.824219 -1.589844 C 2.699219 -1.695312 2.410156 -1.796875 1.964844 -1.894531 L 1.71875 -1.949219 C 1.273438 -2.046875 0.953125 -2.1875 0.757812 -2.378906 C 0.558594 -2.570312 0.460938 -2.832031 0.460938 -3.175781 C 0.460938 -3.582031 0.605469 -3.898438 0.898438 -4.121094 C 1.1875 -4.34375 1.597656 -4.457031 2.132812 -4.457031 C 2.394531 -4.457031 2.648438 -4.441406 2.878906 -4.402344 C 3.113281 -4.359375 3.328125 -4.296875 3.523438 -4.226562 Z M 3.523438 -4.226562 "/>
</g>
<g id="glyph-0-8">
<path d="M 0.746094 -4.351562 L 1.464844 -4.351562 L 1.464844 0 L 0.746094 0 Z M 0.746094 -6.046875 L 1.464844 -6.046875 L 1.464844 -5.140625 L 0.746094 -5.140625 Z M 0.746094 -6.046875 "/>
</g>
<g id="glyph-0-9">
<path d="M 4.367188 -2.625 L 4.367188 0 L 3.652344 0 L 3.652344 -2.601562 C 3.652344 -3.015625 3.574219 -3.328125 3.414062 -3.523438 C 3.246094 -3.730469 3.007812 -3.835938 2.691406 -3.835938 C 2.300781 -3.835938 1.996094 -3.714844 1.773438 -3.46875 C 1.550781 -3.222656 1.441406 -2.878906 1.441406 -2.457031 L 1.441406 0 L 0.722656 0 L 0.722656 -4.351562 L 1.441406 -4.351562 L 1.441406 -3.675781 C 1.609375 -3.9375 1.8125 -4.128906 2.046875 -4.265625 C 2.277344 -4.394531 2.546875 -4.457031 2.847656 -4.457031 C 3.351562 -4.457031 3.722656 -4.296875 3.980469 -3.988281 C 4.242188 -3.675781 4.367188 -3.222656 4.367188 -2.625 Z M 4.367188 -2.625 "/>
</g>
<g id="glyph-0-10">
<path d="M 3.613281 -2.226562 C 3.613281 -2.746094 3.507812 -3.144531 3.292969 -3.429688 C 3.078125 -3.714844 2.785156 -3.859375 2.394531 -3.859375 C 2.011719 -3.859375 1.710938 -3.714844 1.496094 -3.429688 C 1.28125 -3.144531 1.175781 -2.746094 1.175781 -2.226562 C 1.175781 -1.710938 1.28125 -1.3125 1.496094 -1.027344 C 1.710938 -0.738281 2.011719 -0.597656 2.394531 -0.597656 C 2.785156 -0.597656 3.078125 -0.738281 3.292969 -1.027344 C 3.507812 -1.3125 3.613281 -1.710938 3.613281 -2.226562 Z M 4.328125 -0.542969 C 4.328125 0.199219 4.160156 0.757812 3.835938 1.113281 C 3.507812 1.472656 3 1.65625 2.324219 1.65625 C 2.078125 1.65625 1.839844 1.640625 1.617188 1.597656 C 1.390625 1.558594 1.175781 1.503906 0.960938 1.425781 L 0.960938 0.730469 C 1.175781 0.84375 1.382812 0.929688 1.582031 0.988281 C 1.789062 1.042969 1.996094 1.066406 2.210938 1.066406 C 2.683594 1.066406 3.03125 0.9375 3.261719 0.691406 C 3.492188 0.453125 3.613281 0.0859375 3.613281 -0.414062 L 3.613281 -0.765625 C 3.460938 -0.507812 3.277344 -0.316406 3.046875 -0.191406 C 2.816406 -0.0625 2.539062 0 2.21875 0 C 1.6875 0 1.257812 -0.207031 0.929688 -0.613281 C 0.605469 -1.019531 0.4375 -1.550781 0.4375 -2.226562 C 0.4375 -2.90625 0.605469 -3.4375 0.929688 -3.84375 C 1.257812 -4.25 1.6875 -4.457031 2.21875 -4.457031 C 2.539062 -4.457031 2.816406 -4.394531 3.046875 -4.265625 C 3.277344 -4.136719 3.460938 -3.945312 3.613281 -3.691406 L 3.613281 -4.351562 L 4.328125 -4.351562 Z M 4.328125 -0.542969 "/>
</g>
<g id="glyph-0-11">
<path d="M 0.746094 -6.046875 L 1.464844 -6.046875 L 1.464844 0 L 0.746094 0 Z M 0.746094 -6.046875 "/>
</g>
<g id="glyph-0-12">
<path d="M 4.472656 -2.355469 L 4.472656 -2.003906 L 1.1875 -2.003906 C 1.21875 -1.511719 1.367188 -1.136719 1.632812 -0.875 C 1.894531 -0.621094 2.269531 -0.492188 2.738281 -0.492188 C 3.015625 -0.492188 3.277344 -0.523438 3.53125 -0.597656 C 3.796875 -0.660156 4.050781 -0.765625 4.304688 -0.898438 L 4.304688 -0.222656 C 4.050781 -0.113281 3.789062 -0.03125 3.515625 0.0234375 C 3.246094 0.078125 2.976562 0.113281 2.699219 0.113281 C 2.003906 0.113281 1.449219 -0.0859375 1.042969 -0.492188 C 0.636719 -0.898438 0.4375 -1.441406 0.4375 -2.132812 C 0.4375 -2.839844 0.628906 -3.40625 1.011719 -3.828125 C 1.402344 -4.25 1.917969 -4.457031 2.570312 -4.457031 C 3.160156 -4.457031 3.621094 -4.265625 3.960938 -3.890625 C 4.304688 -3.515625 4.472656 -3 4.472656 -2.355469 Z M 3.757812 -2.5625 C 3.746094 -2.953125 3.644531 -3.269531 3.429688 -3.5 C 3.214844 -3.730469 2.9375 -3.851562 2.578125 -3.851562 C 2.179688 -3.851562 1.863281 -3.738281 1.625 -3.507812 C 1.382812 -3.285156 1.25 -2.96875 1.210938 -2.5625 Z M 3.757812 -2.5625 "/>
</g>
<g id="glyph-0-13">
<path d="M 0.390625 -2.5 L 2.484375 -2.5 L 2.484375 -1.863281 L 0.390625 -1.863281 Z M 0.390625 -2.5 "/>
</g>
<g id="glyph-0-14">
<path d="M 3.269531 -3.683594 C 3.191406 -3.730469 3.101562 -3.765625 3.007812 -3.789062 C 2.914062 -3.8125 2.808594 -3.820312 2.699219 -3.820312 C 2.292969 -3.820312 1.980469 -3.683594 1.765625 -3.421875 C 1.550781 -3.160156 1.441406 -2.785156 1.441406 -2.292969 L 1.441406 0 L 0.722656 0 L 0.722656 -4.351562 L 1.441406 -4.351562 L 1.441406 -3.675781 C 1.589844 -3.9375 1.78125 -4.136719 2.027344 -4.265625 C 2.269531 -4.394531 2.5625 -4.457031 2.90625 -4.457031 C 2.960938 -4.457031 3.015625 -4.457031 3.070312 -4.449219 C 3.128906 -4.441406 3.199219 -4.433594 3.269531 -4.417969 Z M 3.269531 -3.683594 "/>
</g>
<g id="glyph-0-15">
<path d="M 1.175781 -2.171875 C 1.175781 -1.648438 1.28125 -1.234375 1.496094 -0.929688 C 1.710938 -0.636719 2.011719 -0.484375 2.394531 -0.484375 C 2.769531 -0.484375 3.070312 -0.636719 3.285156 -0.929688 C 3.5 -1.234375 3.613281 -1.648438 3.613281 -2.171875 C 3.613281 -2.699219 3.5 -3.113281 3.285156 -3.40625 C 3.070312 -3.707031 2.769531 -3.859375 2.394531 -3.859375 C 2.011719 -3.859375 1.710938 -3.707031 1.496094 -3.40625 C 1.28125 -3.113281 1.175781 -2.699219 1.175781 -2.171875 Z M 3.613281 -0.652344 C 3.460938 -0.390625 3.269531 -0.199219 3.039062 -0.0703125 C 2.808594 0.046875 2.539062 0.113281 2.21875 0.113281 C 1.695312 0.113281 1.265625 -0.09375 0.929688 -0.515625 C 0.605469 -0.9375 0.4375 -1.488281 0.4375 -2.171875 C 0.4375 -2.855469 0.605469 -3.40625 0.929688 -3.828125 C 1.265625 -4.25 1.695312 -4.457031 2.21875 -4.457031 C 2.539062 -4.457031 2.808594 -4.394531 3.039062 -4.265625 C 3.269531 -4.144531 3.460938 -3.953125 3.613281 -3.691406 L 3.613281 -4.351562 L 4.328125 -4.351562 L 4.328125 1.65625 L 3.613281 1.65625 Z M 3.613281 -0.652344 "/>
</g>
<g id="glyph-0-16">
<path d="M 0.675781 -1.71875 L 0.675781 -4.351562 L 1.390625 -4.351562 L 1.390625 -1.742188 C 1.390625 -1.335938 1.472656 -1.027344 1.632812 -0.820312 C 1.789062 -0.613281 2.027344 -0.507812 2.355469 -0.507812 C 2.746094 -0.507812 3.046875 -0.628906 3.269531 -0.875 C 3.492188 -1.121094 3.605469 -1.464844 3.605469 -1.886719 L 3.605469 -4.351562 L 4.320312 -4.351562 L 4.320312 0 L 3.605469 0 L 3.605469 -0.667969 C 3.429688 -0.40625 3.230469 -0.207031 3 -0.078125 C 2.769531 0.046875 2.507812 0.113281 2.203125 0.113281 C 1.703125 0.113281 1.328125 -0.0390625 1.066406 -0.351562 C 0.804688 -0.660156 0.675781 -1.121094 0.675781 -1.71875 Z M 2.476562 -4.457031 Z M 2.476562 -4.457031 "/>
</g>
<g id="glyph-0-17">
<path d="M 1.457031 -5.585938 L 1.457031 -4.351562 L 2.929688 -4.351562 L 2.929688 -3.796875 L 1.457031 -3.796875 L 1.457031 -1.433594 C 1.457031 -1.074219 1.503906 -0.851562 1.597656 -0.746094 C 1.703125 -0.644531 1.902344 -0.597656 2.195312 -0.597656 L 2.929688 -0.597656 L 2.929688 0 L 2.195312 0 C 1.648438 0 1.265625 -0.101562 1.050781 -0.308594 C 0.84375 -0.515625 0.738281 -0.890625 0.738281 -1.433594 L 0.738281 -3.796875 L 0.214844 -3.796875 L 0.214844 -4.351562 L 0.738281 -4.351562 L 0.738281 -5.585938 Z M 1.457031 -5.585938 "/>
</g>
<g id="glyph-0-18">
</g>
<g id="glyph-0-19">
<path d="M 2.730469 -2.1875 C 2.148438 -2.1875 1.75 -2.125 1.527344 -1.988281 C 1.304688 -1.855469 1.195312 -1.632812 1.195312 -1.3125 C 1.195312 -1.058594 1.273438 -0.859375 1.441406 -0.707031 C 1.609375 -0.558594 1.839844 -0.484375 2.125 -0.484375 C 2.523438 -0.484375 2.839844 -0.628906 3.078125 -0.90625 C 3.316406 -1.1875 3.4375 -1.558594 3.4375 -2.027344 L 3.4375 -2.1875 Z M 4.152344 -2.484375 L 4.152344 0 L 3.4375 0 L 3.4375 -0.660156 C 3.269531 -0.398438 3.070312 -0.199219 2.824219 -0.0703125 C 2.585938 0.046875 2.292969 0.113281 1.933594 0.113281 C 1.488281 0.113281 1.128906 -0.015625 0.867188 -0.261719 C 0.605469 -0.507812 0.476562 -0.84375 0.476562 -1.265625 C 0.476562 -1.75 0.644531 -2.125 0.972656 -2.371094 C 1.296875 -2.617188 1.789062 -2.746094 2.433594 -2.746094 L 3.4375 -2.746094 L 3.4375 -2.816406 C 3.4375 -3.144531 3.328125 -3.398438 3.113281 -3.582031 C 2.898438 -3.765625 2.59375 -3.851562 2.203125 -3.851562 C 1.957031 -3.851562 1.710938 -3.820312 1.480469 -3.765625 C 1.242188 -3.699219 1.011719 -3.613281 0.796875 -3.492188 L 0.796875 -4.152344 C 1.058594 -4.257812 1.3125 -4.328125 1.558594 -4.375 C 1.804688 -4.433594 2.046875 -4.457031 2.277344 -4.457031 C 2.90625 -4.457031 3.375 -4.296875 3.683594 -3.972656 C 3.996094 -3.644531 4.152344 -3.144531 4.152344 -2.484375 Z M 4.152344 -2.484375 "/>
</g>
<g id="glyph-0-20">
<path d="M 3.882812 -4.1875 L 3.882812 -3.515625 C 3.683594 -3.628906 3.476562 -3.707031 3.269531 -3.765625 C 3.070312 -3.820312 2.863281 -3.851562 2.65625 -3.851562 C 2.195312 -3.851562 1.839844 -3.699219 1.574219 -3.40625 C 1.320312 -3.113281 1.195312 -2.707031 1.195312 -2.171875 C 1.195312 -1.640625 1.320312 -1.226562 1.574219 -0.929688 C 1.839844 -0.636719 2.195312 -0.492188 2.65625 -0.492188 C 2.863281 -0.492188 3.070312 -0.515625 3.269531 -0.574219 C 3.476562 -0.628906 3.683594 -0.714844 3.882812 -0.828125 L 3.882812 -0.167969 C 3.683594 -0.0703125 3.476562 0 3.261719 0.0390625 C 3.046875 0.0859375 2.824219 0.113281 2.578125 0.113281 C 1.925781 0.113281 1.410156 -0.09375 1.019531 -0.5 C 0.628906 -0.914062 0.4375 -1.472656 0.4375 -2.171875 C 0.4375 -2.878906 0.628906 -3.4375 1.019531 -3.84375 C 1.410156 -4.25 1.949219 -4.457031 2.625 -4.457031 C 2.847656 -4.457031 3.0625 -4.433594 3.269531 -4.382812 C 3.484375 -4.34375 3.683594 -4.273438 3.882812 -4.1875 Z M 3.882812 -4.1875 "/>
</g>
<g id="glyph-0-21">
<path d="M 2.5625 0.40625 C 2.363281 0.921875 2.164062 1.257812 1.972656 1.417969 C 1.773438 1.574219 1.519531 1.65625 1.203125 1.65625 L 0.628906 1.65625 L 0.628906 1.058594 L 1.050781 1.058594 C 1.25 1.058594 1.402344 1.011719 1.503906 0.914062 C 1.617188 0.828125 1.734375 0.605469 1.871094 0.253906 L 1.996094 -0.0703125 L 0.238281 -4.351562 L 0.996094 -4.351562 L 2.355469 -0.945312 L 3.714844 -4.351562 L 4.472656 -4.351562 Z M 2.5625 0.40625 "/>
</g>
<g id="glyph-0-22">
<path d="M 2.46875 -6.039062 C 2.125 -5.441406 1.863281 -4.855469 1.695312 -4.273438 C 1.527344 -3.691406 1.441406 -3.09375 1.441406 -2.5 C 1.441406 -1.902344 1.527344 -1.304688 1.695312 -0.714844 C 1.863281 -0.136719 2.125 0.453125 2.46875 1.050781 L 1.847656 1.050781 C 1.457031 0.4375 1.167969 -0.160156 0.972656 -0.746094 C 0.78125 -1.335938 0.683594 -1.917969 0.683594 -2.5 C 0.683594 -3.078125 0.78125 -3.660156 0.972656 -4.242188 C 1.160156 -4.832031 1.457031 -5.425781 1.847656 -6.039062 Z M 2.46875 -6.039062 "/>
</g>
<g id="glyph-0-23">
<path d="M 4.136719 -3.515625 C 4.320312 -3.835938 4.535156 -4.074219 4.78125 -4.226562 C 5.027344 -4.375 5.316406 -4.457031 5.65625 -4.457031 C 6.113281 -4.457031 6.460938 -4.296875 6.707031 -3.980469 C 6.953125 -3.660156 7.074219 -3.207031 7.074219 -2.625 L 7.074219 0 L 6.359375 0 L 6.359375 -2.601562 C 6.359375 -3.023438 6.285156 -3.335938 6.136719 -3.53125 C 5.984375 -3.730469 5.761719 -3.835938 5.457031 -3.835938 C 5.085938 -3.835938 4.796875 -3.714844 4.582031 -3.46875 C 4.367188 -3.222656 4.257812 -2.878906 4.257812 -2.457031 L 4.257812 0 L 3.542969 0 L 3.542969 -2.601562 C 3.542969 -3.023438 3.46875 -3.335938 3.316406 -3.53125 C 3.167969 -3.730469 2.945312 -3.835938 2.632812 -3.835938 C 2.269531 -3.835938 1.980469 -3.707031 1.765625 -3.460938 C 1.550781 -3.214844 1.441406 -2.878906 1.441406 -2.457031 L 1.441406 0 L 0.722656 0 L 0.722656 -4.351562 L 1.441406 -4.351562 L 1.441406 -3.675781 C 1.609375 -3.9375 1.796875 -4.136719 2.027344 -4.265625 C 2.261719 -4.394531 2.53125 -4.457031 2.839844 -4.457031 C 3.160156 -4.457031 3.429688 -4.375 3.644531 -4.21875 C 3.867188 -4.058594 4.035156 -3.828125 4.136719 -3.515625 Z M 4.136719 -3.515625 "/>
</g>
<g id="glyph-0-24">
<path d="M 0.929688 -0.988281 L 1.75 -0.988281 L 1.75 -0.316406 L 1.113281 0.921875 L 0.613281 0.921875 L 0.929688 -0.316406 Z M 0.929688 -0.988281 "/>
</g>
<g id="glyph-0-25">
<path d="M 3.875 -2.171875 C 3.875 -2.699219 3.765625 -3.113281 3.550781 -3.40625 C 3.335938 -3.707031 3.03125 -3.859375 2.65625 -3.859375 C 2.285156 -3.859375 1.980469 -3.707031 1.765625 -3.40625 C 1.550781 -3.113281 1.441406 -2.699219 1.441406 -2.171875 C 1.441406 -1.648438 1.550781 -1.234375 1.765625 -0.929688 C 1.980469 -0.636719 2.285156 -0.484375 2.65625 -0.484375 C 3.03125 -0.484375 3.335938 -0.636719 3.550781 -0.929688 C 3.765625 -1.234375 3.875 -1.648438 3.875 -2.171875 Z M 1.441406 -3.691406 C 1.589844 -3.953125 1.773438 -4.144531 2.003906 -4.265625 C 2.234375 -4.394531 2.515625 -4.457031 2.832031 -4.457031 C 3.367188 -4.457031 3.796875 -4.25 4.121094 -3.828125 C 4.449219 -3.40625 4.617188 -2.855469 4.617188 -2.171875 C 4.617188 -1.488281 4.449219 -0.9375 4.121094 -0.515625 C 3.796875 -0.09375 3.367188 0.113281 2.832031 0.113281 C 2.515625 0.113281 2.234375 0.046875 2.003906 -0.0703125 C 1.773438 -0.199219 1.589844 -0.390625 1.441406 -0.652344 L 1.441406 0 L 0.722656 0 L 0.722656 -6.046875 L 1.441406 -6.046875 Z M 1.441406 -3.691406 "/>
</g>
<g id="glyph-0-26">
<path d="M 4.367188 -2.625 L 4.367188 0 L 3.652344 0 L 3.652344 -2.601562 C 3.652344 -3.015625 3.574219 -3.328125 3.414062 -3.523438 C 3.246094 -3.730469 3.007812 -3.835938 2.691406 -3.835938 C 2.300781 -3.835938 1.996094 -3.714844 1.773438 -3.46875 C 1.550781 -3.222656 1.441406 -2.878906 1.441406 -2.457031 L 1.441406 0 L 0.722656 0 L 0.722656 -6.046875 L 1.441406 -6.046875 L 1.441406 -3.675781 C 1.609375 -3.9375 1.8125 -4.128906 2.046875 -4.265625 C 2.277344 -4.394531 2.546875 -4.457031 2.847656 -4.457031 C 3.351562 -4.457031 3.722656 -4.296875 3.980469 -3.988281 C 4.242188 -3.675781 4.367188 -3.222656 4.367188 -2.625 Z M 4.367188 -2.625 "/>
</g>
<g id="glyph-0-27">
<path d="M 0.84375 -3.613281 L 5.824219 -3.613281 L 5.824219 -2.960938 L 0.84375 -2.960938 Z M 0.84375 -2.027344 L 5.824219 -2.027344 L 5.824219 -1.367188 L 0.84375 -1.367188 Z M 0.84375 -2.027344 "/>
</g>
<g id="glyph-0-28">
<path d="M 0.636719 -6.039062 L 1.257812 -6.039062 C 1.648438 -5.425781 1.933594 -4.832031 2.132812 -4.242188 C 2.324219 -3.660156 2.417969 -3.078125 2.417969 -2.5 C 2.417969 -1.917969 2.324219 -1.335938 2.132812 -0.746094 C 1.933594 -0.160156 1.648438 0.4375 1.257812 1.050781 L 0.636719 1.050781 C 0.980469 0.453125 1.242188 -0.136719 1.410156 -0.714844 C 1.574219 -1.304688 1.664062 -1.902344 1.664062 -2.5 C 1.664062 -3.09375 1.574219 -3.691406 1.410156 -4.273438 C 1.242188 -4.855469 0.980469 -5.441406 0.636719 -6.039062 Z M 0.636719 -6.039062 "/>
</g>
<g id="glyph-0-29">
<path d="M 0.851562 -0.988281 L 1.671875 -0.988281 L 1.671875 0 L 0.851562 0 Z M 0.851562 -0.988281 "/>
</g>
<g id="glyph-0-30">
<path d="M 0.652344 -5.800781 L 4.382812 -5.800781 L 4.382812 -5.46875 L 2.277344 0 L 1.457031 0 L 3.4375 -5.140625 L 0.652344 -5.140625 Z M 0.652344 -5.800781 "/>
</g>
<g id="glyph-0-31">
<path d="M 2.53125 -2.753906 C 2.15625 -2.753906 1.863281 -2.65625 1.648438 -2.457031 C 1.433594 -2.261719 1.328125 -1.980469 1.328125 -1.632812 C 1.328125 -1.28125 1.433594 -1.011719 1.648438 -0.8125 C 1.863281 -0.613281 2.15625 -0.507812 2.53125 -0.507812 C 2.90625 -0.507812 3.199219 -0.613281 3.414062 -0.8125 C 3.628906 -1.011719 3.730469 -1.289062 3.730469 -1.632812 C 3.730469 -1.980469 3.628906 -2.261719 3.414062 -2.457031 C 3.199219 -2.65625 2.90625 -2.753906 2.53125 -2.753906 Z M 1.742188 -3.085938 C 1.410156 -3.175781 1.144531 -3.328125 0.953125 -3.558594 C 0.773438 -3.789062 0.675781 -4.074219 0.675781 -4.402344 C 0.675781 -4.871094 0.84375 -5.234375 1.167969 -5.5 C 1.496094 -5.769531 1.949219 -5.90625 2.53125 -5.90625 C 3.113281 -5.90625 3.566406 -5.769531 3.890625 -5.5 C 4.21875 -5.234375 4.382812 -4.871094 4.382812 -4.402344 C 4.382812 -4.074219 4.289062 -3.789062 4.097656 -3.558594 C 3.914062 -3.328125 3.652344 -3.175781 3.316406 -3.085938 C 3.691406 -3 3.988281 -2.832031 4.203125 -2.570312 C 4.417969 -2.316406 4.519531 -2.003906 4.519531 -1.632812 C 4.519531 -1.066406 4.34375 -0.636719 4.003906 -0.335938 C 3.660156 -0.0390625 3.167969 0.113281 2.53125 0.113281 C 1.886719 0.113281 1.390625 -0.0390625 1.050781 -0.335938 C 0.707031 -0.636719 0.542969 -1.066406 0.542969 -1.632812 C 0.542969 -2.003906 0.644531 -2.316406 0.859375 -2.570312 C 1.074219 -2.832031 1.367188 -3 1.742188 -3.085938 Z M 1.457031 -4.328125 C 1.457031 -4.027344 1.550781 -3.796875 1.734375 -3.628906 C 1.925781 -3.460938 2.1875 -3.375 2.53125 -3.375 C 2.863281 -3.375 3.128906 -3.460938 3.316406 -3.628906 C 3.507812 -3.796875 3.605469 -4.027344 3.605469 -4.328125 C 3.605469 -4.632812 3.507812 -4.863281 3.316406 -5.027344 C 3.128906 -5.195312 2.863281 -5.285156 2.53125 -5.285156 C 2.1875 -5.285156 1.925781 -5.195312 1.734375 -5.027344 C 1.550781 -4.863281 1.457031 -4.632812 1.457031 -4.328125 Z M 1.457031 -4.328125 "/>
</g>
<g id="glyph-1-0">
<path d="M -0.652344 -1.441406 L 1.65625 -1.441406 L 1.65625 -0.722656 L -4.351562 -0.722656 L -4.351562 -1.441406 L -3.691406 -1.441406 C -3.953125 -1.589844 -4.144531 -1.773438 -4.265625 -2.003906 C -4.394531 -2.234375 -4.457031 -2.515625 -4.457031 -2.832031 C -4.457031 -3.367188 -4.25 -3.796875 -3.828125 -4.121094 C -3.40625 -4.449219 -2.855469 -4.617188 -2.171875 -4.617188 C -1.488281 -4.617188 -0.9375 -4.449219 -0.515625 -4.121094 C -0.09375 -3.796875 0.113281 -3.367188 0.113281 -2.832031 C 0.113281 -2.515625 0.046875 -2.234375 -0.0703125 -2.003906 C -0.199219 -1.773438 -0.390625 -1.589844 -0.652344 -1.441406 Z M -2.171875 -3.875 C -2.699219 -3.875 -3.113281 -3.765625 -3.40625 -3.550781 C -3.707031 -3.335938 -3.859375 -3.03125 -3.859375 -2.65625 C -3.859375 -2.285156 -3.707031 -1.980469 -3.40625 -1.765625 C -3.113281 -1.550781 -2.699219 -1.441406 -2.171875 -1.441406 C -1.648438 -1.441406 -1.234375 -1.550781 -0.929688 -1.765625 C -0.636719 -1.980469 -0.484375 -2.285156 -0.484375 -2.65625 C -0.484375 -3.03125 -0.636719 -3.335938 -0.929688 -3.550781 C -1.234375 -3.765625 -1.648438 -3.875 -2.171875 -3.875 Z M -2.171875 -3.875 "/>
</g>
<g id="glyph-1-1">
<path d="M -3.851562 -2.433594 C -3.851562 -2.054688 -3.699219 -1.75 -3.398438 -1.527344 C -3.101562 -1.304688 -2.691406 -1.195312 -2.171875 -1.195312 C -1.65625 -1.195312 -1.242188 -1.304688 -0.9375 -1.519531 C -0.644531 -1.742188 -0.492188 -2.046875 -0.492188 -2.433594 C -0.492188 -2.816406 -0.644531 -3.121094 -0.945312 -3.34375 C -1.242188 -3.566406 -1.65625 -3.675781 -2.171875 -3.675781 C -2.691406 -3.675781 -3.09375 -3.566406 -3.398438 -3.34375 C -3.699219 -3.121094 -3.851562 -2.816406 -3.851562 -2.433594 Z M -4.457031 -2.433594 C -4.457031 -3.054688 -4.257812 -3.542969 -3.851562 -3.898438 C -3.445312 -4.257812 -2.886719 -4.433594 -2.171875 -4.433594 C -1.464844 -4.433594 -0.898438 -4.257812 -0.492188 -3.898438 C -0.0859375 -3.542969 0.113281 -3.054688 0.113281 -2.433594 C 0.113281 -1.804688 -0.0859375 -1.320312 -0.492188 -0.972656 C -0.898438 -0.613281 -1.464844 -0.4375 -2.171875 -0.4375 C -2.886719 -0.4375 -3.445312 -0.613281 -3.851562 -0.972656 C -4.257812 -1.320312 -4.457031 -1.804688 -4.457031 -2.433594 Z M -4.457031 -2.433594 "/>
</g>
<g id="glyph-1-2">
<path d="M -6.046875 -0.746094 L -6.046875 -1.464844 L 0 -1.464844 L 0 -0.746094 Z M -6.046875 -0.746094 "/>
</g>
<g id="glyph-1-3">
<path d="M -2.355469 -4.472656 L -2.003906 -4.472656 L -2.003906 -1.1875 C -1.511719 -1.21875 -1.136719 -1.367188 -0.875 -1.632812 C -0.621094 -1.894531 -0.492188 -2.269531 -0.492188 -2.738281 C -0.492188 -3.015625 -0.523438 -3.277344 -0.597656 -3.53125 C -0.660156 -3.796875 -0.765625 -4.050781 -0.898438 -4.304688 L -0.222656 -4.304688 C -0.113281 -4.050781 -0.03125 -3.789062 0.0234375 -3.515625 C 0.078125 -3.246094 0.113281 -2.976562 0.113281 -2.699219 C 0.113281 -2.003906 -0.0859375 -1.449219 -0.492188 -1.042969 C -0.898438 -0.636719 -1.441406 -0.4375 -2.132812 -0.4375 C -2.839844 -0.4375 -3.40625 -0.628906 -3.828125 -1.011719 C -4.25 -1.402344 -4.457031 -1.917969 -4.457031 -2.570312 C -4.457031 -3.160156 -4.265625 -3.621094 -3.890625 -3.960938 C -3.515625 -4.304688 -3 -4.472656 -2.355469 -4.472656 Z M -2.5625 -3.757812 C -2.953125 -3.746094 -3.269531 -3.644531 -3.5 -3.429688 C -3.730469 -3.214844 -3.851562 -2.9375 -3.851562 -2.578125 C -3.851562 -2.179688 -3.738281 -1.863281 -3.507812 -1.625 C -3.285156 -1.382812 -2.96875 -1.25 -2.5625 -1.210938 Z M -2.5625 -3.757812 "/>
</g>
<g id="glyph-1-4">
<path d="M -3.691406 -3.613281 L -6.046875 -3.613281 L -6.046875 -4.328125 L 0 -4.328125 L 0 -3.613281 L -0.652344 -3.613281 C -0.390625 -3.460938 -0.199219 -3.269531 -0.0703125 -3.039062 C 0.046875 -2.808594 0.113281 -2.539062 0.113281 -2.21875 C 0.113281 -1.695312 -0.09375 -1.265625 -0.515625 -0.929688 C -0.9375 -0.605469 -1.488281 -0.4375 -2.171875 -0.4375 C -2.855469 -0.4375 -3.40625 -0.605469 -3.828125 -0.929688 C -4.25 -1.265625 -4.457031 -1.695312 -4.457031 -2.21875 C -4.457031 -2.539062 -4.394531 -2.808594 -4.265625 -3.039062 C -4.144531 -3.269531 -3.953125 -3.460938 -3.691406 -3.613281 Z M -2.171875 -1.175781 C -1.648438 -1.175781 -1.234375 -1.28125 -0.929688 -1.496094 C -0.636719 -1.710938 -0.484375 -2.011719 -0.484375 -2.394531 C -0.484375 -2.769531 -0.636719 -3.070312 -0.929688 -3.285156 C -1.234375 -3.5 -1.648438 -3.613281 -2.171875 -3.613281 C -2.699219 -3.613281 -3.113281 -3.5 -3.40625 -3.285156 C -3.707031 -3.070312 -3.859375 -2.769531 -3.859375 -2.394531 C -3.859375 -2.011719 -3.707031 -1.710938 -3.40625 -1.496094 C -3.113281 -1.28125 -2.699219 -1.175781 -2.171875 -1.175781 Z M -2.171875 -1.175781 "/>
</g>
<g id="glyph-1-5">
</g>
<g id="glyph-1-6">
<path d="M -5.800781 -0.78125 L -5.800781 -4.113281 L -5.140625 -4.113281 L -5.140625 -1.566406 L -3.429688 -1.566406 L -3.429688 -3.867188 L -2.769531 -3.867188 L -2.769531 -1.566406 L 0 -1.566406 L 0 -0.78125 Z M -5.800781 -0.78125 "/>
</g>
<g id="glyph-1-7">
<path d="M -0.660156 -0.988281 L -0.660156 -2.269531 L -5.085938 -2.269531 L -4.804688 -0.875 L -5.523438 -0.875 L -5.800781 -2.261719 L -5.800781 -3.046875 L -0.660156 -3.046875 L -0.660156 -4.328125 L 0 -4.328125 L 0 -0.988281 Z M -0.660156 -0.988281 "/>
</g>
<g id="glyph-2-0">
<path d="M 3.847656 -0.671875 L 3.847656 -1.941406 L 2.804688 -1.941406 L 2.804688 -2.464844 L 4.480469 -2.464844 L 4.480469 -0.441406 C 4.234375 -0.265625 3.964844 -0.128906 3.664062 -0.0390625 C 3.367188 0.046875 3.050781 0.0898438 2.714844 0.0898438 C 1.976562 0.0898438 1.402344 -0.121094 0.984375 -0.550781 C 0.570312 -0.984375 0.363281 -1.585938 0.363281 -2.351562 C 0.363281 -3.121094 0.570312 -3.71875 0.984375 -4.152344 C 1.402344 -4.585938 1.976562 -4.796875 2.714844 -4.796875 C 3.019531 -4.796875 3.308594 -4.757812 3.589844 -4.6875 C 3.867188 -4.609375 4.125 -4.5 4.359375 -4.351562 L 4.359375 -3.671875 C 4.117188 -3.871094 3.871094 -4.023438 3.609375 -4.125 C 3.34375 -4.222656 3.058594 -4.273438 2.765625 -4.273438 C 2.191406 -4.273438 1.757812 -4.113281 1.46875 -3.789062 C 1.175781 -3.472656 1.035156 -2.992188 1.035156 -2.351562 C 1.035156 -1.714844 1.175781 -1.234375 1.46875 -0.917969 C 1.757812 -0.59375 2.191406 -0.433594 2.765625 -0.433594 C 2.992188 -0.433594 3.195312 -0.453125 3.367188 -0.492188 C 3.542969 -0.53125 3.703125 -0.589844 3.847656 -0.671875 Z M 3.847656 -0.671875 "/>
</g>
<g id="glyph-2-1">
<path d="M 0.550781 -1.398438 L 0.550781 -3.535156 L 1.132812 -3.535156 L 1.132812 -1.414062 C 1.132812 -1.085938 1.195312 -0.835938 1.324219 -0.664062 C 1.453125 -0.496094 1.648438 -0.414062 1.914062 -0.414062 C 2.230469 -0.414062 2.476562 -0.511719 2.65625 -0.710938 C 2.839844 -0.910156 2.929688 -1.191406 2.929688 -1.53125 L 2.929688 -3.535156 L 3.511719 -3.535156 L 3.511719 0 L 2.929688 0 L 2.929688 -0.542969 C 2.785156 -0.328125 2.625 -0.167969 2.4375 -0.0664062 C 2.25 0.0390625 2.035156 0.0898438 1.789062 0.0898438 C 1.382812 0.0898438 1.078125 -0.03125 0.867188 -0.285156 C 0.652344 -0.535156 0.550781 -0.910156 0.550781 -1.398438 Z M 2.011719 -3.621094 Z M 2.011719 -3.621094 "/>
</g>
<g id="glyph-2-2">
<path d="M 2.21875 -1.777344 C 1.746094 -1.777344 1.421875 -1.726562 1.242188 -1.617188 C 1.058594 -1.507812 0.96875 -1.324219 0.96875 -1.066406 C 0.96875 -0.859375 1.035156 -0.699219 1.171875 -0.574219 C 1.304688 -0.453125 1.492188 -0.394531 1.726562 -0.394531 C 2.050781 -0.394531 2.308594 -0.511719 2.503906 -0.738281 C 2.695312 -0.964844 2.792969 -1.265625 2.792969 -1.648438 L 2.792969 -1.777344 Z M 3.375 -2.015625 L 3.375 0 L 2.792969 0 L 2.792969 -0.535156 C 2.65625 -0.324219 2.496094 -0.160156 2.296875 -0.0585938 C 2.101562 0.0390625 1.863281 0.0898438 1.570312 0.0898438 C 1.210938 0.0898438 0.917969 -0.0117188 0.703125 -0.214844 C 0.492188 -0.414062 0.386719 -0.683594 0.386719 -1.027344 C 0.386719 -1.421875 0.523438 -1.726562 0.789062 -1.925781 C 1.054688 -2.128906 1.453125 -2.230469 1.976562 -2.230469 L 2.792969 -2.230469 L 2.792969 -2.289062 C 2.792969 -2.554688 2.703125 -2.761719 2.527344 -2.910156 C 2.351562 -3.058594 2.109375 -3.128906 1.789062 -3.128906 C 1.589844 -3.128906 1.390625 -3.101562 1.203125 -3.058594 C 1.007812 -3.007812 0.820312 -2.933594 0.648438 -2.839844 L 0.648438 -3.375 C 0.859375 -3.460938 1.066406 -3.515625 1.265625 -3.554688 C 1.46875 -3.601562 1.660156 -3.621094 1.847656 -3.621094 C 2.359375 -3.621094 2.742188 -3.492188 2.992188 -3.226562 C 3.246094 -2.960938 3.375 -2.554688 3.375 -2.015625 Z M 3.375 -2.015625 "/>
</g>
<g id="glyph-2-3">
<path d="M 2.65625 -2.992188 C 2.59375 -3.03125 2.523438 -3.058594 2.445312 -3.078125 C 2.367188 -3.097656 2.28125 -3.101562 2.191406 -3.101562 C 1.863281 -3.101562 1.609375 -2.992188 1.433594 -2.78125 C 1.261719 -2.566406 1.171875 -2.261719 1.171875 -1.863281 L 1.171875 0 L 0.589844 0 L 0.589844 -3.535156 L 1.171875 -3.535156 L 1.171875 -2.988281 C 1.292969 -3.199219 1.449219 -3.363281 1.648438 -3.464844 C 1.84375 -3.570312 2.082031 -3.621094 2.359375 -3.621094 C 2.40625 -3.621094 2.449219 -3.621094 2.496094 -3.613281 C 2.539062 -3.609375 2.597656 -3.601562 2.65625 -3.589844 Z M 2.65625 -2.992188 "/>
</g>
<g id="glyph-2-4">
<path d="M 2.933594 -3 L 2.933594 -4.914062 L 3.515625 -4.914062 L 3.515625 0 L 2.933594 0 L 2.933594 -0.53125 C 2.8125 -0.316406 2.65625 -0.160156 2.46875 -0.0585938 C 2.28125 0.0390625 2.0625 0.0898438 1.804688 0.0898438 C 1.378906 0.0898438 1.027344 -0.078125 0.757812 -0.421875 C 0.492188 -0.761719 0.355469 -1.210938 0.355469 -1.765625 C 0.355469 -2.320312 0.492188 -2.765625 0.757812 -3.109375 C 1.027344 -3.453125 1.378906 -3.621094 1.804688 -3.621094 C 2.0625 -3.621094 2.28125 -3.570312 2.46875 -3.464844 C 2.65625 -3.367188 2.8125 -3.214844 2.933594 -3 Z M 0.957031 -1.765625 C 0.957031 -1.339844 1.039062 -1.003906 1.214844 -0.757812 C 1.390625 -0.515625 1.636719 -0.394531 1.945312 -0.394531 C 2.25 -0.394531 2.496094 -0.515625 2.671875 -0.757812 C 2.84375 -1.003906 2.933594 -1.339844 2.933594 -1.765625 C 2.933594 -2.191406 2.84375 -2.527344 2.671875 -2.765625 C 2.496094 -3.011719 2.25 -3.136719 1.945312 -3.136719 C 1.636719 -3.136719 1.390625 -3.011719 1.214844 -2.765625 C 1.039062 -2.527344 0.957031 -2.191406 0.957031 -1.765625 Z M 0.957031 -1.765625 "/>
</g>
<g id="glyph-2-5">
<path d="M 2.054688 -4.292969 C 1.726562 -4.292969 1.480469 -4.132812 1.3125 -3.808594 C 1.152344 -3.484375 1.066406 -3 1.066406 -2.351562 C 1.066406 -1.707031 1.152344 -1.222656 1.3125 -0.898438 C 1.480469 -0.574219 1.726562 -0.414062 2.054688 -0.414062 C 2.386719 -0.414062 2.636719 -0.574219 2.800781 -0.898438 C 2.960938 -1.222656 3.046875 -1.707031 3.046875 -2.351562 C 3.046875 -3 2.960938 -3.484375 2.800781 -3.808594 C 2.636719 -4.132812 2.386719 -4.292969 2.054688 -4.292969 Z M 2.054688 -4.796875 C 2.578125 -4.796875 2.988281 -4.589844 3.265625 -4.171875 C 3.542969 -3.75 3.683594 -3.148438 3.683594 -2.351562 C 3.683594 -1.558594 3.542969 -0.957031 3.265625 -0.535156 C 2.988281 -0.117188 2.578125 0.0898438 2.054688 0.0898438 C 1.527344 0.0898438 1.117188 -0.117188 0.839844 -0.535156 C 0.5625 -0.957031 0.425781 -1.558594 0.425781 -2.351562 C 0.425781 -3.148438 0.5625 -3.75 0.839844 -4.171875 C 1.117188 -4.589844 1.527344 -4.796875 2.054688 -4.796875 Z M 2.054688 -4.796875 "/>
</g>
<g id="glyph-2-6">
<path d="M 0.691406 -0.800781 L 1.359375 -0.800781 L 1.359375 0 L 0.691406 0 Z M 0.691406 -0.800781 "/>
</g>
<g id="glyph-2-7">
<path d="M 0.53125 -4.714844 L 3.5625 -4.714844 L 3.5625 -4.441406 L 1.847656 0 L 1.183594 0 L 2.792969 -4.175781 L 0.53125 -4.175781 Z M 0.53125 -4.714844 "/>
</g>
<g id="glyph-2-8">
<path d="M 0.710938 -0.0976562 L 0.710938 -0.679688 C 0.871094 -0.601562 1.035156 -0.542969 1.195312 -0.503906 C 1.359375 -0.464844 1.519531 -0.445312 1.679688 -0.445312 C 2.101562 -0.445312 2.417969 -0.589844 2.644531 -0.867188 C 2.863281 -1.152344 2.992188 -1.585938 3.027344 -2.160156 C 2.902344 -1.976562 2.746094 -1.84375 2.558594 -1.746094 C 2.371094 -1.648438 2.164062 -1.597656 1.941406 -1.597656 C 1.46875 -1.597656 1.09375 -1.738281 0.816406 -2.023438 C 0.542969 -2.308594 0.40625 -2.695312 0.40625 -3.195312 C 0.40625 -3.679688 0.550781 -4.066406 0.835938 -4.359375 C 1.125 -4.648438 1.507812 -4.796875 1.976562 -4.796875 C 2.527344 -4.796875 2.941406 -4.589844 3.226562 -4.171875 C 3.515625 -3.75 3.660156 -3.148438 3.660156 -2.351562 C 3.660156 -1.609375 3.484375 -1.015625 3.128906 -0.570312 C 2.773438 -0.128906 2.300781 0.0898438 1.707031 0.0898438 C 1.546875 0.0898438 1.382812 0.078125 1.222656 0.046875 C 1.058594 0.0117188 0.886719 -0.03125 0.710938 -0.0976562 Z M 1.976562 -2.09375 C 2.269531 -2.09375 2.496094 -2.191406 2.65625 -2.390625 C 2.824219 -2.585938 2.910156 -2.851562 2.910156 -3.195312 C 2.910156 -3.535156 2.824219 -3.800781 2.65625 -3.996094 C 2.496094 -4.195312 2.269531 -4.292969 1.976562 -4.292969 C 1.695312 -4.292969 1.46875 -4.195312 1.300781 -3.996094 C 1.132812 -3.800781 1.046875 -3.535156 1.046875 -3.195312 C 1.046875 -2.851562 1.132812 -2.585938 1.300781 -2.390625 C 1.46875 -2.191406 1.695312 -2.09375 1.976562 -2.09375 Z M 1.976562 -2.09375 "/>
</g>
<g id="glyph-2-9">
<path d="M 2.445312 -4.15625 L 0.835938 -1.640625 L 2.445312 -1.640625 Z M 2.277344 -4.714844 L 3.078125 -4.714844 L 3.078125 -1.640625 L 3.75 -1.640625 L 3.75 -1.113281 L 3.078125 -1.113281 L 3.078125 0 L 2.445312 0 L 2.445312 -1.113281 L 0.316406 -1.113281 L 0.316406 -1.726562 Z M 2.277344 -4.714844 "/>
</g>
<g id="glyph-2-10">
</g>
<g id="glyph-2-11">
<path d="M 0.632812 -4.714844 L 3.34375 -4.714844 L 3.34375 -4.175781 L 1.273438 -4.175781 L 1.273438 -2.785156 L 3.140625 -2.785156 L 3.140625 -2.25 L 1.273438 -2.25 L 1.273438 0 L 0.632812 0 Z M 0.632812 -4.714844 "/>
</g>
<g id="glyph-2-12">
<path d="M 0.800781 -0.535156 L 1.84375 -0.535156 L 1.84375 -4.132812 L 0.710938 -3.90625 L 0.710938 -4.488281 L 1.835938 -4.714844 L 2.476562 -4.714844 L 2.476562 -0.535156 L 3.515625 -0.535156 L 3.515625 0 L 0.800781 0 Z M 0.800781 -0.535156 "/>
</g>
<g id="glyph-2-13">
<path d="M 1.640625 -4.714844 L 2.179688 -4.714844 L 0.535156 0.601562 L 0 0.601562 Z M 1.640625 -4.714844 "/>
</g>
<g id="glyph-2-14">
<path d="M 1.242188 -0.535156 L 3.464844 -0.535156 L 3.464844 0 L 0.472656 0 L 0.472656 -0.535156 C 0.710938 -0.789062 1.039062 -1.125 1.460938 -1.546875 C 1.882812 -1.964844 2.140625 -2.238281 2.25 -2.359375 C 2.457031 -2.585938 2.597656 -2.78125 2.675781 -2.941406 C 2.761719 -3.101562 2.800781 -3.257812 2.800781 -3.414062 C 2.800781 -3.664062 2.710938 -3.867188 2.535156 -4.027344 C 2.359375 -4.183594 2.132812 -4.261719 1.847656 -4.261719 C 1.648438 -4.261719 1.441406 -4.226562 1.214844 -4.15625 C 0.996094 -4.085938 0.757812 -3.984375 0.503906 -3.839844 L 0.503906 -4.488281 C 0.761719 -4.589844 1.003906 -4.667969 1.222656 -4.71875 C 1.449219 -4.773438 1.648438 -4.796875 1.835938 -4.796875 C 2.320312 -4.796875 2.714844 -4.675781 3.007812 -4.433594 C 3.296875 -4.191406 3.441406 -3.859375 3.441406 -3.453125 C 3.441406 -3.257812 3.402344 -3.078125 3.328125 -2.902344 C 3.257812 -2.726562 3.128906 -2.527344 2.933594 -2.289062 C 2.882812 -2.230469 2.714844 -2.050781 2.429688 -1.757812 C 2.152344 -1.46875 1.753906 -1.058594 1.242188 -0.535156 Z M 1.242188 -0.535156 "/>
</g>
<g id="glyph-2-15">
<path d="M 3.363281 -2.859375 C 3.511719 -3.117188 3.683594 -3.308594 3.886719 -3.433594 C 4.085938 -3.554688 4.320312 -3.621094 4.597656 -3.621094 C 4.964844 -3.621094 5.25 -3.492188 5.449219 -3.234375 C 5.652344 -2.972656 5.746094 -2.605469 5.746094 -2.132812 L 5.746094 0 L 5.164062 0 L 5.164062 -2.113281 C 5.164062 -2.457031 5.109375 -2.710938 4.984375 -2.871094 C 4.863281 -3.03125 4.679688 -3.117188 4.433594 -3.117188 C 4.132812 -3.117188 3.898438 -3.019531 3.722656 -2.820312 C 3.550781 -2.617188 3.460938 -2.339844 3.460938 -1.996094 L 3.460938 0 L 2.878906 0 L 2.878906 -2.113281 C 2.878906 -2.457031 2.820312 -2.710938 2.695312 -2.871094 C 2.574219 -3.03125 2.390625 -3.117188 2.140625 -3.117188 C 1.84375 -3.117188 1.609375 -3.011719 1.433594 -2.8125 C 1.261719 -2.613281 1.171875 -2.339844 1.171875 -1.996094 L 1.171875 0 L 0.589844 0 L 0.589844 -3.535156 L 1.171875 -3.535156 L 1.171875 -2.988281 C 1.304688 -3.199219 1.460938 -3.363281 1.648438 -3.464844 C 1.835938 -3.570312 2.054688 -3.621094 2.308594 -3.621094 C 2.566406 -3.621094 2.785156 -3.554688 2.960938 -3.425781 C 3.140625 -3.296875 3.277344 -3.109375 3.363281 -2.859375 Z M 3.363281 -2.859375 "/>
</g>
<g id="glyph-2-16">
<path d="M 2.863281 -3.433594 L 2.863281 -2.882812 C 2.703125 -2.96875 2.527344 -3.027344 2.351562 -3.070312 C 2.179688 -3.117188 1.992188 -3.136719 1.804688 -3.136719 C 1.511719 -3.136719 1.300781 -3.089844 1.152344 -3 C 1.007812 -2.914062 0.9375 -2.78125 0.9375 -2.605469 C 0.9375 -2.46875 0.988281 -2.367188 1.09375 -2.289062 C 1.195312 -2.210938 1.402344 -2.140625 1.714844 -2.070312 L 1.914062 -2.023438 C 2.328125 -1.933594 2.617188 -1.808594 2.792969 -1.648438 C 2.96875 -1.488281 3.050781 -1.265625 3.050781 -0.976562 C 3.050781 -0.648438 2.921875 -0.386719 2.664062 -0.195312 C 2.40625 -0.0078125 2.050781 0.0898438 1.589844 0.0898438 C 1.402344 0.0898438 1.203125 0.0703125 0.996094 0.03125 C 0.796875 0 0.574219 -0.0585938 0.347656 -0.128906 L 0.347656 -0.730469 C 0.5625 -0.621094 0.777344 -0.535156 0.984375 -0.476562 C 1.195312 -0.421875 1.402344 -0.394531 1.601562 -0.394531 C 1.882812 -0.394531 2.089844 -0.441406 2.238281 -0.535156 C 2.386719 -0.628906 2.457031 -0.757812 2.457031 -0.929688 C 2.457031 -1.09375 2.40625 -1.210938 2.296875 -1.292969 C 2.191406 -1.378906 1.960938 -1.460938 1.597656 -1.539062 L 1.398438 -1.585938 C 1.035156 -1.660156 0.777344 -1.777344 0.613281 -1.933594 C 0.453125 -2.089844 0.375 -2.300781 0.375 -2.578125 C 0.375 -2.910156 0.492188 -3.167969 0.730469 -3.347656 C 0.964844 -3.53125 1.300781 -3.621094 1.734375 -3.621094 C 1.945312 -3.621094 2.152344 -3.609375 2.339844 -3.574219 C 2.527344 -3.542969 2.703125 -3.492188 2.863281 -3.433594 Z M 2.863281 -3.433594 "/>
</g>
<g id="glyph-2-17">
<path d="M 2.933594 -1.808594 C 2.933594 -2.230469 2.851562 -2.554688 2.675781 -2.785156 C 2.503906 -3.019531 2.261719 -3.136719 1.945312 -3.136719 C 1.636719 -3.136719 1.390625 -3.019531 1.214844 -2.785156 C 1.039062 -2.554688 0.957031 -2.230469 0.957031 -1.808594 C 0.957031 -1.390625 1.039062 -1.066406 1.214844 -0.835938 C 1.390625 -0.601562 1.636719 -0.484375 1.945312 -0.484375 C 2.261719 -0.484375 2.503906 -0.601562 2.675781 -0.835938 C 2.851562 -1.066406 2.933594 -1.390625 2.933594 -1.808594 Z M 3.515625 -0.441406 C 3.515625 0.160156 3.382812 0.613281 3.117188 0.90625 C 2.851562 1.195312 2.4375 1.34375 1.886719 1.34375 C 1.6875 1.34375 1.492188 1.332031 1.3125 1.300781 C 1.132812 1.265625 0.957031 1.222656 0.78125 1.15625 L 0.78125 0.59375 C 0.957031 0.683594 1.125 0.757812 1.285156 0.800781 C 1.453125 0.847656 1.621094 0.867188 1.796875 0.867188 C 2.179688 0.867188 2.464844 0.761719 2.652344 0.5625 C 2.839844 0.367188 2.933594 0.0703125 2.933594 -0.335938 L 2.933594 -0.621094 C 2.8125 -0.414062 2.664062 -0.257812 2.476562 -0.15625 C 2.289062 -0.0507812 2.0625 0 1.804688 0 C 1.371094 0 1.023438 -0.167969 0.757812 -0.496094 C 0.492188 -0.828125 0.355469 -1.261719 0.355469 -1.808594 C 0.355469 -2.359375 0.492188 -2.792969 0.757812 -3.121094 C 1.023438 -3.453125 1.371094 -3.621094 1.804688 -3.621094 C 2.0625 -3.621094 2.289062 -3.570312 2.476562 -3.464844 C 2.664062 -3.363281 2.8125 -3.207031 2.933594 -3 L 2.933594 -3.535156 L 3.515625 -3.535156 Z M 3.515625 -0.441406 "/>
</g>
<g id="glyph-2-18">
<path d="M 1.171875 -0.53125 L 1.171875 1.34375 L 0.589844 1.34375 L 0.589844 -3.535156 L 1.171875 -3.535156 L 1.171875 -3 C 1.292969 -3.214844 1.441406 -3.367188 1.628906 -3.464844 C 1.816406 -3.570312 2.042969 -3.621094 2.300781 -3.621094 C 2.734375 -3.621094 3.085938 -3.453125 3.347656 -3.109375 C 3.613281 -2.765625 3.75 -2.320312 3.75 -1.765625 C 3.75 -1.210938 3.613281 -0.761719 3.347656 -0.421875 C 3.085938 -0.078125 2.734375 0.0898438 2.300781 0.0898438 C 2.042969 0.0898438 1.816406 0.0390625 1.628906 -0.0585938 C 1.441406 -0.160156 1.292969 -0.316406 1.171875 -0.53125 Z M 3.148438 -1.765625 C 3.148438 -2.191406 3.058594 -2.527344 2.882812 -2.765625 C 2.710938 -3.011719 2.464844 -3.136719 2.160156 -3.136719 C 1.855469 -3.136719 1.609375 -3.011719 1.433594 -2.765625 C 1.261719 -2.527344 1.171875 -2.191406 1.171875 -1.765625 C 1.171875 -1.339844 1.261719 -1.003906 1.433594 -0.757812 C 1.609375 -0.515625 1.855469 -0.394531 2.160156 -0.394531 C 2.464844 -0.394531 2.710938 -0.515625 2.882812 -0.757812 C 3.058594 -1.003906 3.148438 -1.339844 3.148438 -1.765625 Z M 3.148438 -1.765625 "/>
</g>
<g id="glyph-2-19">
<path d="M 1.183594 -4.539062 L 1.183594 -3.535156 L 2.378906 -3.535156 L 2.378906 -3.085938 L 1.183594 -3.085938 L 1.183594 -1.164062 C 1.183594 -0.871094 1.222656 -0.691406 1.300781 -0.609375 C 1.382812 -0.523438 1.546875 -0.484375 1.785156 -0.484375 L 2.378906 -0.484375 L 2.378906 0 L 1.785156 0 C 1.339844 0 1.027344 -0.0859375 0.851562 -0.253906 C 0.683594 -0.421875 0.601562 -0.722656 0.601562 -1.164062 L 0.601562 -3.085938 L 0.175781 -3.085938 L 0.175781 -3.535156 L 0.601562 -3.535156 L 0.601562 -4.539062 Z M 1.183594 -4.539062 "/>
</g>
<g id="glyph-2-20">
<path d="M 0.316406 -2.03125 L 2.015625 -2.03125 L 2.015625 -1.511719 L 0.316406 -1.511719 Z M 0.316406 -2.03125 "/>
</g>
<g id="glyph-2-21">
<path d="M 0.699219 -4.714844 L 3.199219 -4.714844 L 3.199219 -4.175781 L 1.28125 -4.175781 L 1.28125 -3.019531 C 1.378906 -3.050781 1.46875 -3.078125 1.558594 -3.089844 C 1.65625 -3.109375 1.746094 -3.117188 1.835938 -3.117188 C 2.359375 -3.117188 2.78125 -2.972656 3.089844 -2.683594 C 3.394531 -2.390625 3.550781 -2.003906 3.550781 -1.511719 C 3.550781 -1.003906 3.394531 -0.609375 3.078125 -0.328125 C 2.761719 -0.0507812 2.316406 0.0898438 1.738281 0.0898438 C 1.539062 0.0898438 1.339844 0.0703125 1.132812 0.0390625 C 0.929688 0.0078125 0.71875 -0.0390625 0.496094 -0.109375 L 0.496094 -0.75 C 0.683594 -0.648438 0.886719 -0.570312 1.085938 -0.523438 C 1.285156 -0.472656 1.5 -0.445312 1.726562 -0.445312 C 2.09375 -0.445312 2.378906 -0.542969 2.59375 -0.730469 C 2.804688 -0.925781 2.910156 -1.183594 2.910156 -1.511719 C 2.910156 -1.84375 2.804688 -2.101562 2.59375 -2.289062 C 2.378906 -2.484375 2.09375 -2.578125 1.726562 -2.578125 C 1.558594 -2.578125 1.390625 -2.558594 1.214844 -2.523438 C 1.046875 -2.484375 0.871094 -2.425781 0.699219 -2.347656 Z M 0.699219 -4.714844 "/>
</g>
<g id="glyph-2-22">
<path d="M 0.609375 -3.535156 L 1.191406 -3.535156 L 1.191406 0 L 0.609375 0 Z M 0.609375 -4.914062 L 1.191406 -4.914062 L 1.191406 -4.175781 L 0.609375 -4.175781 Z M 0.609375 -4.914062 "/>
</g>
<g id="glyph-2-23">
<path d="M 3.550781 -2.132812 L 3.550781 0 L 2.96875 0 L 2.96875 -2.113281 C 2.96875 -2.449219 2.902344 -2.703125 2.773438 -2.863281 C 2.636719 -3.03125 2.445312 -3.117188 2.183594 -3.117188 C 1.867188 -3.117188 1.621094 -3.019531 1.441406 -2.820312 C 1.261719 -2.617188 1.171875 -2.339844 1.171875 -1.996094 L 1.171875 0 L 0.589844 0 L 0.589844 -3.535156 L 1.171875 -3.535156 L 1.171875 -2.988281 C 1.304688 -3.199219 1.472656 -3.355469 1.660156 -3.464844 C 1.847656 -3.570312 2.070312 -3.621094 2.316406 -3.621094 C 2.722656 -3.621094 3.027344 -3.492188 3.234375 -3.238281 C 3.445312 -2.988281 3.550781 -2.617188 3.550781 -2.132812 Z M 3.550781 -2.132812 "/>
</g>
<g id="glyph-2-24">
<path d="M 2.054688 -2.238281 C 1.753906 -2.238281 1.511719 -2.160156 1.339844 -1.996094 C 1.164062 -1.835938 1.078125 -1.609375 1.078125 -1.324219 C 1.078125 -1.039062 1.164062 -0.820312 1.339844 -0.660156 C 1.511719 -0.496094 1.753906 -0.414062 2.054688 -0.414062 C 2.359375 -0.414062 2.597656 -0.496094 2.773438 -0.660156 C 2.949219 -0.820312 3.03125 -1.046875 3.03125 -1.324219 C 3.03125 -1.609375 2.949219 -1.835938 2.773438 -1.996094 C 2.597656 -2.160156 2.359375 -2.238281 2.054688 -2.238281 Z M 1.414062 -2.507812 C 1.144531 -2.578125 0.929688 -2.703125 0.777344 -2.890625 C 0.628906 -3.078125 0.550781 -3.308594 0.550781 -3.574219 C 0.550781 -3.957031 0.683594 -4.253906 0.949219 -4.46875 C 1.214844 -4.6875 1.585938 -4.796875 2.054688 -4.796875 C 2.527344 -4.796875 2.898438 -4.6875 3.160156 -4.46875 C 3.425781 -4.253906 3.5625 -3.957031 3.5625 -3.574219 C 3.5625 -3.308594 3.484375 -3.078125 3.328125 -2.890625 C 3.179688 -2.703125 2.96875 -2.578125 2.695312 -2.507812 C 3 -2.4375 3.238281 -2.300781 3.414062 -2.089844 C 3.589844 -1.882812 3.671875 -1.628906 3.671875 -1.324219 C 3.671875 -0.867188 3.53125 -0.515625 3.253906 -0.273438 C 2.972656 -0.03125 2.574219 0.0898438 2.054688 0.0898438 C 1.53125 0.0898438 1.132812 -0.03125 0.851562 -0.273438 C 0.574219 -0.515625 0.441406 -0.867188 0.441406 -1.324219 C 0.441406 -1.628906 0.523438 -1.882812 0.699219 -2.089844 C 0.871094 -2.300781 1.113281 -2.4375 1.414062 -2.507812 Z M 1.183594 -3.515625 C 1.183594 -3.273438 1.261719 -3.085938 1.410156 -2.949219 C 1.566406 -2.8125 1.777344 -2.742188 2.054688 -2.742188 C 2.328125 -2.742188 2.539062 -2.8125 2.695312 -2.949219 C 2.851562 -3.085938 2.929688 -3.273438 2.929688 -3.515625 C 2.929688 -3.761719 2.851562 -3.949219 2.695312 -4.085938 C 2.539062 -4.222656 2.328125 -4.292969 2.054688 -4.292969 C 1.777344 -4.292969 1.566406 -4.222656 1.410156 -4.085938 C 1.261719 -3.949219 1.183594 -3.761719 1.183594 -3.515625 Z M 1.183594 -3.515625 "/>
</g>
<g id="glyph-3-0">
<path d="M 1.664062 -5.480469 L 1.664062 -3.164062 L 2.714844 -3.164062 C 3.101562 -3.164062 3.398438 -3.261719 3.609375 -3.464844 C 3.820312 -3.660156 3.929688 -3.949219 3.929688 -4.320312 C 3.929688 -4.691406 3.820312 -4.980469 3.609375 -5.175781 C 3.398438 -5.378906 3.101562 -5.480469 2.714844 -5.480469 Z M 0.828125 -6.164062 L 2.714844 -6.164062 C 3.398438 -6.164062 3.921875 -6.003906 4.277344 -5.691406 C 4.632812 -5.378906 4.8125 -4.921875 4.8125 -4.320312 C 4.8125 -3.710938 4.632812 -3.253906 4.277344 -2.941406 C 3.921875 -2.628906 3.398438 -2.476562 2.714844 -2.476562 L 1.664062 -2.476562 L 1.664062 0 L 0.828125 0 Z M 0.828125 -6.164062 "/>
</g>
<g id="glyph-3-1">
<path d="M 2.898438 -2.324219 C 2.28125 -2.324219 1.859375 -2.257812 1.625 -2.113281 C 1.386719 -1.96875 1.269531 -1.734375 1.269531 -1.394531 C 1.269531 -1.125 1.351562 -0.914062 1.53125 -0.753906 C 1.707031 -0.59375 1.953125 -0.515625 2.257812 -0.515625 C 2.679688 -0.515625 3.019531 -0.667969 3.273438 -0.964844 C 3.527344 -1.261719 3.652344 -1.65625 3.652344 -2.15625 L 3.652344 -2.324219 Z M 4.414062 -2.636719 L 4.414062 0 L 3.652344 0 L 3.652344 -0.703125 C 3.476562 -0.421875 3.261719 -0.210938 3 -0.0742188 C 2.746094 0.0507812 2.433594 0.117188 2.054688 0.117188 C 1.582031 0.117188 1.199219 -0.015625 0.921875 -0.277344 C 0.640625 -0.542969 0.507812 -0.894531 0.507812 -1.34375 C 0.507812 -1.859375 0.683594 -2.257812 1.03125 -2.519531 C 1.378906 -2.78125 1.902344 -2.917969 2.585938 -2.917969 L 3.652344 -2.917969 L 3.652344 -2.992188 C 3.652344 -3.339844 3.535156 -3.609375 3.304688 -3.804688 C 3.078125 -4 2.757812 -4.09375 2.34375 -4.09375 C 2.078125 -4.09375 1.816406 -4.058594 1.574219 -4 C 1.320312 -3.929688 1.074219 -3.839844 0.84375 -3.710938 L 0.84375 -4.414062 C 1.125 -4.523438 1.394531 -4.597656 1.65625 -4.648438 C 1.917969 -4.710938 2.171875 -4.734375 2.417969 -4.734375 C 3.085938 -4.734375 3.585938 -4.566406 3.914062 -4.21875 C 4.246094 -3.871094 4.414062 -3.339844 4.414062 -2.636719 Z M 4.414062 -2.636719 "/>
</g>
<g id="glyph-3-2">
<path d="M 3.476562 -3.914062 C 3.390625 -3.964844 3.296875 -4 3.195312 -4.023438 C 3.09375 -4.050781 2.984375 -4.058594 2.867188 -4.058594 C 2.433594 -4.058594 2.105469 -3.914062 1.878906 -3.636719 C 1.648438 -3.355469 1.53125 -2.960938 1.53125 -2.433594 L 1.53125 0 L 0.769531 0 L 0.769531 -4.625 L 1.53125 -4.625 L 1.53125 -3.90625 C 1.691406 -4.183594 1.894531 -4.398438 2.15625 -4.53125 C 2.410156 -4.667969 2.722656 -4.734375 3.085938 -4.734375 C 3.144531 -4.734375 3.203125 -4.734375 3.261719 -4.726562 C 3.324219 -4.71875 3.398438 -4.710938 3.476562 -4.691406 Z M 3.476562 -3.914062 "/>
</g>
<g id="glyph-3-3">
<path d="M 4.75 -2.503906 L 4.75 -2.128906 L 1.261719 -2.128906 C 1.292969 -1.605469 1.453125 -1.210938 1.734375 -0.929688 C 2.011719 -0.660156 2.410156 -0.523438 2.910156 -0.523438 C 3.203125 -0.523438 3.484375 -0.558594 3.753906 -0.632812 C 4.03125 -0.703125 4.304688 -0.8125 4.574219 -0.957031 L 4.574219 -0.238281 C 4.304688 -0.117188 4.023438 -0.0351562 3.738281 0.0234375 C 3.449219 0.0859375 3.164062 0.117188 2.867188 0.117188 C 2.128906 0.117188 1.539062 -0.09375 1.109375 -0.523438 C 0.675781 -0.957031 0.464844 -1.53125 0.464844 -2.265625 C 0.464844 -3.019531 0.667969 -3.617188 1.074219 -4.066406 C 1.488281 -4.515625 2.039062 -4.734375 2.730469 -4.734375 C 3.355469 -4.734375 3.847656 -4.53125 4.210938 -4.132812 C 4.574219 -3.738281 4.75 -3.1875 4.75 -2.503906 Z M 3.992188 -2.722656 C 3.980469 -3.136719 3.871094 -3.476562 3.644531 -3.71875 C 3.414062 -3.964844 3.121094 -4.09375 2.738281 -4.09375 C 2.316406 -4.09375 1.976562 -3.972656 1.726562 -3.730469 C 1.472656 -3.492188 1.328125 -3.152344 1.285156 -2.722656 Z M 3.992188 -2.722656 "/>
</g>
<g id="glyph-3-4">
<path d="M 1.546875 -5.933594 L 1.546875 -4.625 L 3.113281 -4.625 L 3.113281 -4.03125 L 1.546875 -4.03125 L 1.546875 -1.523438 C 1.546875 -1.140625 1.597656 -0.90625 1.699219 -0.792969 C 1.808594 -0.683594 2.019531 -0.632812 2.332031 -0.632812 L 3.113281 -0.632812 L 3.113281 0 L 2.332031 0 C 1.75 0 1.34375 -0.109375 1.117188 -0.328125 C 0.894531 -0.550781 0.785156 -0.945312 0.785156 -1.523438 L 0.785156 -4.03125 L 0.226562 -4.03125 L 0.226562 -4.625 L 0.785156 -4.625 L 0.785156 -5.933594 Z M 1.546875 -5.933594 "/>
</g>
<g id="glyph-3-5">
<path d="M 2.585938 -4.09375 C 2.179688 -4.09375 1.859375 -3.929688 1.625 -3.609375 C 1.386719 -3.296875 1.269531 -2.859375 1.269531 -2.308594 C 1.269531 -1.757812 1.386719 -1.320312 1.613281 -0.996094 C 1.851562 -0.683594 2.171875 -0.523438 2.585938 -0.523438 C 2.992188 -0.523438 3.3125 -0.683594 3.550781 -1.007812 C 3.789062 -1.320312 3.90625 -1.757812 3.90625 -2.308594 C 3.90625 -2.859375 3.789062 -3.289062 3.550781 -3.609375 C 3.3125 -3.929688 2.992188 -4.09375 2.585938 -4.09375 Z M 2.585938 -4.734375 C 3.246094 -4.734375 3.761719 -4.523438 4.144531 -4.09375 C 4.523438 -3.660156 4.710938 -3.070312 4.710938 -2.308594 C 4.710938 -1.554688 4.523438 -0.957031 4.144531 -0.523438 C 3.761719 -0.09375 3.246094 0.117188 2.585938 0.117188 C 1.917969 0.117188 1.402344 -0.09375 1.03125 -0.523438 C 0.652344 -0.957031 0.464844 -1.554688 0.464844 -2.308594 C 0.464844 -3.070312 0.652344 -3.660156 1.03125 -4.09375 C 1.402344 -4.523438 1.917969 -4.734375 2.585938 -4.734375 Z M 2.585938 -4.734375 "/>
</g>
<g id="glyph-3-6">
<path d="M 0.988281 -1.046875 L 1.859375 -1.046875 L 1.859375 0 L 0.988281 0 Z M 0.988281 -4.371094 L 1.859375 -4.371094 L 1.859375 -3.324219 L 0.988281 -3.324219 Z M 0.988281 -4.371094 "/>
</g>
<g id="glyph-3-7">
</g>
<g id="glyph-3-8">
<path d="M 1.53125 -0.691406 L 1.53125 1.757812 L 0.769531 1.757812 L 0.769531 -4.625 L 1.53125 -4.625 L 1.53125 -3.921875 C 1.691406 -4.203125 1.886719 -4.40625 2.128906 -4.53125 C 2.375 -4.667969 2.671875 -4.734375 3.011719 -4.734375 C 3.578125 -4.734375 4.03125 -4.515625 4.378906 -4.066406 C 4.726562 -3.617188 4.902344 -3.035156 4.902344 -2.308594 C 4.902344 -1.582031 4.726562 -0.996094 4.378906 -0.550781 C 4.03125 -0.101562 3.578125 0.117188 3.011719 0.117188 C 2.671875 0.117188 2.375 0.0507812 2.128906 -0.0742188 C 1.886719 -0.210938 1.691406 -0.414062 1.53125 -0.691406 Z M 4.117188 -2.308594 C 4.117188 -2.867188 4 -3.304688 3.769531 -3.617188 C 3.542969 -3.941406 3.222656 -4.101562 2.824219 -4.101562 C 2.425781 -4.101562 2.105469 -3.941406 1.878906 -3.617188 C 1.648438 -3.304688 1.53125 -2.867188 1.53125 -2.308594 C 1.53125 -1.75 1.648438 -1.308594 1.878906 -0.988281 C 2.105469 -0.675781 2.425781 -0.515625 2.824219 -0.515625 C 3.222656 -0.515625 3.542969 -0.675781 3.769531 -0.988281 C 4 -1.308594 4.117188 -1.75 4.117188 -2.308594 Z M 4.117188 -2.308594 "/>
</g>
<g id="glyph-3-9">
<path d="M 0.792969 -4.625 L 1.554688 -4.625 L 1.554688 0 L 0.792969 0 Z M 0.792969 -6.425781 L 1.554688 -6.425781 L 1.554688 -5.460938 L 0.792969 -5.460938 Z M 0.792969 -6.425781 "/>
</g>
<g id="glyph-3-10">
<path d="M 2.722656 0.429688 C 2.511719 0.980469 2.300781 1.335938 2.097656 1.503906 C 1.886719 1.675781 1.613281 1.757812 1.277344 1.757812 L 0.667969 1.757812 L 0.667969 1.125 L 1.117188 1.125 C 1.328125 1.125 1.488281 1.074219 1.597656 0.972656 C 1.714844 0.878906 1.84375 0.640625 1.988281 0.269531 L 2.121094 -0.0742188 L 0.253906 -4.625 L 1.058594 -4.625 L 2.503906 -1.007812 L 3.949219 -4.625 L 4.75 -4.625 Z M 2.722656 0.429688 "/>
</g>
<g id="glyph-3-11">
<path d="M 0.828125 -6.164062 L 4.371094 -6.164062 L 4.371094 -5.460938 L 1.664062 -5.460938 L 1.664062 -3.644531 L 4.109375 -3.644531 L 4.109375 -2.941406 L 1.664062 -2.941406 L 1.664062 0 L 0.828125 0 Z M 0.828125 -6.164062 "/>
</g>
<g id="glyph-3-12">
<path d="M 1.046875 -0.703125 L 2.410156 -0.703125 L 2.410156 -5.402344 L 0.929688 -5.105469 L 0.929688 -5.867188 L 2.402344 -6.164062 L 3.238281 -6.164062 L 3.238281 -0.703125 L 4.597656 -0.703125 L 4.597656 0 L 1.046875 0 Z M 1.046875 -0.703125 "/>
</g>
<g id="glyph-3-13">
<path d="M 6.1875 -3.375 L 6.1875 -2.636719 C 5.902344 -2.417969 5.632812 -2.265625 5.386719 -2.171875 C 5.140625 -2.078125 4.878906 -2.027344 4.617188 -2.027344 C 4.3125 -2.027344 3.957031 -2.113281 3.558594 -2.273438 C 3.535156 -2.28125 3.507812 -2.292969 3.492188 -2.300781 C 3.476562 -2.308594 3.441406 -2.316406 3.398438 -2.332031 C 2.976562 -2.503906 2.636719 -2.585938 2.375 -2.585938 C 2.128906 -2.585938 1.894531 -2.535156 1.65625 -2.425781 C 1.421875 -2.324219 1.167969 -2.15625 0.894531 -1.925781 L 0.894531 -2.664062 C 1.183594 -2.882812 1.453125 -3.035156 1.699219 -3.128906 C 1.945312 -3.222656 2.207031 -3.273438 2.46875 -3.273438 C 2.773438 -3.273438 3.128906 -3.1875 3.527344 -3.027344 C 3.550781 -3.019531 3.578125 -3.011719 3.59375 -3 C 3.617188 -2.992188 3.644531 -2.984375 3.6875 -2.96875 C 4.109375 -2.796875 4.449219 -2.714844 4.710938 -2.714844 C 4.945312 -2.714844 5.183594 -2.765625 5.410156 -2.867188 C 5.648438 -2.976562 5.910156 -3.144531 6.1875 -3.375 Z M 6.1875 -3.375 "/>
</g>
<g id="glyph-3-14">
<path d="M 3.195312 -5.4375 L 1.089844 -2.148438 L 3.195312 -2.148438 Z M 2.976562 -6.164062 L 4.023438 -6.164062 L 4.023438 -2.148438 L 4.902344 -2.148438 L 4.902344 -1.453125 L 4.023438 -1.453125 L 4.023438 0 L 3.195312 0 L 3.195312 -1.453125 L 0.414062 -1.453125 L 0.414062 -2.257812 Z M 2.976562 -6.164062 "/>
</g>
<g id="glyph-3-15">
<path d="M 4.640625 -4.625 L 2.96875 -2.375 L 4.726562 0 L 3.832031 0 L 2.484375 -1.816406 L 1.140625 0 L 0.246094 0 L 2.039062 -2.417969 L 0.398438 -4.625 L 1.292969 -4.625 L 2.519531 -2.976562 L 3.746094 -4.625 Z M 4.640625 -4.625 "/>
</g>
<g id="glyph-3-16">
<path d="M 0.792969 -6.425781 L 1.554688 -6.425781 L 1.554688 0 L 0.792969 0 Z M 0.792969 -6.425781 "/>
</g>
<g id="glyph-3-17">
<path d="M 0.355469 -4.625 L 1.117188 -4.625 L 2.0625 -1.015625 L 3.011719 -4.625 L 3.90625 -4.625 L 4.851562 -1.015625 L 5.800781 -4.625 L 6.5625 -4.625 L 5.351562 0 L 4.457031 0 L 3.457031 -3.789062 L 2.460938 0 L 1.5625 0 Z M 0.355469 -4.625 "/>
</g>
<g id="glyph-3-18">
<path d="M 4.640625 -2.789062 L 4.640625 0 L 3.878906 0 L 3.878906 -2.765625 C 3.878906 -3.203125 3.796875 -3.535156 3.628906 -3.746094 C 3.449219 -3.964844 3.195312 -4.074219 2.859375 -4.074219 C 2.445312 -4.074219 2.121094 -3.949219 1.886719 -3.6875 C 1.648438 -3.425781 1.53125 -3.0625 1.53125 -2.613281 L 1.53125 0 L 0.769531 0 L 0.769531 -4.625 L 1.53125 -4.625 L 1.53125 -3.90625 C 1.707031 -4.183594 1.925781 -4.386719 2.171875 -4.53125 C 2.417969 -4.667969 2.707031 -4.734375 3.027344 -4.734375 C 3.558594 -4.734375 3.957031 -4.566406 4.226562 -4.234375 C 4.507812 -3.90625 4.640625 -3.425781 4.640625 -2.789062 Z M 4.640625 -2.789062 "/>
</g>
<g id="glyph-3-19">
<path d="M 4.125 -4.449219 L 4.125 -3.738281 C 3.914062 -3.855469 3.695312 -3.941406 3.476562 -4 C 3.261719 -4.058594 3.042969 -4.09375 2.824219 -4.09375 C 2.332031 -4.09375 1.953125 -3.929688 1.675781 -3.617188 C 1.402344 -3.304688 1.269531 -2.875 1.269531 -2.308594 C 1.269531 -1.742188 1.402344 -1.300781 1.675781 -0.988281 C 1.953125 -0.675781 2.332031 -0.523438 2.824219 -0.523438 C 3.042969 -0.523438 3.261719 -0.550781 3.476562 -0.609375 C 3.695312 -0.667969 3.914062 -0.761719 4.125 -0.878906 L 4.125 -0.175781 C 3.914062 -0.0742188 3.695312 0 3.464844 0.0429688 C 3.238281 0.09375 3 0.117188 2.738281 0.117188 C 2.046875 0.117188 1.496094 -0.101562 1.082031 -0.53125 C 0.667969 -0.972656 0.464844 -1.5625 0.464844 -2.308594 C 0.464844 -3.0625 0.667969 -3.652344 1.082031 -4.082031 C 1.496094 -4.515625 2.070312 -4.734375 2.789062 -4.734375 C 3.027344 -4.734375 3.253906 -4.710938 3.476562 -4.660156 C 3.703125 -4.617188 3.914062 -4.539062 4.125 -4.449219 Z M 4.125 -4.449219 "/>
</g>
<g id="glyph-3-20">
<path d="M 0.988281 -1.046875 L 1.859375 -1.046875 L 1.859375 -0.339844 L 1.183594 0.980469 L 0.652344 0.980469 L 0.988281 -0.339844 Z M 0.988281 -1.046875 "/>
</g>
</g>
<clipPath id="clip-0">
<path clip-rule="nonzero" d="M 0.292969 0 L 234.378906 0 L 234.378906 176.117188 L 0.292969 176.117188 Z M 0.292969 0 "/>
</clipPath>
<clipPath id="clip-1">
<path clip-rule="nonzero" d="M 49.152344 141 L 219.285156 141 L 219.285156 142.097656 L 49.152344 142.097656 Z M 49.152344 141 "/>
</clipPath>
<clipPath id="clip-2">
<path clip-rule="nonzero" d="M 49.152344 122 L 219.285156 122 L 219.285156 124 L 49.152344 124 Z M 49.152344 122 "/>
</clipPath>
<clipPath id="clip-3">
<path clip-rule="nonzero" d="M 49.152344 103 L 219.285156 103 L 219.285156 105 L 49.152344 105 Z M 49.152344 103 "/>
</clipPath>
<clipPath id="clip-4">
<path clip-rule="nonzero" d="M 49.152344 84 L 219.285156 84 L 219.285156 86 L 49.152344 86 Z M 49.152344 84 "/>
</clipPath>
<clipPath id="clip-5">
<path clip-rule="nonzero" d="M 49.152344 65 L 219.285156 65 L 219.285156 66 L 49.152344 66 Z M 49.152344 65 "/>
</clipPath>
<clipPath id="clip-6">
<path clip-rule="nonzero" d="M 49.152344 45 L 219.285156 45 L 219.285156 47 L 49.152344 47 Z M 49.152344 45 "/>
</clipPath>
<clipPath id="clip-7">
<path clip-rule="nonzero" d="M 49.152344 26 L 219.285156 26 L 219.285156 28 L 49.152344 28 Z M 49.152344 26 "/>
</clipPath>
</defs>
<g clip-path="url(#clip-0)">
<path fill-rule="nonzero" fill="rgb(100%, 100%, 100%)" fill-opacity="1" d="M 0.292969 176.117188 L 234.378906 176.117188 L 234.378906 0 L 0.292969 0 Z M 0.292969 176.117188 "/>
</g>
<path fill-rule="nonzero" fill="rgb(100%, 100%, 100%)" fill-opacity="1" d="M 49.152344 142.097656 L 219.285156 142.097656 L 219.285156 19.554688 L 49.152344 19.554688 Z M 49.152344 142.097656 "/>
<path fill="none" stroke-width="0.8" stroke-linecap="butt" stroke-linejoin="round" stroke="rgb(39.99939%, 39.99939%, 39.99939%)" stroke-opacity="1" stroke-miterlimit="10" d="M 49.120539 34.200969 L 49.120539 30.701946 " transform="matrix(0.994697, 0, 0, -0.994697, 0.292272, 176.117271)"/>
<g fill="rgb(39.99939%, 39.99939%, 39.99939%)" fill-opacity="1">
<use xlink:href="#glyph-0-0" x="46.620302" y="155.107397"/>
</g>
<path fill="none" stroke-width="0.8" stroke-linecap="butt" stroke-linejoin="round" stroke="rgb(39.99939%, 39.99939%, 39.99939%)" stroke-opacity="1" stroke-miterlimit="10" d="M 77.627168 34.200969 L 77.627168 30.701946 " transform="matrix(0.994697, 0, 0, -0.994697, 0.292272, 176.117271)"/>
<g fill="rgb(39.99939%, 39.99939%, 39.99939%)" fill-opacity="1">
<use xlink:href="#glyph-0-1" x="69.908758" y="155.107397"/>
</g>
<g fill="rgb(39.99939%, 39.99939%, 39.99939%)" fill-opacity="1">
<use xlink:href="#glyph-0-0" x="74.973664" y="155.107397"/>
</g>
<g fill="rgb(39.99939%, 39.99939%, 39.99939%)" fill-opacity="1">
<use xlink:href="#glyph-0-0" x="80.03857" y="155.107397"/>
</g>
<path fill="none" stroke-width="0.8" stroke-linecap="butt" stroke-linejoin="round" stroke="rgb(39.99939%, 39.99939%, 39.99939%)" stroke-opacity="1" stroke-miterlimit="10" d="M 106.133797 34.200969 L 106.133797 30.701946 " transform="matrix(0.994697, 0, 0, -0.994697, 0.292272, 176.117271)"/>
<g fill="rgb(39.99939%, 39.99939%, 39.99939%)" fill-opacity="1">
<use xlink:href="#glyph-0-2" x="98.263954" y="155.107397"/>
</g>
<g fill="rgb(39.99939%, 39.99939%, 39.99939%)" fill-opacity="1">
<use xlink:href="#glyph-0-0" x="103.32886" y="155.107397"/>
</g>
<g fill="rgb(39.99939%, 39.99939%, 39.99939%)" fill-opacity="1">
<use xlink:href="#glyph-0-0" x="108.393766" y="155.107397"/>
</g>
<path fill="none" stroke-width="0.8" stroke-linecap="butt" stroke-linejoin="round" stroke="rgb(39.99939%, 39.99939%, 39.99939%)" stroke-opacity="1" stroke-miterlimit="10" d="M 134.640425 34.200969 L 134.640425 30.701946 " transform="matrix(0.994697, 0, 0, -0.994697, 0.292272, 176.117271)"/>
<g fill="rgb(39.99939%, 39.99939%, 39.99939%)" fill-opacity="1">
<use xlink:href="#glyph-0-3" x="126.61915" y="155.107397"/>
</g>
<g fill="rgb(39.99939%, 39.99939%, 39.99939%)" fill-opacity="1">
<use xlink:href="#glyph-0-0" x="131.684056" y="155.107397"/>
</g>
<g fill="rgb(39.99939%, 39.99939%, 39.99939%)" fill-opacity="1">
<use xlink:href="#glyph-0-0" x="136.748961" y="155.107397"/>
</g>
<path fill="none" stroke-width="0.8" stroke-linecap="butt" stroke-linejoin="round" stroke="rgb(39.99939%, 39.99939%, 39.99939%)" stroke-opacity="1" stroke-miterlimit="10" d="M 163.147054 34.200969 L 163.147054 30.701946 " transform="matrix(0.994697, 0, 0, -0.994697, 0.292272, 176.117271)"/>
<g fill="rgb(39.99939%, 39.99939%, 39.99939%)" fill-opacity="1">
<use xlink:href="#glyph-0-4" x="154.974345" y="155.107397"/>
</g>
<g fill="rgb(39.99939%, 39.99939%, 39.99939%)" fill-opacity="1">
<use xlink:href="#glyph-0-0" x="160.039251" y="155.107397"/>
</g>
<g fill="rgb(39.99939%, 39.99939%, 39.99939%)" fill-opacity="1">
<use xlink:href="#glyph-0-0" x="165.104157" y="155.107397"/>
</g>
<path fill="none" stroke-width="0.8" stroke-linecap="butt" stroke-linejoin="round" stroke="rgb(39.99939%, 39.99939%, 39.99939%)" stroke-opacity="1" stroke-miterlimit="10" d="M 191.653683 34.200969 L 191.653683 30.701946 " transform="matrix(0.994697, 0, 0, -0.994697, 0.292272, 176.117271)"/>
<g fill="rgb(39.99939%, 39.99939%, 39.99939%)" fill-opacity="1">
<use xlink:href="#glyph-0-5" x="183.329541" y="155.107397"/>
</g>
<g fill="rgb(39.99939%, 39.99939%, 39.99939%)" fill-opacity="1">
<use xlink:href="#glyph-0-0" x="188.394447" y="155.107397"/>
</g>
<g fill="rgb(39.99939%, 39.99939%, 39.99939%)" fill-opacity="1">
<use xlink:href="#glyph-0-0" x="193.459353" y="155.107397"/>
</g>
<path fill="none" stroke-width="0.8" stroke-linecap="butt" stroke-linejoin="round" stroke="rgb(39.99939%, 39.99939%, 39.99939%)" stroke-opacity="1" stroke-miterlimit="10" d="M 220.160312 34.200969 L 220.160312 30.701946 " transform="matrix(0.994697, 0, 0, -0.994697, 0.292272, 176.117271)"/>
<g fill="rgb(39.99939%, 39.99939%, 39.99939%)" fill-opacity="1">
<use xlink:href="#glyph-0-6" x="211.684737" y="155.107397"/>
</g>
<g fill="rgb(39.99939%, 39.99939%, 39.99939%)" fill-opacity="1">
<use xlink:href="#glyph-0-0" x="216.749643" y="155.107397"/>
</g>
<g fill="rgb(39.99939%, 39.99939%, 39.99939%)" fill-opacity="1">
<use xlink:href="#glyph-0-0" x="221.814548" y="155.107397"/>
</g>
<g fill="rgb(13.33313%, 13.33313%, 13.33313%)" fill-opacity="1">
<use xlink:href="#glyph-0-7" x="59.997739" y="167.043765"/>
</g>
<g fill="rgb(13.33313%, 13.33313%, 13.33313%)" fill-opacity="1">
<use xlink:href="#glyph-0-8" x="64.147523" y="167.043765"/>
</g>
<g fill="rgb(13.33313%, 13.33313%, 13.33313%)" fill-opacity="1">
<use xlink:href="#glyph-0-9" x="66.355844" y="167.043765"/>
</g>
<g fill="rgb(13.33313%, 13.33313%, 13.33313%)" fill-opacity="1">
<use xlink:href="#glyph-0-10" x="71.408721" y="167.043765"/>
<use xlink:href="#glyph-0-11" x="76.461783" y="167.043765"/>
</g>
<g fill="rgb(13.33313%, 13.33313%, 13.33313%)" fill-opacity="1">
<use xlink:href="#glyph-0-12" x="78.670105" y="167.043765"/>
<use xlink:href="#glyph-0-13" x="83.564016" y="167.043765"/>
</g>
<g fill="rgb(13.33313%, 13.33313%, 13.33313%)" fill-opacity="1">
<use xlink:href="#glyph-0-14" x="86.440587" y="167.043765"/>
</g>
<g fill="rgb(13.33313%, 13.33313%, 13.33313%)" fill-opacity="1">
<use xlink:href="#glyph-0-12" x="89.54796" y="167.043765"/>
<use xlink:href="#glyph-0-15" x="94.441871" y="167.043765"/>
<use xlink:href="#glyph-0-16" x="99.494933" y="167.043765"/>
</g>
<g fill="rgb(13.33313%, 13.33313%, 13.33313%)" fill-opacity="1">
<use xlink:href="#glyph-0-12" x="104.54781" y="167.043765"/>
<use xlink:href="#glyph-0-7" x="109.441721" y="167.043765"/>
</g>
<g fill="rgb(13.33313%, 13.33313%, 13.33313%)" fill-opacity="1">
<use xlink:href="#glyph-0-17" x="113.591505" y="167.043765"/>
</g>
<g fill="rgb(13.33313%, 13.33313%, 13.33313%)" fill-opacity="1">
<use xlink:href="#glyph-0-18" x="116.714761" y="167.043765"/>
</g>
<g fill="rgb(13.33313%, 13.33313%, 13.33313%)" fill-opacity="1">
<use xlink:href="#glyph-0-11" x="119.249157" y="167.043765"/>
</g>
<g fill="rgb(13.33313%, 13.33313%, 13.33313%)" fill-opacity="1">
<use xlink:href="#glyph-0-19" x="121.457479" y="167.043765"/>
</g>
<g fill="rgb(13.33313%, 13.33313%, 13.33313%)" fill-opacity="1">
<use xlink:href="#glyph-0-17" x="126.33936" y="167.043765"/>
</g>
<g fill="rgb(13.33313%, 13.33313%, 13.33313%)" fill-opacity="1">
<use xlink:href="#glyph-0-12" x="129.462617" y="167.043765"/>
<use xlink:href="#glyph-0-9" x="134.356528" y="167.043765"/>
</g>
<g fill="rgb(13.33313%, 13.33313%, 13.33313%)" fill-opacity="1">
<use xlink:href="#glyph-0-20" x="139.409404" y="167.043765"/>
</g>
<g fill="rgb(13.33313%, 13.33313%, 13.33313%)" fill-opacity="1">
<use xlink:href="#glyph-0-21" x="143.793843" y="167.043765"/>
<use xlink:href="#glyph-0-18" x="148.50473" y="167.043765"/>
</g>
<g fill="rgb(13.33313%, 13.33313%, 13.33313%)" fill-opacity="1">
<use xlink:href="#glyph-0-22" x="151.039126" y="167.043765"/>
</g>
<g fill="rgb(13.33313%, 13.33313%, 13.33313%)" fill-opacity="1">
<use xlink:href="#glyph-0-23" x="154.146467" y="167.043765"/>
</g>
<g fill="rgb(13.33313%, 13.33313%, 13.33313%)" fill-opacity="1">
<use xlink:href="#glyph-0-7" x="161.901035" y="167.043765"/>
</g>
<g fill="rgb(13.33313%, 13.33313%, 13.33313%)" fill-opacity="1">
<use xlink:href="#glyph-0-24" x="166.050819" y="167.043765"/>
</g>
<g fill="rgb(13.33313%, 13.33313%, 13.33313%)" fill-opacity="1">
<use xlink:href="#glyph-0-18" x="168.585214" y="167.043765"/>
</g>
<g fill="rgb(13.33313%, 13.33313%, 13.33313%)" fill-opacity="1">
<use xlink:href="#glyph-0-25" x="171.11961" y="167.043765"/>
<use xlink:href="#glyph-0-19" x="176.172673" y="167.043765"/>
</g>
<g fill="rgb(13.33313%, 13.33313%, 13.33313%)" fill-opacity="1">
<use xlink:href="#glyph-0-17" x="181.054554" y="167.043765"/>
</g>
<g fill="rgb(13.33313%, 13.33313%, 13.33313%)" fill-opacity="1">
<use xlink:href="#glyph-0-20" x="184.177811" y="167.043765"/>
</g>
<g fill="rgb(13.33313%, 13.33313%, 13.33313%)" fill-opacity="1">
<use xlink:href="#glyph-0-26" x="188.56225" y="167.043765"/>
</g>
<g fill="rgb(13.33313%, 13.33313%, 13.33313%)" fill-opacity="1">
<use xlink:href="#glyph-0-27" x="193.615126" y="167.043765"/>
<use xlink:href="#glyph-0-1" x="200.283578" y="167.043765"/>
</g>
<g fill="rgb(13.33313%, 13.33313%, 13.33313%)" fill-opacity="1">
<use xlink:href="#glyph-0-28" x="205.348483" y="167.043765"/>
</g>
<g clip-path="url(#clip-1)">
<path fill="none" stroke-width="0.6" stroke-linecap="square" stroke-linejoin="round" stroke="rgb(86.665344%, 86.665344%, 86.665344%)" stroke-opacity="1" stroke-miterlimit="10" d="M 49.120539 34.200969 L 220.160312 34.200969 " transform="matrix(0.994697, 0, 0, -0.994697, 0.292272, 176.117271)"/>
</g>
<path fill="none" stroke-width="0.8" stroke-linecap="butt" stroke-linejoin="round" stroke="rgb(39.99939%, 39.99939%, 39.99939%)" stroke-opacity="1" stroke-miterlimit="10" d="M 49.120539 34.200969 L 45.621517 34.200969 " transform="matrix(0.994697, 0, 0, -0.994697, 0.292272, 176.117271)"/>
<g fill="rgb(39.99939%, 39.99939%, 39.99939%)" fill-opacity="1">
<use xlink:href="#glyph-0-0" x="19.390462" y="145.121568"/>
</g>
<g fill="rgb(39.99939%, 39.99939%, 39.99939%)" fill-opacity="1">
<use xlink:href="#glyph-0-29" x="24.455368" y="145.121568"/>
</g>
<g fill="rgb(39.99939%, 39.99939%, 39.99939%)" fill-opacity="1">
<use xlink:href="#glyph-0-30" x="26.989763" y="145.121568"/>
</g>
<g fill="rgb(39.99939%, 39.99939%, 39.99939%)" fill-opacity="1">
<use xlink:href="#glyph-0-0" x="32.054669" y="145.121568"/>
</g>
<g fill="rgb(39.99939%, 39.99939%, 39.99939%)" fill-opacity="1">
<use xlink:href="#glyph-0-0" x="37.119575" y="145.121568"/>
</g>
<g clip-path="url(#clip-2)">
<path fill="none" stroke-width="0.6" stroke-linecap="square" stroke-linejoin="round" stroke="rgb(86.665344%, 86.665344%, 86.665344%)" stroke-opacity="1" stroke-miterlimit="10" d="M 49.120539 53.451485 L 220.160312 53.451485 " transform="matrix(0.994697, 0, 0, -0.994697, 0.292272, 176.117271)"/>
</g>
<path fill="none" stroke-width="0.8" stroke-linecap="butt" stroke-linejoin="round" stroke="rgb(39.99939%, 39.99939%, 39.99939%)" stroke-opacity="1" stroke-miterlimit="10" d="M 49.120539 53.451485 L 45.621517 53.451485 " transform="matrix(0.994697, 0, 0, -0.994697, 0.292272, 176.117271)"/>
<g fill="rgb(39.99939%, 39.99939%, 39.99939%)" fill-opacity="1">
<use xlink:href="#glyph-0-0" x="19.390462" y="125.973935"/>
</g>
<g fill="rgb(39.99939%, 39.99939%, 39.99939%)" fill-opacity="1">
<use xlink:href="#glyph-0-29" x="24.455368" y="125.973935"/>
</g>
<g fill="rgb(39.99939%, 39.99939%, 39.99939%)" fill-opacity="1">
<use xlink:href="#glyph-0-30" x="26.989763" y="125.973935"/>
</g>
<g fill="rgb(39.99939%, 39.99939%, 39.99939%)" fill-opacity="1">
<use xlink:href="#glyph-0-2" x="32.054669" y="125.973935"/>
</g>
<g fill="rgb(39.99939%, 39.99939%, 39.99939%)" fill-opacity="1">
<use xlink:href="#glyph-0-5" x="37.119575" y="125.973935"/>
</g>
<g clip-path="url(#clip-3)">
<path fill="none" stroke-width="0.6" stroke-linecap="square" stroke-linejoin="round" stroke="rgb(86.665344%, 86.665344%, 86.665344%)" stroke-opacity="1" stroke-miterlimit="10" d="M 49.120539 72.698074 L 220.160312 72.698074 " transform="matrix(0.994697, 0, 0, -0.994697, 0.292272, 176.117271)"/>
</g>
<path fill="none" stroke-width="0.8" stroke-linecap="butt" stroke-linejoin="round" stroke="rgb(39.99939%, 39.99939%, 39.99939%)" stroke-opacity="1" stroke-miterlimit="10" d="M 49.120539 72.698074 L 45.621517 72.698074 " transform="matrix(0.994697, 0, 0, -0.994697, 0.292272, 176.117271)"/>
<g fill="rgb(39.99939%, 39.99939%, 39.99939%)" fill-opacity="1">
<use xlink:href="#glyph-0-0" x="19.390462" y="106.826302"/>
</g>
<g fill="rgb(39.99939%, 39.99939%, 39.99939%)" fill-opacity="1">
<use xlink:href="#glyph-0-29" x="24.455368" y="106.826302"/>
</g>
<g fill="rgb(39.99939%, 39.99939%, 39.99939%)" fill-opacity="1">
<use xlink:href="#glyph-0-30" x="26.989763" y="106.826302"/>
</g>
<g fill="rgb(39.99939%, 39.99939%, 39.99939%)" fill-opacity="1">
<use xlink:href="#glyph-0-5" x="32.054669" y="106.826302"/>
</g>
<g fill="rgb(39.99939%, 39.99939%, 39.99939%)" fill-opacity="1">
<use xlink:href="#glyph-0-0" x="37.119575" y="106.826302"/>
</g>
<g clip-path="url(#clip-4)">
<path fill="none" stroke-width="0.6" stroke-linecap="square" stroke-linejoin="round" stroke="rgb(86.665344%, 86.665344%, 86.665344%)" stroke-opacity="1" stroke-miterlimit="10" d="M 49.120539 91.948589 L 220.160312 91.948589 " transform="matrix(0.994697, 0, 0, -0.994697, 0.292272, 176.117271)"/>
</g>
<path fill="none" stroke-width="0.8" stroke-linecap="butt" stroke-linejoin="round" stroke="rgb(39.99939%, 39.99939%, 39.99939%)" stroke-opacity="1" stroke-miterlimit="10" d="M 49.120539 91.948589 L 45.621517 91.948589 " transform="matrix(0.994697, 0, 0, -0.994697, 0.292272, 176.117271)"/>
<g fill="rgb(39.99939%, 39.99939%, 39.99939%)" fill-opacity="1">
<use xlink:href="#glyph-0-0" x="19.390462" y="87.678669"/>
</g>
<g fill="rgb(39.99939%, 39.99939%, 39.99939%)" fill-opacity="1">
<use xlink:href="#glyph-0-29" x="24.455368" y="87.678669"/>
</g>
<g fill="rgb(39.99939%, 39.99939%, 39.99939%)" fill-opacity="1">
<use xlink:href="#glyph-0-30" x="26.989763" y="87.678669"/>
</g>
<g fill="rgb(39.99939%, 39.99939%, 39.99939%)" fill-opacity="1">
<use xlink:href="#glyph-0-30" x="32.054669" y="87.678669"/>
</g>
<g fill="rgb(39.99939%, 39.99939%, 39.99939%)" fill-opacity="1">
<use xlink:href="#glyph-0-5" x="37.119575" y="87.678669"/>
</g>
<g clip-path="url(#clip-5)">
<path fill="none" stroke-width="0.6" stroke-linecap="square" stroke-linejoin="round" stroke="rgb(86.665344%, 86.665344%, 86.665344%)" stroke-opacity="1" stroke-miterlimit="10" d="M 49.120539 111.199105 L 220.160312 111.199105 " transform="matrix(0.994697, 0, 0, -0.994697, 0.292272, 176.117271)"/>
</g>
<path fill="none" stroke-width="0.8" stroke-linecap="butt" stroke-linejoin="round" stroke="rgb(39.99939%, 39.99939%, 39.99939%)" stroke-opacity="1" stroke-miterlimit="10" d="M 49.120539 111.199105 L 45.621517 111.199105 " transform="matrix(0.994697, 0, 0, -0.994697, 0.292272, 176.117271)"/>
<g fill="rgb(39.99939%, 39.99939%, 39.99939%)" fill-opacity="1">
<use xlink:href="#glyph-0-0" x="19.390462" y="68.531036"/>
</g>
<g fill="rgb(39.99939%, 39.99939%, 39.99939%)" fill-opacity="1">
<use xlink:href="#glyph-0-29" x="24.455368" y="68.531036"/>
</g>
<g fill="rgb(39.99939%, 39.99939%, 39.99939%)" fill-opacity="1">
<use xlink:href="#glyph-0-31" x="26.989763" y="68.531036"/>
</g>
<g fill="rgb(39.99939%, 39.99939%, 39.99939%)" fill-opacity="1">
<use xlink:href="#glyph-0-0" x="32.054669" y="68.531036"/>
</g>
<g fill="rgb(39.99939%, 39.99939%, 39.99939%)" fill-opacity="1">
<use xlink:href="#glyph-0-0" x="37.119575" y="68.531036"/>
</g>
<g clip-path="url(#clip-6)">
<path fill="none" stroke-width="0.6" stroke-linecap="square" stroke-linejoin="round" stroke="rgb(86.665344%, 86.665344%, 86.665344%)" stroke-opacity="1" stroke-miterlimit="10" d="M 49.120539 130.449621 L 220.160312 130.449621 " transform="matrix(0.994697, 0, 0, -0.994697, 0.292272, 176.117271)"/>
</g>
<path fill="none" stroke-width="0.8" stroke-linecap="butt" stroke-linejoin="round" stroke="rgb(39.99939%, 39.99939%, 39.99939%)" stroke-opacity="1" stroke-miterlimit="10" d="M 49.120539 130.449621 L 45.621517 130.449621 " transform="matrix(0.994697, 0, 0, -0.994697, 0.292272, 176.117271)"/>
<g fill="rgb(39.99939%, 39.99939%, 39.99939%)" fill-opacity="1">
<use xlink:href="#glyph-0-0" x="19.390462" y="49.383403"/>
</g>
<g fill="rgb(39.99939%, 39.99939%, 39.99939%)" fill-opacity="1">
<use xlink:href="#glyph-0-29" x="24.455368" y="49.383403"/>
</g>
<g fill="rgb(39.99939%, 39.99939%, 39.99939%)" fill-opacity="1">
<use xlink:href="#glyph-0-31" x="26.989763" y="49.383403"/>
</g>
<g fill="rgb(39.99939%, 39.99939%, 39.99939%)" fill-opacity="1">
<use xlink:href="#glyph-0-2" x="32.054669" y="49.383403"/>
</g>
<g fill="rgb(39.99939%, 39.99939%, 39.99939%)" fill-opacity="1">
<use xlink:href="#glyph-0-5" x="37.119575" y="49.383403"/>
</g>
<g clip-path="url(#clip-7)">
<path fill="none" stroke-width="0.6" stroke-linecap="square" stroke-linejoin="round" stroke="rgb(86.665344%, 86.665344%, 86.665344%)" stroke-opacity="1" stroke-miterlimit="10" d="M 49.120539 149.700137 L 220.160312 149.700137 " transform="matrix(0.994697, 0, 0, -0.994697, 0.292272, 176.117271)"/>
</g>
<path fill="none" stroke-width="0.8" stroke-linecap="butt" stroke-linejoin="round" stroke="rgb(39.99939%, 39.99939%, 39.99939%)" stroke-opacity="1" stroke-miterlimit="10" d="M 49.120539 149.700137 L 45.621517 149.700137 " transform="matrix(0.994697, 0, 0, -0.994697, 0.292272, 176.117271)"/>
<g fill="rgb(39.99939%, 39.99939%, 39.99939%)" fill-opacity="1">
<use xlink:href="#glyph-0-0" x="19.390462" y="30.235769"/>
</g>
<g fill="rgb(39.99939%, 39.99939%, 39.99939%)" fill-opacity="1">
<use xlink:href="#glyph-0-29" x="24.455368" y="30.235769"/>
</g>
<g fill="rgb(39.99939%, 39.99939%, 39.99939%)" fill-opacity="1">
<use xlink:href="#glyph-0-31" x="26.989763" y="30.235769"/>
</g>
<g fill="rgb(39.99939%, 39.99939%, 39.99939%)" fill-opacity="1">
<use xlink:href="#glyph-0-5" x="32.054669" y="30.235769"/>
</g>
<g fill="rgb(39.99939%, 39.99939%, 39.99939%)" fill-opacity="1">
<use xlink:href="#glyph-0-0" x="37.119575" y="30.235769"/>
</g>
<g fill="rgb(13.33313%, 13.33313%, 13.33313%)" fill-opacity="1">
<use xlink:href="#glyph-1-0" x="13.499988" y="100.385986"/>
<use xlink:href="#glyph-1-1" x="13.499988" y="95.332923"/>
</g>
<g fill="rgb(13.33313%, 13.33313%, 13.33313%)" fill-opacity="1">
<use xlink:href="#glyph-1-1" x="13.499988" y="90.46677"/>
</g>
<g fill="rgb(13.33313%, 13.33313%, 13.33313%)" fill-opacity="1">
<use xlink:href="#glyph-1-2" x="13.499988" y="85.600618"/>
</g>
<g fill="rgb(13.33313%, 13.33313%, 13.33313%)" fill-opacity="1">
<use xlink:href="#glyph-1-3" x="13.499988" y="83.392296"/>
<use xlink:href="#glyph-1-4" x="13.499988" y="78.498385"/>
<use xlink:href="#glyph-1-5" x="13.499988" y="73.445322"/>
</g>
<g fill="rgb(13.33313%, 13.33313%, 13.33313%)" fill-opacity="1">
<use xlink:href="#glyph-1-6" x="13.499988" y="70.910927"/>
</g>
<g fill="rgb(13.33313%, 13.33313%, 13.33313%)" fill-opacity="1">
<use xlink:href="#glyph-1-7" x="13.499988" y="66.327548"/>
</g>
<path fill="none" stroke-width="0.8" stroke-linecap="square" stroke-linejoin="miter" stroke="rgb(39.99939%, 39.99939%, 39.99939%)" stroke-opacity="1" stroke-miterlimit="10" d="M 49.120539 34.200969 L 49.120539 157.397201 " transform="matrix(0.994697, 0, 0, -0.994697, 0.292272, 176.117271)"/>
<path fill="none" stroke-width="0.8" stroke-linecap="square" stroke-linejoin="miter" stroke="rgb(39.99939%, 39.99939%, 39.99939%)" stroke-opacity="1" stroke-miterlimit="10" d="M 49.120539 34.200969 L 220.160312 34.200969 " transform="matrix(0.994697, 0, 0, -0.994697, 0.292272, 176.117271)"/>
<path fill-rule="nonzero" fill="rgb(0%, 44.7052%, 69.802856%)" fill-opacity="1" stroke-width="1" stroke-linecap="butt" stroke-linejoin="round" stroke="rgb(0%, 44.7052%, 69.802856%)" stroke-opacity="1" stroke-miterlimit="10" d="M 84.468131 102.394606 C 85.579492 102.394606 86.643729 102.834438 87.429144 103.619853 C 88.210632 104.405268 88.654391 105.469505 88.654391 106.576939 C 88.654391 107.688301 88.210632 108.752538 87.429144 109.537953 C 86.643729 110.323368 85.579492 110.7632 84.468131 110.7632 C 83.360696 110.7632 82.296459 110.323368 81.511044 109.537953 C 80.725629 108.752538 80.285797 107.688301 80.285797 106.576939 C 80.285797 105.469505 80.725629 104.405268 81.511044 103.619853 C 82.296459 102.834438 83.360696 102.394606 84.468131 102.394606 Z M 84.468131 102.394606 " transform="matrix(0.994697, 0, 0, -0.994697, 0.292272, 176.117271)"/>
<path fill-rule="nonzero" fill="rgb(83.528137%, 36.862183%, 0%)" fill-opacity="1" stroke-width="1" stroke-linecap="butt" stroke-linejoin="round" stroke="rgb(83.528137%, 36.862183%, 0%)" stroke-opacity="1" stroke-miterlimit="10" d="M 195.074164 92.961774 L 200.992264 98.879875 L 195.074164 104.794048 L 189.159991 98.879875 Z M 195.074164 92.961774 " transform="matrix(0.994697, 0, 0, -0.994697, 0.292272, 176.117271)"/>
<g fill="rgb(13.33313%, 13.33313%, 13.33313%)" fill-opacity="1">
<use xlink:href="#glyph-2-0" x="91.686466" y="103.702505"/>
</g>
<g fill="rgb(13.33313%, 13.33313%, 13.33313%)" fill-opacity="1">
<use xlink:href="#glyph-2-1" x="96.691668" y="103.702505"/>
</g>
<g fill="rgb(13.33313%, 13.33313%, 13.33313%)" fill-opacity="1">
<use xlink:href="#glyph-2-2" x="100.796159" y="103.702505"/>
</g>
<g fill="rgb(13.33313%, 13.33313%, 13.33313%)" fill-opacity="1">
<use xlink:href="#glyph-2-3" x="104.760745" y="103.702505"/>
</g>
<g fill="rgb(13.33313%, 13.33313%, 13.33313%)" fill-opacity="1">
<use xlink:href="#glyph-2-4" x="107.308798" y="103.702505"/>
</g>
<g fill="rgb(13.33313%, 13.33313%, 13.33313%)" fill-opacity="1">
<use xlink:href="#glyph-2-5" x="91.686466" y="111.462407"/>
</g>
<g fill="rgb(13.33313%, 13.33313%, 13.33313%)" fill-opacity="1">
<use xlink:href="#glyph-2-6" x="95.803645" y="111.462407"/>
</g>
<g fill="rgb(13.33313%, 13.33313%, 13.33313%)" fill-opacity="1">
<use xlink:href="#glyph-2-7" x="97.856041" y="111.462407"/>
</g>
<g fill="rgb(13.33313%, 13.33313%, 13.33313%)" fill-opacity="1">
<use xlink:href="#glyph-2-8" x="101.97322" y="111.462407"/>
</g>
<g fill="rgb(13.33313%, 13.33313%, 13.33313%)" fill-opacity="1">
<use xlink:href="#glyph-2-9" x="106.090399" y="111.462407"/>
</g>
<g fill="rgb(13.33313%, 13.33313%, 13.33313%)" fill-opacity="1">
<use xlink:href="#glyph-2-10" x="110.207577" y="111.462407"/>
</g>
<g fill="rgb(13.33313%, 13.33313%, 13.33313%)" fill-opacity="1">
<use xlink:href="#glyph-2-11" x="112.259974" y="111.462407"/>
</g>
<g fill="rgb(13.33313%, 13.33313%, 13.33313%)" fill-opacity="1">
<use xlink:href="#glyph-2-12" x="115.973284" y="111.462407"/>
</g>
<g fill="rgb(13.33313%, 13.33313%, 13.33313%)" fill-opacity="1">
<use xlink:href="#glyph-2-10" x="120.090463" y="111.462407"/>
</g>
<g fill="rgb(13.33313%, 13.33313%, 13.33313%)" fill-opacity="1">
<use xlink:href="#glyph-2-13" x="122.14286" y="111.462407"/>
</g>
<g fill="rgb(13.33313%, 13.33313%, 13.33313%)" fill-opacity="1">
<use xlink:href="#glyph-2-10" x="124.319316" y="111.462407"/>
</g>
<g fill="rgb(13.33313%, 13.33313%, 13.33313%)" fill-opacity="1">
<use xlink:href="#glyph-2-12" x="126.371713" y="111.462407"/>
</g>
<g fill="rgb(13.33313%, 13.33313%, 13.33313%)" fill-opacity="1">
<use xlink:href="#glyph-2-14" x="130.488892" y="111.462407"/>
</g>
<g fill="rgb(13.33313%, 13.33313%, 13.33313%)" fill-opacity="1">
<use xlink:href="#glyph-2-9" x="134.60607" y="111.462407"/>
</g>
<g fill="rgb(13.33313%, 13.33313%, 13.33313%)" fill-opacity="1">
<use xlink:href="#glyph-2-10" x="138.723249" y="111.462407"/>
</g>
<g fill="rgb(13.33313%, 13.33313%, 13.33313%)" fill-opacity="1">
<use xlink:href="#glyph-2-15" x="140.775646" y="111.462407"/>
</g>
<g fill="rgb(13.33313%, 13.33313%, 13.33313%)" fill-opacity="1">
<use xlink:href="#glyph-2-16" x="147.069432" y="111.462407"/>
</g>
<g fill="rgb(13.33313%, 13.33313%, 13.33313%)" fill-opacity="1">
<use xlink:href="#glyph-2-17" x="142.725818" y="34.771026"/>
</g>
<g fill="rgb(13.33313%, 13.33313%, 13.33313%)" fill-opacity="1">
<use xlink:href="#glyph-2-18" x="146.83046" y="34.771026"/>
</g>
<g fill="rgb(13.33313%, 13.33313%, 13.33313%)" fill-opacity="1">
<use xlink:href="#glyph-2-19" x="150.935102" y="34.771026"/>
</g>
<g fill="rgb(13.33313%, 13.33313%, 13.33313%)" fill-opacity="1">
<use xlink:href="#glyph-2-20" x="153.467891" y="34.771026"/>
</g>
<g fill="rgb(13.33313%, 13.33313%, 13.33313%)" fill-opacity="1">
<use xlink:href="#glyph-2-21" x="155.800249" y="34.771026"/>
</g>
<g fill="rgb(13.33313%, 13.33313%, 13.33313%)" fill-opacity="1">
<use xlink:href="#glyph-2-6" x="159.917427" y="34.771026"/>
</g>
<g fill="rgb(13.33313%, 13.33313%, 13.33313%)" fill-opacity="1">
<use xlink:href="#glyph-2-9" x="161.969824" y="34.771026"/>
</g>
<g fill="rgb(13.33313%, 13.33313%, 13.33313%)" fill-opacity="1">
<use xlink:href="#glyph-2-20" x="166.087003" y="34.771026"/>
</g>
<g fill="rgb(13.33313%, 13.33313%, 13.33313%)" fill-opacity="1">
<use xlink:href="#glyph-2-15" x="168.41936" y="34.771026"/>
</g>
<g fill="rgb(13.33313%, 13.33313%, 13.33313%)" fill-opacity="1">
<use xlink:href="#glyph-2-22" x="174.713147" y="34.771026"/>
</g>
<g fill="rgb(13.33313%, 13.33313%, 13.33313%)" fill-opacity="1">
<use xlink:href="#glyph-2-23" x="176.517122" y="34.771026"/>
</g>
<g fill="rgb(13.33313%, 13.33313%, 13.33313%)" fill-opacity="1">
<use xlink:href="#glyph-2-22" x="180.621612" y="34.771026"/>
</g>
<g fill="rgb(13.33313%, 13.33313%, 13.33313%)" fill-opacity="1">
<use xlink:href="#glyph-2-5" x="142.725818" y="42.530928"/>
</g>
<g fill="rgb(13.33313%, 13.33313%, 13.33313%)" fill-opacity="1">
<use xlink:href="#glyph-2-6" x="146.842997" y="42.530928"/>
</g>
<g fill="rgb(13.33313%, 13.33313%, 13.33313%)" fill-opacity="1">
<use xlink:href="#glyph-2-7" x="148.895394" y="42.530928"/>
</g>
<g fill="rgb(13.33313%, 13.33313%, 13.33313%)" fill-opacity="1">
<use xlink:href="#glyph-2-24" x="153.012572" y="42.530928"/>
</g>
<g fill="rgb(13.33313%, 13.33313%, 13.33313%)" fill-opacity="1">
<use xlink:href="#glyph-2-9" x="157.129751" y="42.530928"/>
</g>
<g fill="rgb(13.33313%, 13.33313%, 13.33313%)" fill-opacity="1">
<use xlink:href="#glyph-2-10" x="161.24693" y="42.530928"/>
</g>
<g fill="rgb(13.33313%, 13.33313%, 13.33313%)" fill-opacity="1">
<use xlink:href="#glyph-2-11" x="163.299326" y="42.530928"/>
</g>
<g fill="rgb(13.33313%, 13.33313%, 13.33313%)" fill-opacity="1">
<use xlink:href="#glyph-2-12" x="167.012637" y="42.530928"/>
</g>
<g fill="rgb(13.33313%, 13.33313%, 13.33313%)" fill-opacity="1">
<use xlink:href="#glyph-2-10" x="171.129815" y="42.530928"/>
</g>
<g fill="rgb(13.33313%, 13.33313%, 13.33313%)" fill-opacity="1">
<use xlink:href="#glyph-2-13" x="173.182212" y="42.530928"/>
</g>
<g fill="rgb(13.33313%, 13.33313%, 13.33313%)" fill-opacity="1">
<use xlink:href="#glyph-2-10" x="175.358668" y="42.530928"/>
</g>
<g fill="rgb(13.33313%, 13.33313%, 13.33313%)" fill-opacity="1">
<use xlink:href="#glyph-2-21" x="177.411065" y="42.530928"/>
</g>
<g fill="rgb(13.33313%, 13.33313%, 13.33313%)" fill-opacity="1">
<use xlink:href="#glyph-2-12" x="181.528244" y="42.530928"/>
</g>
<g fill="rgb(13.33313%, 13.33313%, 13.33313%)" fill-opacity="1">
<use xlink:href="#glyph-2-14" x="185.645423" y="42.530928"/>
</g>
<g fill="rgb(13.33313%, 13.33313%, 13.33313%)" fill-opacity="1">
<use xlink:href="#glyph-2-10" x="189.762601" y="42.530928"/>
</g>
<g fill="rgb(13.33313%, 13.33313%, 13.33313%)" fill-opacity="1">
<use xlink:href="#glyph-2-15" x="191.814998" y="42.530928"/>
</g>
<g fill="rgb(13.33313%, 13.33313%, 13.33313%)" fill-opacity="1">
<use xlink:href="#glyph-2-16" x="198.108784" y="42.530928"/>
</g>
<g fill="rgb(13.33313%, 13.33313%, 13.33313%)" fill-opacity="1">
<use xlink:href="#glyph-3-0" x="41.222826" y="13.585585"/>
</g>
<g fill="rgb(13.33313%, 13.33313%, 13.33313%)" fill-opacity="1">
<use xlink:href="#glyph-3-1" x="45.947407" y="13.585585"/>
</g>
<g fill="rgb(13.33313%, 13.33313%, 13.33313%)" fill-opacity="1">
<use xlink:href="#glyph-3-2" x="51.124692" y="13.585585"/>
</g>
<g fill="rgb(13.33313%, 13.33313%, 13.33313%)" fill-opacity="1">
<use xlink:href="#glyph-3-3" x="54.418505" y="13.585585"/>
</g>
<g fill="rgb(13.33313%, 13.33313%, 13.33313%)" fill-opacity="1">
<use xlink:href="#glyph-3-4" x="59.623142" y="13.585585"/>
</g>
<g fill="rgb(13.33313%, 13.33313%, 13.33313%)" fill-opacity="1">
<use xlink:href="#glyph-3-5" x="62.93286" y="13.585585"/>
</g>
<g fill="rgb(13.33313%, 13.33313%, 13.33313%)" fill-opacity="1">
<use xlink:href="#glyph-3-6" x="68.109947" y="13.585585"/>
</g>
<g fill="rgb(13.33313%, 13.33313%, 13.33313%)" fill-opacity="1">
<use xlink:href="#glyph-3-7" x="70.954886" y="13.585585"/>
</g>
<g fill="rgb(13.33313%, 13.33313%, 13.33313%)" fill-opacity="1">
<use xlink:href="#glyph-3-8" x="73.644767" y="13.585585"/>
</g>
<g fill="rgb(13.33313%, 13.33313%, 13.33313%)" fill-opacity="1">
<use xlink:href="#glyph-3-1" x="79.008789" y="13.585585"/>
</g>
<g fill="rgb(13.33313%, 13.33313%, 13.33313%)" fill-opacity="1">
<use xlink:href="#glyph-3-2" x="84.186075" y="13.585585"/>
</g>
<g fill="rgb(13.33313%, 13.33313%, 13.33313%)" fill-opacity="1">
<use xlink:href="#glyph-3-9" x="87.666393" y="13.585585"/>
</g>
<g fill="rgb(13.33313%, 13.33313%, 13.33313%)" fill-opacity="1">
<use xlink:href="#glyph-3-4" x="90.014677" y="13.585585"/>
</g>
<g fill="rgb(13.33313%, 13.33313%, 13.33313%)" fill-opacity="1">
<use xlink:href="#glyph-3-10" x="93.324394" y="13.585585"/>
</g>
<g fill="rgb(13.33313%, 13.33313%, 13.33313%)" fill-opacity="1">
<use xlink:href="#glyph-3-7" x="98.330683" y="13.585585"/>
</g>
<g fill="rgb(13.33313%, 13.33313%, 13.33313%)" fill-opacity="1">
<use xlink:href="#glyph-3-11" x="101.020564" y="13.585585"/>
</g>
<g fill="rgb(13.33313%, 13.33313%, 13.33313%)" fill-opacity="1">
<use xlink:href="#glyph-3-12" x="105.883605" y="13.585585"/>
</g>
<g fill="rgb(13.33313%, 13.33313%, 13.33313%)" fill-opacity="1">
<use xlink:href="#glyph-3-7" x="111.259239" y="13.585585"/>
</g>
<g fill="rgb(13.33313%, 13.33313%, 13.33313%)" fill-opacity="1">
<use xlink:href="#glyph-3-1" x="113.94912" y="13.585585"/>
</g>
<g fill="rgb(13.33313%, 13.33313%, 13.33313%)" fill-opacity="1">
<use xlink:href="#glyph-3-4" x="119.126405" y="13.585585"/>
</g>
<g fill="rgb(13.33313%, 13.33313%, 13.33313%)" fill-opacity="1">
<use xlink:href="#glyph-3-7" x="122.436123" y="13.585585"/>
</g>
<g fill="rgb(13.33313%, 13.33313%, 13.33313%)" fill-opacity="1">
<use xlink:href="#glyph-3-13" x="125.126004" y="13.585585"/>
</g>
<g fill="rgb(13.33313%, 13.33313%, 13.33313%)" fill-opacity="1">
<use xlink:href="#glyph-3-14" x="132.214148" y="13.585585"/>
</g>
<g fill="rgb(13.33313%, 13.33313%, 13.33313%)" fill-opacity="1">
<use xlink:href="#glyph-3-15" x="137.589782" y="13.585585"/>
</g>
<g fill="rgb(13.33313%, 13.33313%, 13.33313%)" fill-opacity="1">
<use xlink:href="#glyph-3-7" x="142.59607" y="13.585585"/>
</g>
<g fill="rgb(13.33313%, 13.33313%, 13.33313%)" fill-opacity="1">
<use xlink:href="#glyph-3-16" x="145.285952" y="13.585585"/>
</g>
<g fill="rgb(13.33313%, 13.33313%, 13.33313%)" fill-opacity="1">
<use xlink:href="#glyph-3-5" x="147.634236" y="13.585585"/>
</g>
<g fill="rgb(13.33313%, 13.33313%, 13.33313%)" fill-opacity="1">
<use xlink:href="#glyph-3-17" x="152.811323" y="13.585585"/>
</g>
<g fill="rgb(13.33313%, 13.33313%, 13.33313%)" fill-opacity="1">
<use xlink:href="#glyph-3-3" x="159.728668" y="13.585585"/>
</g>
<g fill="rgb(13.33313%, 13.33313%, 13.33313%)" fill-opacity="1">
<use xlink:href="#glyph-3-2" x="164.933305" y="13.585585"/>
</g>
<g fill="rgb(13.33313%, 13.33313%, 13.33313%)" fill-opacity="1">
<use xlink:href="#glyph-3-7" x="168.413623" y="13.585585"/>
</g>
<g fill="rgb(13.33313%, 13.33313%, 13.33313%)" fill-opacity="1">
<use xlink:href="#glyph-3-16" x="171.103505" y="13.585585"/>
</g>
<g fill="rgb(13.33313%, 13.33313%, 13.33313%)" fill-opacity="1">
<use xlink:href="#glyph-3-1" x="173.451789" y="13.585585"/>
</g>
<g fill="rgb(13.33313%, 13.33313%, 13.33313%)" fill-opacity="1">
<use xlink:href="#glyph-3-4" x="178.629074" y="13.585585"/>
</g>
<g fill="rgb(13.33313%, 13.33313%, 13.33313%)" fill-opacity="1">
<use xlink:href="#glyph-3-3" x="181.938792" y="13.585585"/>
</g>
<g fill="rgb(13.33313%, 13.33313%, 13.33313%)" fill-opacity="1">
<use xlink:href="#glyph-3-18" x="187.143429" y="13.585585"/>
</g>
<g fill="rgb(13.33313%, 13.33313%, 13.33313%)" fill-opacity="1">
<use xlink:href="#glyph-3-19" x="192.507253" y="13.585585"/>
</g>
<g fill="rgb(13.33313%, 13.33313%, 13.33313%)" fill-opacity="1">
<use xlink:href="#glyph-3-10" x="197.156006" y="13.585585"/>
</g>
<g fill="rgb(13.33313%, 13.33313%, 13.33313%)" fill-opacity="1">
<use xlink:href="#glyph-3-20" x="202.162295" y="13.585585"/>
</g>
<g fill="rgb(13.33313%, 13.33313%, 13.33313%)" fill-opacity="1">
<use xlink:href="#glyph-3-7" x="204.852176" y="13.585585"/>
</g>
<g fill="rgb(13.33313%, 13.33313%, 13.33313%)" fill-opacity="1">
<use xlink:href="#glyph-3-16" x="207.542057" y="13.585585"/>
</g>
<g fill="rgb(13.33313%, 13.33313%, 13.33313%)" fill-opacity="1">
<use xlink:href="#glyph-3-5" x="209.890342" y="13.585585"/>
</g>
<g fill="rgb(13.33313%, 13.33313%, 13.33313%)" fill-opacity="1">
<use xlink:href="#glyph-3-19" x="215.067429" y="13.585585"/>
</g>
<g fill="rgb(13.33313%, 13.33313%, 13.33313%)" fill-opacity="1">
<use xlink:href="#glyph-3-1" x="219.716182" y="13.585585"/>
</g>
<g fill="rgb(13.33313%, 13.33313%, 13.33313%)" fill-opacity="1">
<use xlink:href="#glyph-3-16" x="224.893467" y="13.585585"/>
</g>
</svg>
